0
SECTION
2
HEADER
9
$ACADVER
1
AC1009
9
$EXTMIN
10
3399254.872500
20
5275352.810000
30
0.000000
9
$EXTMAX
10
3399396.340000
20
5275470.315000
30
292.747000
0
ENDSEC
0
SECTION
2
TABLES
0
TABLE
2
LAYER
0
LAYER
2
0
62
7
70
0
6
CONTINUOUS
0
LAYER
2
GRENZPUNKT
62
7
70
0
6
CONTINUOUS
0
LAYER
2
GEBAEUDEPKTGEMESSEN
62
7
70
0
6
CONTINUOUS
0
LAYER
2
98
62
7
70
0
6
CONTINUOUS
0
LAYER
2
99
62
7
70
0
6
CONTINUOUS
0
LAYER
2
GRENZPUNKTGRAFISCH
62
7
70
0
6
CONTINUOUS
0
LAYER
2
250
62
7
70
0
6
CONTINUOUS
0
LAYER
2
MAUERTREPPEUSW
62
7
70
0
6
CONTINUOUS
0
LAYER
2
UEBERDACHUNGOFFENEHALLE
62
7
70
0
6
CONTINUOUS
0
LAYER
2
AUSKRAGENDEGESCHOSSE
62
7
70
0
6
CONTINUOUS
0
LAYER
2
VERWALTUNGSGEBAEUDE
62
7
70
0
6
CONTINUOUS
0
LAYER
2
MUSEUMSGEBAEUDE
62
7
70
0
6
CONTINUOUS
0
LAYER
2
VERANSTALTUNGSGEBAEUDE
62
7
70
0
6
CONTINUOUS
0
LAYER
2
GEMEINDEHAUS
62
7
70
0
6
CONTINUOUS
0
LAYER
2
WOHNHAUS
62
7
70
0
6
CONTINUOUS
0
LAYER
2
ALTERSHEIM
62
7
70
0
6
CONTINUOUS
0
LAYER
2
BUEROGEBAEUDE
62
7
70
0
6
CONTINUOUS
0
LAYER
2
GASTSTAETTE
62
7
70
0
6
CONTINUOUS
0
LAYER
2
BETRIEBSGEBAEUDE
62
7
70
0
6
CONTINUOUS
0
LAYER
2
LAGERGEBAEUDE
62
7
70
0
6
CONTINUOUS
0
LAYER
2
WOHNGESCHAEFTSHAUS
62
7
70
0
6
CONTINUOUS
0
LAYER
2
WOHNBETRIEBSGEBAEUDE
62
7
70
0
6
CONTINUOUS
0
LAYER
2
TIEFGARAGE
62
7
70
0
6
CONTINUOUS
0
LAYER
2
GARAGE
62
7
70
0
6
CONTINUOUS
0
LAYER
2
SCHUPPEN
62
7
70
0
6
CONTINUOUS
0
LAYER
2
998
62
7
70
0
6
CONTINUOUS
0
LAYER
2
999
62
7
70
0
6
CONTINUOUS
0
LAYER
2
TREPPE
62
7
70
0
6
CONTINUOUS
0
LAYER
2
PFLANZFLALLGEMEIN
62
7
70
0
6
CONTINUOUS
0
LAYER
2
FAHRBAHNRANDOK
62
7
70
0
6
CONTINUOUS
0
LAYER
2
LAMPE
62
7
70
0
6
CONTINUOUS
0
LAYER
2
STELLKANTEPFLASTERFLAE
62
7
70
0
6
CONTINUOUS
0
LAYER
2
GEHWEGKANTE
62
7
70
0
6
CONTINUOUS
0
LAYER
2
AMPEL
62
7
70
0
6
CONTINUOUS
0
LAYER
2
KVKUNDTELEKOMSCHACHT
62
7
70
0
6
CONTINUOUS
0
LAYER
2
KABELSCHACHDECKEL
62
7
70
0
6
CONTINUOUS
0
LAYER
2
BUSHALTESTELLE
62
7
70
0
6
CONTINUOUS
0
LAYER
2
FAHRBAHNRANDOKBL
62
7
70
0
6
CONTINUOUS
0
LAYER
2
2053
62
7
70
0
6
CONTINUOUS
0
LAYER
2
STRASSENEINLAUF
62
7
70
0
6
CONTINUOUS
0
ENDTAB
0
ENDSEC
0
SECTION
2
BLOCKS
0
BLOCK
100
AcDbEntity
100
AcDbBlockBegin
8
0
5
100
2
*Model_Space
70
65
10
0.0
20
0.0
30
0.0
3
*Model_Space
0
ENDBLK
100
AcDbEntity
100
AcDbBlockEnd
8
0
5
101
0
BLOCK
100
AcDbEntity
100
AcDbBlockBegin
8
0
5
102
2
*Paper_Space
70
65
10
0.0
20
0.0
30
0.0
3
*Paper_Space
0
ENDBLK
100
AcDbEntity
100
AcDbBlockEnd
8
0
5
103
0
BLOCK
100
AcDbEntity
100
AcDbBlockBegin
8
0
5
104
2
GRENZPUNKT
70
64
10
0.0
20
0.0
30
0.0
3
GRENZPUNKT
0
ARC
100
AcDbEntity
100
AcDbCircle
8
0
5
105
10
0.000000
20
0.000000
30
0.000000
40
0.500000
50
90.000000
51
180.000000
62
7
0
ARC
100
AcDbEntity
100
AcDbCircle
8
0
5
106
10
0.000000
20
0.000000
30
0.000000
40
0.500000
50
0.000000
51
90.000000
62
7
0
ARC
100
AcDbEntity
100
AcDbCircle
8
0
5
107
10
0.000000
20
0.000000
30
0.000000
40
0.500000
50
270.000000
51
360.000000
62
7
0
ARC
100
AcDbEntity
100
AcDbCircle
8
0
5
108
10
0.000000
20
0.000000
30
0.000000
40
0.500000
50
180.000000
51
270.000000
62
7
0
ENDBLK
100
AcDbEntity
100
AcDbBlockEnd
8
0
5
109
0
BLOCK
100
AcDbEntity
100
AcDbBlockBegin
8
0
5
10A
2
KABELSCHACHT
70
64
10
0.0
20
0.0
30
0.0
3
KABELSCHACHT
0
LINE
100
AcDbEntity
100
AcDbLine
8
0
5
10B
10
0.500000
20
0.300000
30
0.000000
11
-0.500000
21
0.300000
31
0.000000
62
7
0
LINE
100
AcDbEntity
100
AcDbLine
8
0
5
10C
10
-0.500000
20
0.300000
30
0.000000
11
-0.500000
21
-0.300000
31
0.000000
62
7
0
LINE
100
AcDbEntity
100
AcDbLine
8
0
5
10D
10
-0.500000
20
-0.300000
30
0.000000
11
0.500000
21
-0.300000
31
0.000000
62
7
0
LINE
100
AcDbEntity
100
AcDbLine
8
0
5
10E
10
0.300000
20
-0.100000
30
0.000000
11
0.335000
21
-0.050000
31
0.000000
62
7
0
LINE
100
AcDbEntity
100
AcDbLine
8
0
5
10F
10
0.335000
20
-0.050000
30
0.000000
11
0.400000
21
-0.200000
31
0.000000
62
7
0
LINE
100
AcDbEntity
100
AcDbLine
8
0
5
110
10
0.400000
20
-0.200000
30
0.000000
11
0.265000
21
-0.150000
31
0.000000
62
7
0
LINE
100
AcDbEntity
100
AcDbLine
8
0
5
111
10
0.265000
20
-0.150000
30
0.000000
11
0.300000
21
-0.100000
31
0.000000
62
7
0
LINE
100
AcDbEntity
100
AcDbLine
8
0
5
112
10
0.300000
20
-0.100000
30
0.000000
11
0.000000
21
0.200000
31
0.000000
62
7
0
LINE
100
AcDbEntity
100
AcDbLine
8
0
5
113
10
0.000000
20
0.200000
30
0.000000
11
0.100000
21
-0.100000
31
0.000000
62
7
0
LINE
100
AcDbEntity
100
AcDbLine
8
0
5
114
10
0.100000
20
-0.100000
30
0.000000
11
-0.400000
21
0.200000
31
0.000000
62
7
0
LINE
100
AcDbEntity
100
AcDbLine
8
0
5
115
10
0.500000
20
-0.300000
30
0.000000
11
0.500000
21
0.300000
31
0.000000
62
7
0
ENDBLK
100
AcDbEntity
100
AcDbBlockEnd
8
0
5
116
0
BLOCK
100
AcDbEntity
100
AcDbBlockBegin
8
0
5
117
2
AMPEL
70
64
10
0.0
20
0.0
30
0.0
3
AMPEL
0
LINE
100
AcDbEntity
100
AcDbLine
8
0
5
118
10
0.000000
20
0.000000
30
0.000000
11
0.000000
21
0.050000
31
0.000000
62
7
0
ARC
100
AcDbEntity
100
AcDbCircle
8
0
5
119
10
0.000000
20
0.000000
30
0.000000
40
0.050000
50
180.000000
51
270.000000
62
7
0
LINE
100
AcDbEntity
100
AcDbLine
8
0
5
11A
10
0.000000
20
0.050000
30
0.000000
11
0.000000
21
0.800000
31
0.000000
62
7
0
LINE
100
AcDbEntity
100
AcDbLine
8
0
5
11B
10
0.000000
20
0.800000
30
0.000000
11
-0.200000
21
0.800000
31
0.000000
62
7
0
LINE
100
AcDbEntity
100
AcDbLine
8
0
5
11C
10
-0.200000
20
0.800000
30
0.000000
11
-0.200000
21
1.900000
31
0.000000
62
7
0
LINE
100
AcDbEntity
100
AcDbLine
8
0
5
11D
10
-0.200000
20
1.900000
30
0.000000
11
0.200000
21
1.900000
31
0.000000
62
7
0
LINE
100
AcDbEntity
100
AcDbLine
8
0
5
11E
10
0.200000
20
1.900000
30
0.000000
11
0.200000
21
0.800000
31
0.000000
62
7
0
LINE
100
AcDbEntity
100
AcDbLine
8
0
5
11F
10
0.200000
20
0.800000
30
0.000000
11
0.000000
21
0.800000
31
0.000000
62
7
0
ARC
100
AcDbEntity
100
AcDbCircle
8
0
5
120
10
0.000000
20
1.100000
30
0.000000
40
0.100000
50
0.000000
51
90.000000
62
7
0
ARC
100
AcDbEntity
100
AcDbCircle
8
0
5
121
10
0.000000
20
1.100000
30
0.000000
40
0.100000
50
270.000000
51
360.000000
62
7
0
ARC
100
AcDbEntity
100
AcDbCircle
8
0
5
122
10
0.000000
20
1.100000
30
0.000000
40
0.100000
50
180.000000
51
270.000000
62
7
0
ARC
100
AcDbEntity
100
AcDbCircle
8
0
5
123
10
0.000000
20
1.100000
30
0.000000
40
0.100000
50
90.000000
51
180.000000
62
7
0
ARC
100
AcDbEntity
100
AcDbCircle
8
0
5
124
10
0.000000
20
1.400000
30
0.000000
40
0.100000
50
0.000000
51
90.000000
62
7
0
ARC
100
AcDbEntity
100
AcDbCircle
8
0
5
125
10
0.000000
20
1.400000
30
0.000000
40
0.100000
50
270.000000
51
360.000000
62
7
0
ARC
100
AcDbEntity
100
AcDbCircle
8
0
5
126
10
0.000000
20
1.400000
30
0.000000
40
0.100000
50
180.000000
51
270.000000
62
7
0
ARC
100
AcDbEntity
100
AcDbCircle
8
0
5
127
10
0.000000
20
1.400000
30
0.000000
40
0.100000
50
90.000000
51
180.000000
62
7
0
ARC
100
AcDbEntity
100
AcDbCircle
8
0
5
128
10
0.000000
20
1.700000
30
0.000000
40
0.100000
50
0.000000
51
90.000000
62
7
0
ARC
100
AcDbEntity
100
AcDbCircle
8
0
5
129
10
0.000000
20
1.700000
30
0.000000
40
0.100000
50
270.000000
51
360.000000
62
7
0
ARC
100
AcDbEntity
100
AcDbCircle
8
0
5
12A
10
0.000000
20
1.700000
30
0.000000
40
0.100000
50
180.000000
51
270.000000
62
7
0
ARC
100
AcDbEntity
100
AcDbCircle
8
0
5
12B
10
0.000000
20
1.700000
30
0.000000
40
0.100000
50
90.000000
51
180.000000
62
7
0
ENDBLK
100
AcDbEntity
100
AcDbBlockEnd
8
0
5
12C
0
BLOCK
100
AcDbEntity
100
AcDbBlockBegin
8
0
5
12D
2
STREINLAUF
70
64
10
0.0
20
0.0
30
0.0
3
STREINLAUF
0
LINE
100
AcDbEntity
100
AcDbLine
8
0
5
12E
10
0.750000
20
0.000000
30
0.000000
11
0.750000
21
0.750000
31
0.000000
62
7
0
LINE
100
AcDbEntity
100
AcDbLine
8
0
5
12F
10
0.750000
20
0.750000
30
0.000000
11
-0.750000
21
0.750000
31
0.000000
62
7
0
LINE
100
AcDbEntity
100
AcDbLine
8
0
5
130
10
-0.750000
20
0.750000
30
0.000000
11
-0.750000
21
-0.750000
31
0.000000
62
7
0
LINE
100
AcDbEntity
100
AcDbLine
8
0
5
131
10
-0.750000
20
-0.750000
30
0.000000
11
0.750000
21
-0.750000
31
0.000000
62
7
0
LINE
100
AcDbEntity
100
AcDbLine
8
0
5
132
10
0.750000
20
-0.750000
30
0.000000
11
0.750000
21
0.000000
31
0.000000
62
7
0
LINE
100
AcDbEntity
100
AcDbLine
8
0
5
133
10
0.500000
20
0.500000
30
0.000000
11
0.500000
21
-0.500000
31
0.000000
62
7
0
LINE
100
AcDbEntity
100
AcDbLine
8
0
5
134
10
0.250000
20
-0.500000
30
0.000000
11
0.250000
21
0.500000
31
0.000000
62
7
0
LINE
100
AcDbEntity
100
AcDbLine
8
0
5
135
10
0.000000
20
0.500000
30
0.000000
11
0.000000
21
-0.500000
31
0.000000
62
7
0
LINE
100
AcDbEntity
100
AcDbLine
8
0
5
136
10
-0.250000
20
-0.500000
30
0.000000
11
-0.250000
21
0.500000
31
0.000000
62
7
0
LINE
100
AcDbEntity
100
AcDbLine
8
0
5
137
10
-0.500000
20
0.500000
30
0.000000
11
-0.500000
21
-0.500000
31
0.000000
62
7
0
ENDBLK
100
AcDbEntity
100
AcDbBlockEnd
8
0
5
138
0
BLOCK
100
AcDbEntity
100
AcDbBlockBegin
8
0
5
139
2
GULLY
70
64
10
0.0
20
0.0
30
0.0
3
GULLY
0
LINE
100
AcDbEntity
100
AcDbLine
8
0
5
13A
10
-1.250000
20
0.000000
30
0.000000
11
-1.250000
21
-0.750000
31
0.000000
62
7
0
LINE
100
AcDbEntity
100
AcDbLine
8
0
5
13B
10
-1.250000
20
-0.750000
30
0.000000
11
1.250000
21
-0.750000
31
0.000000
62
7
0
LINE
100
AcDbEntity
100
AcDbLine
8
0
5
13C
10
1.250000
20
-0.750000
30
0.000000
11
1.250000
21
0.750000
31
0.000000
62
7
0
LINE
100
AcDbEntity
100
AcDbLine
8
0
5
13D
10
1.250000
20
0.750000
30
0.000000
11
-1.250000
21
0.750000
31
0.000000
62
7
0
LINE
100
AcDbEntity
100
AcDbLine
8
0
5
13E
10
-1.250000
20
0.750000
30
0.000000
11
-1.250000
21
0.000000
31
0.000000
62
7
0
LINE
100
AcDbEntity
100
AcDbLine
8
0
5
13F
10
-1.000000
20
-0.500000
30
0.000000
11
-1.000000
21
0.500000
31
0.000000
62
7
0
LINE
100
AcDbEntity
100
AcDbLine
8
0
5
140
10
-0.750000
20
0.500000
30
0.000000
11
-0.750000
21
-0.500000
31
0.000000
62
7
0
LINE
100
AcDbEntity
100
AcDbLine
8
0
5
141
10
-0.500000
20
-0.500000
30
0.000000
11
-0.500000
21
0.500000
31
0.000000
62
7
0
LINE
100
AcDbEntity
100
AcDbLine
8
0
5
142
10
-0.250000
20
0.500000
30
0.000000
11
-0.250000
21
-0.500000
31
0.000000
62
7
0
LINE
100
AcDbEntity
100
AcDbLine
8
0
5
143
10
0.000000
20
0.500000
30
0.000000
11
0.000000
21
-0.500000
31
0.000000
62
7
0
LINE
100
AcDbEntity
100
AcDbLine
8
0
5
144
10
0.250000
20
-0.500000
30
0.000000
11
0.250000
21
0.500000
31
0.000000
62
7
0
LINE
100
AcDbEntity
100
AcDbLine
8
0
5
145
10
0.500000
20
0.500000
30
0.000000
11
0.500000
21
-0.500000
31
0.000000
62
7
0
LINE
100
AcDbEntity
100
AcDbLine
8
0
5
146
10
0.750000
20
-0.500000
30
0.000000
11
0.750000
21
0.500000
31
0.000000
62
7
0
LINE
100
AcDbEntity
100
AcDbLine
8
0
5
147
10
1.000000
20
0.500000
30
0.000000
11
1.000000
21
-0.500000
31
0.000000
62
7
0
ENDBLK
100
AcDbEntity
100
AcDbBlockEnd
8
0
5
148
0
BLOCK
100
AcDbEntity
100
AcDbBlockBegin
8
0
5
149
2
HALTESTELLE
70
64
10
0.0
20
0.0
30
0.0
3
HALTESTELLE
0
LINE
100
AcDbEntity
100
AcDbLine
8
0
5
14A
10
-0.010000
20
0.000000
30
0.000000
11
-0.010000
21
0.500000
31
0.000000
62
7
0
ARC
100
AcDbEntity
100
AcDbCircle
8
0
5
14B
10
0.000000
20
0.700000
30
0.000000
40
0.200000
50
179.928000
51
267.134000
62
7
0
ARC
100
AcDbEntity
100
AcDbCircle
8
0
5
14C
10
0.000000
20
0.700000
30
0.000000
40
0.200000
50
90.000000
51
180.000000
62
7
0
ARC
100
AcDbEntity
100
AcDbCircle
8
0
5
14D
10
0.000000
20
0.700000
30
0.000000
40
0.200000
50
0.000000
51
90.000000
62
7
0
ARC
100
AcDbEntity
100
AcDbCircle
8
0
5
14E
10
0.000000
20
0.700000
30
0.000000
40
0.200000
50
272.866000
51
360.072000
62
7
0
LINE
100
AcDbEntity
100
AcDbLine
8
0
5
14F
10
0.010000
20
0.500000
30
0.000000
11
0.010000
21
0.000000
31
0.000000
62
7
0
LINE
100
AcDbEntity
100
AcDbLine
8
0
5
150
10
0.010000
20
0.000000
30
0.000000
11
0.020000
21
0.000000
31
0.000000
62
7
0
LINE
100
AcDbEntity
100
AcDbLine
8
0
5
151
10
0.020000
20
0.000000
30
0.000000
11
0.020000
21
-0.020000
31
0.000000
62
7
0
LINE
100
AcDbEntity
100
AcDbLine
8
0
5
152
10
0.020000
20
-0.020000
30
0.000000
11
-0.020000
21
-0.020000
31
0.000000
62
7
0
LINE
100
AcDbEntity
100
AcDbLine
8
0
5
153
10
-0.020000
20
-0.020000
30
0.000000
11
-0.020000
21
0.000000
31
0.000000
62
7
0
LINE
100
AcDbEntity
100
AcDbLine
8
0
5
154
10
-0.100000
20
0.600000
30
0.000000
11
-0.100000
21
0.800000
31
0.000000
62
7
0
LINE
100
AcDbEntity
100
AcDbLine
8
0
5
155
10
-0.100000
20
0.800000
30
0.000000
11
-0.070000
21
0.800000
31
0.000000
62
7
0
LINE
100
AcDbEntity
100
AcDbLine
8
0
5
156
10
-0.070000
20
0.800000
30
0.000000
11
-0.070000
21
0.715000
31
0.000000
62
7
0
LINE
100
AcDbEntity
100
AcDbLine
8
0
5
157
10
-0.070000
20
0.715000
30
0.000000
11
0.070000
21
0.715000
31
0.000000
62
7
0
LINE
100
AcDbEntity
100
AcDbLine
8
0
5
158
10
0.070000
20
0.715000
30
0.000000
11
0.070000
21
0.800000
31
0.000000
62
7
0
LINE
100
AcDbEntity
100
AcDbLine
8
0
5
159
10
0.070000
20
0.800000
30
0.000000
11
0.100000
21
0.800000
31
0.000000
62
7
0
LINE
100
AcDbEntity
100
AcDbLine
8
0
5
15A
10
0.100000
20
0.800000
30
0.000000
11
0.100000
21
0.600000
31
0.000000
62
7
0
LINE
100
AcDbEntity
100
AcDbLine
8
0
5
15B
10
0.100000
20
0.600000
30
0.000000
11
0.070000
21
0.600000
31
0.000000
62
7
0
LINE
100
AcDbEntity
100
AcDbLine
8
0
5
15C
10
0.070000
20
0.600000
30
0.000000
11
0.070000
21
0.685000
31
0.000000
62
7
0
LINE
100
AcDbEntity
100
AcDbLine
8
0
5
15D
10
0.070000
20
0.685000
30
0.000000
11
-0.070000
21
0.685000
31
0.000000
62
7
0
LINE
100
AcDbEntity
100
AcDbLine
8
0
5
15E
10
-0.070000
20
0.685000
30
0.000000
11
-0.070000
21
0.600000
31
0.000000
62
7
0
LINE
100
AcDbEntity
100
AcDbLine
8
0
5
15F
10
-0.070000
20
0.600000
30
0.000000
11
-0.100000
21
0.600000
31
0.000000
62
7
0
ENDBLK
100
AcDbEntity
100
AcDbBlockEnd
8
0
5
160
0
BLOCK
100
AcDbEntity
100
AcDbBlockBegin
8
0
5
161
2
NICHTBE
70
64
10
0.0
20
0.0
30
0.0
3
NICHTBE
0
ARC
100
AcDbEntity
100
AcDbCircle
8
0
5
162
10
0.000000
20
0.000000
30
0.000000
40
0.100000
50
270.000000
51
360.000000
62
7
0
ARC
100
AcDbEntity
100
AcDbCircle
8
0
5
163
10
0.000000
20
0.000000
30
0.000000
40
0.100000
50
180.000000
51
270.000000
62
7
0
ARC
100
AcDbEntity
100
AcDbCircle
8
0
5
164
10
0.000000
20
0.002000
30
0.000000
40
0.100000
50
101.525000
51
181.155000
62
7
0
LINE
100
AcDbEntity
100
AcDbLine
8
0
5
165
10
-0.020000
20
0.100000
30
0.000000
11
-0.020000
21
0.500000
31
0.000000
62
7
0
LINE
100
AcDbEntity
100
AcDbLine
8
0
5
166
10
-0.020000
20
0.500000
30
0.000000
11
-0.400000
21
0.500000
31
0.000000
62
7
0
LINE
100
AcDbEntity
100
AcDbLine
8
0
5
167
10
-0.400000
20
0.500000
30
0.000000
11
-0.400000
21
0.900000
31
0.000000
62
7
0
LINE
100
AcDbEntity
100
AcDbLine
8
0
5
168
10
-0.400000
20
0.900000
30
0.000000
11
0.400000
21
0.900000
31
0.000000
62
7
0
LINE
100
AcDbEntity
100
AcDbLine
8
0
5
169
10
0.400000
20
0.900000
30
0.000000
11
0.400000
21
0.500000
31
0.000000
62
7
0
LINE
100
AcDbEntity
100
AcDbLine
8
0
5
16A
10
0.400000
20
0.500000
30
0.000000
11
0.020000
21
0.500000
31
0.000000
62
7
0
LINE
100
AcDbEntity
100
AcDbLine
8
0
5
16B
10
0.020000
20
0.500000
30
0.000000
11
0.020000
21
0.100000
31
0.000000
62
7
0
ARC
100
AcDbEntity
100
AcDbCircle
8
0
5
16C
10
0.000000
20
0.002000
30
0.000000
40
0.100000
50
358.845000
51
438.475000
62
7
0
ENDBLK
100
AcDbEntity
100
AcDbBlockEnd
8
0
5
16D
0
BLOCK
100
AcDbEntity
100
AcDbBlockBegin
8
0
5
16E
2
UNBEKA
70
64
10
0.0
20
0.0
30
0.0
3
UNBEKA
0
LINE
100
AcDbEntity
100
AcDbLine
8
0
5
16F
10
0.100000
20
0.100000
30
0.000000
11
0.100000
21
-0.100000
31
0.000000
62
7
0
LINE
100
AcDbEntity
100
AcDbLine
8
0
5
170
10
0.100000
20
-0.100000
30
0.000000
11
-0.100000
21
-0.100000
31
0.000000
62
7
0
LINE
100
AcDbEntity
100
AcDbLine
8
0
5
171
10
-0.100000
20
-0.100000
30
0.000000
11
-0.100000
21
0.100000
31
0.000000
62
7
0
LINE
100
AcDbEntity
100
AcDbLine
8
0
5
172
10
-0.100000
20
0.100000
30
0.000000
11
0.100000
21
0.100000
31
0.000000
62
7
0
LINE
100
AcDbEntity
100
AcDbLine
8
0
5
173
10
0.100000
20
0.100000
30
0.000000
11
0.200000
21
0.200000
31
0.000000
62
7
0
LINE
100
AcDbEntity
100
AcDbLine
8
0
5
174
10
0.100000
20
0.000000
30
0.000000
11
0.200000
21
0.000000
31
0.000000
62
7
0
LINE
100
AcDbEntity
100
AcDbLine
8
0
5
175
10
0.100000
20
-0.100000
30
0.000000
11
0.200000
21
-0.200000
31
0.000000
62
7
0
LINE
100
AcDbEntity
100
AcDbLine
8
0
5
176
10
0.000000
20
-0.100000
30
0.000000
11
0.000000
21
-0.200000
31
0.000000
62
7
0
LINE
100
AcDbEntity
100
AcDbLine
8
0
5
177
10
-0.100000
20
-0.100000
30
0.000000
11
-0.200000
21
-0.200000
31
0.000000
62
7
0
LINE
100
AcDbEntity
100
AcDbLine
8
0
5
178
10
-0.100000
20
0.000000
30
0.000000
11
-0.200000
21
0.000000
31
0.000000
62
7
0
LINE
100
AcDbEntity
100
AcDbLine
8
0
5
179
10
-0.100000
20
0.100000
30
0.000000
11
-0.200000
21
0.200000
31
0.000000
62
7
0
LINE
100
AcDbEntity
100
AcDbLine
8
0
5
17A
10
0.000000
20
0.100000
30
0.000000
11
0.000000
21
0.200000
31
0.000000
62
7
0
ENDBLK
100
AcDbEntity
100
AcDbBlockEnd
8
0
5
17B
0
BLOCK
100
AcDbEntity
100
AcDbBlockBegin
8
0
5
17C
2
NI
70
64
10
0.0
20
0.0
30
0.0
3
NI
0
LINE
100
AcDbEntity
100
AcDbLine
8
0
5
17D
10
0.500000
20
0.208000
30
0.000000
11
0.500000
21
-0.208000
31
0.000000
62
7
0
LINE
100
AcDbEntity
100
AcDbLine
8
0
5
17E
10
0.500000
20
-0.208000
30
0.000000
11
-0.500000
21
-0.208000
31
0.000000
62
7
0
LINE
100
AcDbEntity
100
AcDbLine
8
0
5
17F
10
-0.500000
20
-0.208000
30
0.000000
11
-0.500000
21
0.208000
31
0.000000
62
7
0
LINE
100
AcDbEntity
100
AcDbLine
8
0
5
180
10
-0.500000
20
0.208000
30
0.000000
11
0.500000
21
0.208000
31
0.000000
62
7
0
LINE
100
AcDbEntity
100
AcDbLine
8
0
5
181
10
0.500000
20
0.208000
30
0.000000
11
-0.500000
21
-0.208000
31
0.000000
62
7
0
LINE
100
AcDbEntity
100
AcDbLine
8
0
5
182
10
-0.500000
20
-0.208000
30
0.000000
11
-0.500000
21
0.208000
31
0.000000
62
7
0
LINE
100
AcDbEntity
100
AcDbLine
8
0
5
183
10
-0.500000
20
0.208000
30
0.000000
11
0.500000
21
-0.208000
31
0.000000
62
7
0
ENDBLK
100
AcDbEntity
100
AcDbBlockEnd
8
0
5
184
0
BLOCK
100
AcDbEntity
100
AcDbBlockBegin
8
0
5
185
2
KREISKL
70
64
10
0.0
20
0.0
30
0.0
3
KREISKL
0
ARC
100
AcDbEntity
100
AcDbCircle
8
0
5
186
10
0.000000
20
0.000000
30
0.000000
40
0.100000
50
0.000000
51
90.000000
62
7
0
ARC
100
AcDbEntity
100
AcDbCircle
8
0
5
187
10
0.000000
20
0.000000
30
0.000000
40
0.100000
50
270.000000
51
360.000000
62
7
0
ARC
100
AcDbEntity
100
AcDbCircle
8
0
5
188
10
0.000000
20
0.000000
30
0.000000
40
0.100000
50
180.000000
51
270.000000
62
7
0
ARC
100
AcDbEntity
100
AcDbCircle
8
0
5
189
10
0.000000
20
0.000000
30
0.000000
40
0.100000
50
90.000000
51
180.000000
62
7
0
LINE
100
AcDbEntity
100
AcDbLine
8
0
5
18A
10
0.100000
20
0.003000
30
0.000000
11
0.115000
21
0.003000
31
0.000000
62
7
0
LINE
100
AcDbEntity
100
AcDbLine
8
0
5
18B
10
0.115000
20
0.003000
30
0.000000
11
0.115000
21
-0.003000
31
0.000000
62
7
0
LINE
100
AcDbEntity
100
AcDbLine
8
0
5
18C
10
0.115000
20
-0.003000
30
0.000000
11
0.100000
21
-0.025000
31
0.000000
62
7
0
LINE
100
AcDbEntity
100
AcDbLine
8
0
5
18D
10
-0.100000
20
0.003000
30
0.000000
11
-0.115000
21
0.003000
31
0.000000
62
7
0
LINE
100
AcDbEntity
100
AcDbLine
8
0
5
18E
10
-0.115000
20
0.003000
30
0.000000
11
-0.115000
21
-0.003000
31
0.000000
62
7
0
LINE
100
AcDbEntity
100
AcDbLine
8
0
5
18F
10
-0.115000
20
-0.003000
30
0.000000
11
-0.100000
21
-0.003000
31
0.000000
62
7
0
ENDBLK
100
AcDbEntity
100
AcDbBlockEnd
8
0
5
190
0
BLOCK
100
AcDbEntity
100
AcDbBlockBegin
8
0
5
191
2
PFEIL
70
64
10
0.0
20
0.0
30
0.0
3
PFEIL
0
LINE
100
AcDbEntity
100
AcDbLine
8
0
5
192
10
-0.750000
20
0.750000
30
0.000000
11
0.750000
21
0.750000
31
0.000000
62
7
0
LINE
100
AcDbEntity
100
AcDbLine
8
0
5
193
10
0.750000
20
0.750000
30
0.000000
11
-0.022000
21
-0.767000
31
0.000000
62
7
0
LINE
100
AcDbEntity
100
AcDbLine
8
0
5
194
10
-0.022000
20
-0.767000
30
0.000000
11
-0.750000
21
0.750000
31
0.000000
62
7
0
ENDBLK
100
AcDbEntity
100
AcDbBlockEnd
8
0
5
195
0
ENDSEC
0
SECTION
2
ENTITIES
0
INSERT
100
AcDbEntity
100
AcDbBlockReference
8
GRENZPUNKT
5
196
2
GRENZPUNKT
10
3399367.305000
20
5275383.955000
30
292.161000
41
1.000000
42
1.000000
43
1.000000
50
0.000000
0
INSERT
100
AcDbEntity
100
AcDbBlockReference
8
GRENZPUNKT
5
197
2
GRENZPUNKT
10
3399333.195000
20
5275409.440000
30
0.000000
41
1.000000
42
1.000000
43
1.000000
50
0.000000
0
INSERT
100
AcDbEntity
100
AcDbBlockReference
8
GRENZPUNKT
5
198
2
GRENZPUNKT
10
3399332.595000
20
5275417.635000
30
0.000000
41
1.000000
42
1.000000
43
1.000000
50
0.000000
0
INSERT
100
AcDbEntity
100
AcDbBlockReference
8
GRENZPUNKT
5
199
2
GRENZPUNKT
10
3399333.195000
20
5275409.440000
30
0.000000
41
1.000000
42
1.000000
43
1.000000
50
0.000000
0
INSERT
100
AcDbEntity
100
AcDbBlockReference
8
GEBAEUDEPKTGEMESSEN
5
19A
2
GRENZPUNKT
10
3399320.240000
20
5275452.625000
30
291.435000
41
0.100000
42
0.100000
43
1.000000
50
0.000000
0
INSERT
100
AcDbEntity
100
AcDbBlockReference
8
GEBAEUDEPKTGEMESSEN
5
19B
2
GRENZPUNKT
10
3399320.990000
20
5275452.675000
30
291.416000
41
0.100000
42
0.100000
43
1.000000
50
0.000000
0
INSERT
100
AcDbEntity
100
AcDbBlockReference
8
GEBAEUDEPKTGEMESSEN
5
19C
2
GRENZPUNKT
10
3399321.015000
20
5275454.025000
30
291.444000
41
0.100000
42
0.100000
43
1.000000
50
0.000000
0
INSERT
100
AcDbEntity
100
AcDbBlockReference
8
GEBAEUDEPKTGEMESSEN
5
19D
2
GRENZPUNKT
10
3399320.265000
20
5275454.020000
30
291.470000
41
0.100000
42
0.100000
43
1.000000
50
0.000000
0
INSERT
100
AcDbEntity
100
AcDbBlockReference
8
GEBAEUDEPKTGEMESSEN
5
19E
2
GRENZPUNKT
10
3399378.080000
20
5275443.395000
30
0.000000
41
0.100000
42
0.100000
43
1.000000
50
0.000000
0
INSERT
100
AcDbEntity
100
AcDbBlockReference
8
GEBAEUDEPKTGEMESSEN
5
19F
2
GRENZPUNKT
10
3399320.230000
20
5275458.190000
30
0.000000
41
0.100000
42
0.100000
43
1.000000
50
0.000000
0
INSERT
100
AcDbEntity
100
AcDbBlockReference
8
GRENZPUNKTGRAFISCH
5
1A0
2
GRENZPUNKT
10
3399266.955000
20
5275450.125000
30
0.000000
41
1.000000
42
1.000000
43
1.000000
50
0.000000
0
INSERT
100
AcDbEntity
100
AcDbBlockReference
8
GRENZPUNKTGRAFISCH
5
1A1
2
GRENZPUNKT
10
3399266.935000
20
5275445.775000
30
0.000000
41
1.000000
42
1.000000
43
1.000000
50
0.000000
0
INSERT
100
AcDbEntity
100
AcDbBlockReference
8
GRENZPUNKTGRAFISCH
5
1A2
2
GRENZPUNKT
10
3399267.980000
20
5275445.775000
30
0.000000
41
1.000000
42
1.000000
43
1.000000
50
0.000000
0
INSERT
100
AcDbEntity
100
AcDbBlockReference
8
GRENZPUNKTGRAFISCH
5
1A3
2
GRENZPUNKT
10
3399288.575000
20
5275445.925000
30
0.000000
41
1.000000
42
1.000000
43
1.000000
50
0.000000
0
INSERT
100
AcDbEntity
100
AcDbBlockReference
8
GRENZPUNKTGRAFISCH
5
1A4
2
GRENZPUNKT
10
3399333.650000
20
5275453.800000
30
0.000000
41
0.250000
42
0.250000
43
1.000000
50
0.000000
0
INSERT
100
AcDbEntity
100
AcDbBlockReference
8
GRENZPUNKTGRAFISCH
5
1A5
2
GRENZPUNKT
10
3399333.225000
20
5275444.665000
30
0.000000
41
0.250000
42
0.250000
43
1.000000
50
0.000000
0
INSERT
100
AcDbEntity
100
AcDbBlockReference
8
GRENZPUNKTGRAFISCH
5
1A6
2
GRENZPUNKT
10
3399332.885000
20
5275434.535000
30
0.000000
41
0.250000
42
0.250000
43
1.000000
50
0.000000
0
INSERT
100
AcDbEntity
100
AcDbBlockReference
8
GRENZPUNKTGRAFISCH
5
1A7
2
GRENZPUNKT
10
3399333.235000
20
5275417.555000
30
0.000000
41
1.000000
42
1.000000
43
1.000000
50
0.000000
0
INSERT
100
AcDbEntity
100
AcDbBlockReference
8
GRENZPUNKTGRAFISCH
5
1A8
2
GRENZPUNKT
10
3399368.445000
20
5275449.600000
30
0.000000
41
1.000000
42
1.000000
43
1.000000
50
0.000000
0
INSERT
100
AcDbEntity
100
AcDbBlockReference
8
GRENZPUNKTGRAFISCH
5
1A9
2
GRENZPUNKT
10
3399364.570000
20
5275450.070000
30
0.000000
41
0.250000
42
0.250000
43
1.000000
50
0.000000
0
INSERT
100
AcDbEntity
100
AcDbBlockReference
8
GRENZPUNKTGRAFISCH
5
1AA
2
GRENZPUNKT
10
3399373.145000
20
5275465.835000
30
0.000000
41
1.000000
42
1.000000
43
1.000000
50
0.000000
0
INSERT
100
AcDbEntity
100
AcDbBlockReference
8
GRENZPUNKTGRAFISCH
5
1AB
2
GRENZPUNKT
10
3399352.595000
20
5275456.645000
30
0.000000
41
1.000000
42
1.000000
43
1.000000
50
0.000000
0
INSERT
100
AcDbEntity
100
AcDbBlockReference
8
GRENZPUNKTGRAFISCH
5
1AC
2
GRENZPUNKT
10
3399355.930000
20
5275451.110000
30
0.000000
41
1.000000
42
1.000000
43
1.000000
50
0.000000
0
INSERT
100
AcDbEntity
100
AcDbBlockReference
8
GRENZPUNKTGRAFISCH
5
1AD
2
GRENZPUNKT
10
3399356.450000
20
5275455.950000
30
0.000000
41
1.000000
42
1.000000
43
1.000000
50
0.000000
0
INSERT
100
AcDbEntity
100
AcDbBlockReference
8
GRENZPUNKTGRAFISCH
5
1AE
2
GRENZPUNKT
10
3399343.520000
20
5275458.335000
30
0.000000
41
0.250000
42
0.250000
43
1.000000
50
0.000000
0
INSERT
100
AcDbEntity
100
AcDbBlockReference
8
GRENZPUNKTGRAFISCH
5
1AF
2
GRENZPUNKT
10
3399343.785000
20
5275460.615000
30
0.000000
41
0.250000
42
0.250000
43
1.000000
50
0.000000
0
INSERT
100
AcDbEntity
100
AcDbBlockReference
8
GRENZPUNKTGRAFISCH
5
1B0
2
GRENZPUNKT
10
3399344.895000
20
5275468.610000
30
0.000000
41
0.250000
42
0.250000
43
1.000000
50
0.000000
0
INSERT
100
AcDbEntity
100
AcDbBlockReference
8
GRENZPUNKTGRAFISCH
5
1B1
2
GRENZPUNKT
10
3399360.075000
20
5275442.320000
30
0.000000
41
0.250000
42
0.250000
43
1.000000
50
0.000000
0
INSERT
100
AcDbEntity
100
AcDbBlockReference
8
GRENZPUNKTGRAFISCH
5
1B2
2
GRENZPUNKT
10
3399351.500000
20
5275443.050000
30
0.000000
41
0.250000
42
0.250000
43
1.000000
50
0.000000
0
INSERT
100
AcDbEntity
100
AcDbBlockReference
8
GRENZPUNKTGRAFISCH
5
1B3
2
GRENZPUNKT
10
3399342.755000
20
5275444.355000
30
0.000000
41
0.250000
42
0.250000
43
1.000000
50
0.000000
0
INSERT
100
AcDbEntity
100
AcDbBlockReference
8
GRENZPUNKTGRAFISCH
5
1B4
2
GRENZPUNKT
10
3399346.840000
20
5275433.555000
30
0.000000
41
0.250000
42
0.250000
43
1.000000
50
0.000000
0
INSERT
100
AcDbEntity
100
AcDbBlockReference
8
GRENZPUNKTGRAFISCH
5
1B5
2
GRENZPUNKT
10
3399357.655000
20
5275432.150000
30
0.000000
41
0.250000
42
0.250000
43
1.000000
50
0.000000
0
INSERT
100
AcDbEntity
100
AcDbBlockReference
8
GRENZPUNKTGRAFISCH
5
1B6
2
GRENZPUNKT
10
3399335.800000
20
5275469.840000
30
0.000000
41
0.250000
42
0.250000
43
1.000000
50
171.450000
0
INSERT
100
AcDbEntity
100
AcDbBlockReference
8
GRENZPUNKTGRAFISCH
5
1B7
2
GRENZPUNKT
10
3399334.720000
20
5275461.780000
30
0.000000
41
0.250000
42
0.250000
43
1.000000
50
352.440000
0
INSERT
100
AcDbEntity
100
AcDbBlockReference
8
250
5
1B8
2
GRENZPUNKT
10
3399297.055000
20
5275394.630000
30
0.000000
41
0.100000
42
0.100000
43
1.000000
50
0.000000
0
INSERT
100
AcDbEntity
100
AcDbBlockReference
8
250
5
1B9
2
GRENZPUNKT
10
3399313.880000
20
5275394.670000
30
0.000000
41
0.100000
42
0.100000
43
1.000000
50
0.000000
0
INSERT
100
AcDbEntity
100
AcDbBlockReference
8
250
5
1BA
2
GRENZPUNKT
10
3399387.145000
20
5275386.650000
30
0.000000
41
0.100000
42
0.100000
43
1.000000
50
0.000000
0
INSERT
100
AcDbEntity
100
AcDbBlockReference
8
250
5
1BB
2
GRENZPUNKT
10
3399387.210000
20
5275392.000000
30
0.000000
41
0.100000
42
0.100000
43
1.000000
50
0.000000
0
INSERT
100
AcDbEntity
100
AcDbBlockReference
8
250
5
1BC
2
GRENZPUNKT
10
3399387.495000
20
5275392.630000
30
0.000000
41
0.100000
42
0.100000
43
1.000000
50
0.000000
0
INSERT
100
AcDbEntity
100
AcDbBlockReference
8
250
5
1BD
2
GRENZPUNKT
10
3399388.195000
20
5275392.890000
30
0.000000
41
0.100000
42
0.100000
43
1.000000
50
0.000000
0
INSERT
100
AcDbEntity
100
AcDbBlockReference
8
250
5
1BE
2
GRENZPUNKT
10
3399388.230000
20
5275393.820000
30
0.000000
41
0.100000
42
0.100000
43
1.000000
50
0.000000
0
INSERT
100
AcDbEntity
100
AcDbBlockReference
8
250
5
1BF
2
GRENZPUNKT
10
3399387.535000
20
5275394.020000
30
0.000000
41
0.100000
42
0.100000
43
1.000000
50
0.000000
0
INSERT
100
AcDbEntity
100
AcDbBlockReference
8
250
5
1C0
2
GRENZPUNKT
10
3399387.225000
20
5275394.600000
30
0.000000
41
0.100000
42
0.100000
43
1.000000
50
0.000000
0
INSERT
100
AcDbEntity
100
AcDbBlockReference
8
250
5
1C1
2
GRENZPUNKT
10
3399387.435000
20
5275399.945000
30
0.000000
41
0.100000
42
0.100000
43
1.000000
50
0.000000
0
INSERT
100
AcDbEntity
100
AcDbBlockReference
8
250
5
1C2
2
GRENZPUNKT
10
3399387.925000
20
5275385.815000
30
0.000000
41
0.100000
42
0.100000
43
1.000000
50
0.000000
0
INSERT
100
AcDbEntity
100
AcDbBlockReference
8
250
5
1C3
2
GRENZPUNKT
10
3399387.320000
20
5275386.100000
30
0.000000
41
0.100000
42
0.100000
43
1.000000
50
0.000000
0
INSERT
100
AcDbEntity
100
AcDbBlockReference
8
250
5
1C4
2
GRENZPUNKT
10
3399297.045000
20
5275424.410000
30
0.000000
41
0.100000
42
0.100000
43
1.000000
50
0.000000
0
INSERT
100
AcDbEntity
100
AcDbBlockReference
8
250
5
1C5
2
GRENZPUNKT
10
3399269.850000
20
5275424.375000
30
0.000000
41
0.100000
42
0.100000
43
1.000000
50
0.000000
0
INSERT
100
AcDbEntity
100
AcDbBlockReference
8
250
5
1C6
2
GRENZPUNKT
10
3399269.855000
20
5275424.765000
30
0.000000
41
0.100000
42
0.100000
43
1.000000
50
0.000000
0
INSERT
100
AcDbEntity
100
AcDbBlockReference
8
250
5
1C7
2
GRENZPUNKT
10
3399270.390000
20
5275424.775000
30
0.000000
41
0.100000
42
0.100000
43
1.000000
50
0.000000
0
INSERT
100
AcDbEntity
100
AcDbBlockReference
8
250
5
1C8
2
GRENZPUNKT
10
3399270.425000
20
5275441.270000
30
0.000000
41
0.100000
42
0.100000
43
1.000000
50
0.000000
0
INSERT
100
AcDbEntity
100
AcDbBlockReference
8
250
5
1C9
2
GRENZPUNKT
10
3399268.450000
20
5275441.305000
30
0.000000
41
0.100000
42
0.100000
43
1.000000
50
0.000000
0
INSERT
100
AcDbEntity
100
AcDbBlockReference
8
250
5
1CA
2
GRENZPUNKT
10
3399268.580000
20
5275450.085000
30
0.000000
41
0.100000
42
0.100000
43
1.000000
50
0.000000
0
INSERT
100
AcDbEntity
100
AcDbBlockReference
8
250
5
1CB
2
GRENZPUNKT
10
3399270.480000
20
5275450.075000
30
0.000000
41
0.100000
42
0.100000
43
1.000000
50
0.000000
0
INSERT
100
AcDbEntity
100
AcDbBlockReference
8
250
5
1CC
2
GRENZPUNKT
10
3399270.570000
20
5275467.230000
30
0.000000
41
0.100000
42
0.100000
43
1.000000
50
0.000000
0
INSERT
100
AcDbEntity
100
AcDbBlockReference
8
250
5
1CD
2
GRENZPUNKT
10
3399287.405000
20
5275467.200000
30
0.000000
41
0.100000
42
0.100000
43
1.000000
50
0.000000
0
INSERT
100
AcDbEntity
100
AcDbBlockReference
8
250
5
1CE
2
GRENZPUNKT
10
3399287.270000
20
5275445.920000
30
0.000000
41
0.100000
42
0.100000
43
1.000000
50
0.000000
0
INSERT
100
AcDbEntity
100
AcDbBlockReference
8
250
5
1CF
2
GRENZPUNKT
10
3399267.155000
20
5275467.230000
30
0.000000
41
0.100000
42
0.100000
43
1.000000
50
0.000000
0
INSERT
100
AcDbEntity
100
AcDbBlockReference
8
250
5
1D0
2
GRENZPUNKT
10
3399268.520000
20
5275445.750000
30
0.000000
41
0.100000
42
0.100000
43
1.000000
50
0.000000
0
INSERT
100
AcDbEntity
100
AcDbBlockReference
8
250
5
1D1
2
GRENZPUNKT
10
3399267.175000
20
5275468.905000
30
0.000000
41
0.100000
42
0.100000
43
1.000000
50
0.000000
0
INSERT
100
AcDbEntity
100
AcDbBlockReference
8
250
5
1D2
2
GRENZPUNKT
10
3399288.995000
20
5275468.890000
30
0.000000
41
0.100000
42
0.100000
43
1.000000
50
0.000000
0
INSERT
100
AcDbEntity
100
AcDbBlockReference
8
250
5
1D3
2
GRENZPUNKT
10
3399288.900000
20
5275445.925000
30
0.000000
41
0.100000
42
0.100000
43
1.000000
50
0.000000
0
INSERT
100
AcDbEntity
100
AcDbBlockReference
8
250
5
1D4
2
GRENZPUNKT
10
3399287.385000
20
5275424.390000
30
0.000000
41
0.100000
42
0.100000
43
1.000000
50
0.000000
0
INSERT
100
AcDbEntity
100
AcDbBlockReference
8
250
5
1D5
2
GRENZPUNKT
10
3399287.335000
20
5275422.725000
30
0.000000
41
0.100000
42
0.100000
43
1.000000
50
0.000000
0
INSERT
100
AcDbEntity
100
AcDbBlockReference
8
250
5
1D6
2
GRENZPUNKT
10
3399268.655000
20
5275422.670000
30
0.000000
41
0.100000
42
0.100000
43
1.000000
50
0.000000
0
INSERT
100
AcDbEntity
100
AcDbBlockReference
8
250
5
1D7
2
GRENZPUNKT
10
3399316.475000
20
5275445.915000
30
0.000000
41
0.100000
42
0.100000
43
1.000000
50
0.000000
0
INSERT
100
AcDbEntity
100
AcDbBlockReference
8
250
5
1D8
2
GRENZPUNKT
10
3399316.575000
20
5275424.500000
30
0.000000
41
0.100000
42
0.100000
43
1.000000
50
0.000000
0
INSERT
100
AcDbEntity
100
AcDbBlockReference
8
250
5
1D9
2
GRENZPUNKT
10
3399313.800000
20
5275424.505000
30
0.000000
41
0.100000
42
0.100000
43
1.000000
50
0.000000
0
INSERT
100
AcDbEntity
100
AcDbBlockReference
8
250
5
1DA
2
GRENZPUNKT
10
3399387.685000
20
5275400.360000
30
0.000000
41
0.100000
42
0.100000
43
1.000000
50
0.000000
0
INSERT
100
AcDbEntity
100
AcDbBlockReference
8
250
5
1DB
2
GRENZPUNKT
10
3399388.235000
20
5275400.660000
30
0.000000
41
0.100000
42
0.100000
43
1.000000
50
0.000000
0
INSERT
100
AcDbEntity
100
AcDbBlockReference
8
250
5
1DC
2
GRENZPUNKT
10
3399347.775000
20
5275452.095000
30
0.000000
41
0.100000
42
0.100000
43
1.000000
50
0.000000
0
INSERT
100
AcDbEntity
100
AcDbBlockReference
8
250
5
1DD
2
GRENZPUNKT
10
3399348.605000
20
5275457.390000
30
0.000000
41
0.100000
42
0.100000
43
1.000000
50
0.000000
0
INSERT
100
AcDbEntity
100
AcDbBlockReference
8
250
5
1DE
2
GRENZPUNKT
10
3399352.325000
20
5275451.550000
30
0.000000
41
0.100000
42
0.100000
43
1.000000
50
0.000000
0
INSERT
100
AcDbEntity
100
AcDbBlockReference
8
250
5
1DF
2
GRENZPUNKT
10
3399367.410000
20
5275455.285000
30
0.000000
41
0.100000
42
0.100000
43
1.000000
50
0.000000
0
INSERT
100
AcDbEntity
100
AcDbBlockReference
8
250
5
1E0
2
GRENZPUNKT
10
3399369.345000
20
5275454.195000
30
0.000000
41
0.100000
42
0.100000
43
1.000000
50
0.000000
0
INSERT
100
AcDbEntity
100
AcDbBlockReference
8
250
5
1E1
2
GRENZPUNKT
10
3399370.230000
20
5275456.000000
30
0.000000
41
0.100000
42
0.100000
43
1.000000
50
0.000000
0
INSERT
100
AcDbEntity
100
AcDbBlockReference
8
250
5
1E2
2
GRENZPUNKT
10
3399371.945000
20
5275456.610000
30
0.000000
41
0.100000
42
0.100000
43
1.000000
50
0.000000
0
INSERT
100
AcDbEntity
100
AcDbBlockReference
8
250
5
1E3
2
GRENZPUNKT
10
3399372.895000
20
5275459.215000
30
0.000000
41
0.100000
42
0.100000
43
1.000000
50
0.000000
0
INSERT
100
AcDbEntity
100
AcDbBlockReference
8
250
5
1E4
2
GRENZPUNKT
10
3399370.205000
20
5275460.460000
30
0.000000
41
0.100000
42
0.100000
43
1.000000
50
0.000000
0
INSERT
100
AcDbEntity
100
AcDbBlockReference
8
250
5
1E5
2
GRENZPUNKT
10
3399375.280000
20
5275464.980000
30
0.000000
41
0.100000
42
0.100000
43
1.000000
50
0.000000
0
INSERT
100
AcDbEntity
100
AcDbBlockReference
8
250
5
1E6
2
GRENZPUNKT
10
3399377.410000
20
5275470.155000
30
0.000000
41
0.100000
42
0.100000
43
1.000000
50
0.000000
0
INSERT
100
AcDbEntity
100
AcDbBlockReference
8
250
5
1E7
2
GRENZPUNKT
10
3399385.585000
20
5275466.635000
30
0.000000
41
0.100000
42
0.100000
43
1.000000
50
0.000000
0
INSERT
100
AcDbEntity
100
AcDbBlockReference
8
250
5
1E8
2
GRENZPUNKT
10
3399384.715000
20
5275464.705000
30
0.000000
41
0.100000
42
0.100000
43
1.000000
50
0.000000
0
INSERT
100
AcDbEntity
100
AcDbBlockReference
8
250
5
1E9
2
GRENZPUNKT
10
3399386.745000
20
5275463.875000
30
0.000000
41
0.100000
42
0.100000
43
1.000000
50
0.000000
0
INSERT
100
AcDbEntity
100
AcDbBlockReference
8
250
5
1EA
2
GRENZPUNKT
10
3399380.860000
20
5275449.715000
30
0.000000
41
0.100000
42
0.100000
43
1.000000
50
0.000000
0
INSERT
100
AcDbEntity
100
AcDbBlockReference
8
250
5
1EB
2
GRENZPUNKT
10
3399380.580000
20
5275449.775000
30
0.000000
41
0.100000
42
0.100000
43
1.000000
50
0.000000
0
INSERT
100
AcDbEntity
100
AcDbBlockReference
8
250
5
1EC
2
GRENZPUNKT
10
3399348.865000
20
5275451.965000
30
0.000000
41
0.100000
42
0.100000
43
1.000000
50
0.000000
0
INSERT
100
AcDbEntity
100
AcDbBlockReference
8
250
5
1ED
2
GRENZPUNKT
10
3399360.750000
20
5275450.525000
30
0.000000
41
0.100000
42
0.100000
43
1.000000
50
0.000000
0
INSERT
100
AcDbEntity
100
AcDbBlockReference
8
250
5
1EE
2
GRENZPUNKT
10
3399350.470000
20
5275443.205000
30
0.000000
41
0.100000
42
0.100000
43
1.000000
50
0.000000
0
INSERT
100
AcDbEntity
100
AcDbBlockReference
8
250
5
1EF
2
GRENZPUNKT
10
3399350.755000
20
5275447.535000
30
0.000000
41
0.100000
42
0.100000
43
1.000000
50
0.000000
0
INSERT
100
AcDbEntity
100
AcDbBlockReference
8
250
5
1F0
2
GRENZPUNKT
10
3399349.180000
20
5275447.685000
30
0.000000
41
0.100000
42
0.100000
43
1.000000
50
0.000000
0
INSERT
100
AcDbEntity
100
AcDbBlockReference
8
250
5
1F1
2
GRENZPUNKT
10
3399348.670000
20
5275448.260000
30
0.000000
41
0.100000
42
0.100000
43
1.000000
50
0.000000
0
INSERT
100
AcDbEntity
100
AcDbBlockReference
8
250
5
1F2
2
GRENZPUNKT
10
3399343.100000
20
5275452.650000
30
0.000000
41
0.100000
42
0.100000
43
1.000000
50
0.000000
0
INSERT
100
AcDbEntity
100
AcDbBlockReference
8
250
5
1F3
2
GRENZPUNKT
10
3399344.220000
20
5275458.205000
30
0.000000
41
0.100000
42
0.100000
43
1.000000
50
0.000000
0
INSERT
100
AcDbEntity
100
AcDbBlockReference
8
250
5
1F4
2
GRENZPUNKT
10
3399343.610000
20
5275459.095000
30
0.000000
41
0.100000
42
0.100000
43
1.000000
50
0.000000
0
INSERT
100
AcDbEntity
100
AcDbBlockReference
8
250
5
1F5
2
GRENZPUNKT
10
3399357.350000
20
5275466.335000
30
0.000000
41
0.100000
42
0.100000
43
1.000000
50
0.000000
0
INSERT
100
AcDbEntity
100
AcDbBlockReference
8
250
5
1F6
2
GRENZPUNKT
10
3399356.265000
20
5275456.755000
30
0.000000
41
0.100000
42
0.100000
43
1.000000
50
0.000000
0
INSERT
100
AcDbEntity
100
AcDbBlockReference
8
250
5
1F7
2
GRENZPUNKT
10
3399361.210000
20
5275469.685000
30
0.000000
41
0.100000
42
0.100000
43
1.000000
50
0.000000
0
INSERT
100
AcDbEntity
100
AcDbBlockReference
8
250
5
1F8
2
GRENZPUNKT
10
3399332.710000
20
5275423.960000
30
0.000000
41
0.100000
42
0.100000
43
1.000000
50
0.000000
0
INSERT
100
AcDbEntity
100
AcDbBlockReference
8
250
5
1F9
2
GRENZPUNKT
10
3399345.275000
20
5275423.705000
30
0.000000
41
0.100000
42
0.100000
43
1.000000
50
0.000000
0
INSERT
100
AcDbEntity
100
AcDbBlockReference
8
250
5
1FA
2
GRENZPUNKT
10
3399345.005000
20
5275422.100000
30
0.000000
41
0.100000
42
0.100000
43
1.000000
50
0.000000
0
INSERT
100
AcDbEntity
100
AcDbBlockReference
8
250
5
1FB
2
GRENZPUNKT
10
3399344.965000
20
5275418.710000
30
0.000000
41
0.100000
42
0.100000
43
1.000000
50
0.000000
0
INSERT
100
AcDbEntity
100
AcDbBlockReference
8
250
5
1FC
2
GRENZPUNKT
10
3399343.625000
20
5275418.930000
30
0.000000
41
0.100000
42
0.100000
43
1.000000
50
0.000000
0
INSERT
100
AcDbEntity
100
AcDbBlockReference
8
250
5
1FD
2
GRENZPUNKT
10
3399343.630000
20
5275415.845000
30
0.000000
41
0.100000
42
0.100000
43
1.000000
50
0.000000
0
INSERT
100
AcDbEntity
100
AcDbBlockReference
8
250
5
1FE
2
GRENZPUNKT
10
3399342.190000
20
5275433.875000
30
0.000000
41
0.100000
42
0.100000
43
1.000000
50
0.000000
0
INSERT
100
AcDbEntity
100
AcDbBlockReference
8
250
5
1FF
2
GRENZPUNKT
10
3399364.470000
20
5275430.535000
30
0.000000
41
0.100000
42
0.100000
43
1.000000
50
0.000000
0
INSERT
100
AcDbEntity
100
AcDbBlockReference
8
250
5
200
2
GRENZPUNKT
10
3399363.390000
20
5275426.905000
30
0.000000
41
0.100000
42
0.100000
43
1.000000
50
0.000000
0
INSERT
100
AcDbEntity
100
AcDbBlockReference
8
250
5
201
2
GRENZPUNKT
10
3399347.405000
20
5275429.605000
30
0.000000
41
0.100000
42
0.100000
43
1.000000
50
0.000000
0
INSERT
100
AcDbEntity
100
AcDbBlockReference
8
250
5
202
2
GRENZPUNKT
10
3399346.790000
20
5275430.095000
30
0.000000
41
0.100000
42
0.100000
43
1.000000
50
0.000000
0
INSERT
100
AcDbEntity
100
AcDbBlockReference
8
250
5
203
2
GRENZPUNKT
10
3399346.320000
20
5275430.125000
30
0.000000
41
0.100000
42
0.100000
43
1.000000
50
0.000000
0
INSERT
100
AcDbEntity
100
AcDbBlockReference
8
250
5
204
2
GRENZPUNKT
10
3399363.560000
20
5275441.765000
30
0.000000
41
0.100000
42
0.100000
43
1.000000
50
0.000000
0
INSERT
100
AcDbEntity
100
AcDbBlockReference
8
250
5
205
2
GRENZPUNKT
10
3399362.215000
20
5275438.455000
30
0.000000
41
0.100000
42
0.100000
43
1.000000
50
0.000000
0
INSERT
100
AcDbEntity
100
AcDbBlockReference
8
250
5
206
2
GRENZPUNKT
10
3399362.170000
20
5275437.395000
30
0.000000
41
0.100000
42
0.100000
43
1.000000
50
0.000000
0
INSERT
100
AcDbEntity
100
AcDbBlockReference
8
250
5
207
2
GRENZPUNKT
10
3399351.115000
20
5275438.440000
30
0.000000
41
0.100000
42
0.100000
43
1.000000
50
0.000000
0
INSERT
100
AcDbEntity
100
AcDbBlockReference
8
250
5
208
2
GRENZPUNKT
10
3399372.525000
20
5275428.625000
30
0.000000
41
0.100000
42
0.100000
43
1.000000
50
0.000000
0
INSERT
100
AcDbEntity
100
AcDbBlockReference
8
250
5
209
2
GRENZPUNKT
10
3399365.290000
20
5275432.490000
30
0.000000
41
0.100000
42
0.100000
43
1.000000
50
0.000000
0
INSERT
100
AcDbEntity
100
AcDbBlockReference
8
250
5
20A
2
GRENZPUNKT
10
3399363.905000
20
5275433.140000
30
0.000000
41
0.100000
42
0.100000
43
1.000000
50
0.000000
0
INSERT
100
AcDbEntity
100
AcDbBlockReference
8
250
5
20B
2
GRENZPUNKT
10
3399365.540000
20
5275437.015000
30
0.000000
41
0.100000
42
0.100000
43
1.000000
50
0.000000
0
INSERT
100
AcDbEntity
100
AcDbBlockReference
8
250
5
20C
2
GRENZPUNKT
10
3399376.735000
20
5275439.600000
30
0.000000
41
0.100000
42
0.100000
43
1.000000
50
0.000000
0
INSERT
100
AcDbEntity
100
AcDbBlockReference
8
250
5
20D
2
GRENZPUNKT
10
3399367.255000
20
5275411.970000
30
0.000000
41
0.100000
42
0.100000
43
1.000000
50
0.000000
0
INSERT
100
AcDbEntity
100
AcDbBlockReference
8
250
5
20E
2
GRENZPUNKT
10
3399359.505000
20
5275413.555000
30
0.000000
41
0.100000
42
0.100000
43
1.000000
50
0.000000
0
INSERT
100
AcDbEntity
100
AcDbBlockReference
8
250
5
20F
2
GRENZPUNKT
10
3399362.980000
20
5275430.890000
30
0.000000
41
0.100000
42
0.100000
43
1.000000
50
0.000000
0
INSERT
100
AcDbEntity
100
AcDbBlockReference
8
250
5
210
2
GRENZPUNKT
10
3399388.845000
20
5275468.970000
30
0.000000
41
0.100000
42
0.100000
43
1.000000
50
0.000000
0
INSERT
100
AcDbEntity
100
AcDbBlockReference
8
250
5
211
2
GRENZPUNKT
10
3399386.960000
20
5275469.750000
30
0.000000
41
0.100000
42
0.100000
43
1.000000
50
0.000000
0
INSERT
100
AcDbEntity
100
AcDbBlockReference
8
250
5
212
2
GRENZPUNKT
10
3399308.495000
20
5275461.220000
30
0.000000
41
0.100000
42
0.100000
43
1.000000
50
0.000000
0
INSERT
100
AcDbEntity
100
AcDbBlockReference
8
250
5
213
2
GRENZPUNKT
10
3399356.685000
20
5275413.680000
30
0.000000
41
0.100000
42
0.100000
43
1.000000
50
0.000000
0
INSERT
100
AcDbEntity
100
AcDbBlockReference
8
250
5
214
2
GRENZPUNKT
10
3399348.760000
20
5275414.995000
30
0.000000
41
0.100000
42
0.100000
43
1.000000
50
0.000000
0
INSERT
100
AcDbEntity
100
AcDbBlockReference
8
250
5
215
2
GRENZPUNKT
10
3399349.940000
20
5275420.955000
30
0.000000
41
0.100000
42
0.100000
43
1.000000
50
0.000000
0
INSERT
100
AcDbEntity
100
AcDbBlockReference
8
250
5
216
2
GRENZPUNKT
10
3399357.370000
20
5275419.835000
30
0.000000
41
0.100000
42
0.100000
43
1.000000
50
0.000000
0
INSERT
100
AcDbEntity
100
AcDbBlockReference
8
250
5
217
2
GRENZPUNKT
10
3399345.485000
20
5275415.540000
30
0.000000
41
0.100000
42
0.100000
43
1.000000
50
0.000000
0
INSERT
100
AcDbEntity
100
AcDbBlockReference
8
250
5
218
2
GRENZPUNKT
10
3399344.270000
20
5275407.635000
30
0.000000
41
0.100000
42
0.100000
43
1.000000
50
0.000000
0
INSERT
100
AcDbEntity
100
AcDbBlockReference
8
250
5
219
2
GRENZPUNKT
10
3399361.050000
20
5275450.485000
30
0.000000
41
0.100000
42
0.100000
43
1.000000
50
0.000000
0
INSERT
100
AcDbEntity
100
AcDbBlockReference
8
250
5
21A
2
GRENZPUNKT
10
3399361.505000
20
5275455.140000
30
0.000000
41
0.100000
42
0.100000
43
1.000000
50
0.000000
0
INSERT
100
AcDbEntity
100
AcDbBlockReference
8
250
5
21B
2
GRENZPUNKT
10
3399379.895000
20
5275469.100000
30
0.000000
41
0.100000
42
0.100000
43
1.000000
50
0.000000
0
INSERT
100
AcDbEntity
100
AcDbBlockReference
8
250
5
21C
2
GRENZPUNKT
10
3399379.035000
20
5275466.995000
30
0.000000
41
0.100000
42
0.100000
43
1.000000
50
0.000000
0
INSERT
100
AcDbEntity
100
AcDbBlockReference
8
250
5
21D
2
GRENZPUNKT
10
3399369.805000
20
5275459.720000
30
0.000000
41
0.100000
42
0.100000
43
1.000000
50
0.000000
0
INSERT
100
AcDbEntity
100
AcDbBlockReference
8
250
5
21E
2
GRENZPUNKT
10
3399365.085000
20
5275463.630000
30
0.000000
41
0.100000
42
0.100000
43
1.000000
50
0.000000
0
INSERT
100
AcDbEntity
100
AcDbBlockReference
8
250
5
21F
2
GRENZPUNKT
10
3399366.570000
20
5275465.640000
30
0.000000
41
0.100000
42
0.100000
43
1.000000
50
0.000000
0
INSERT
100
AcDbEntity
100
AcDbBlockReference
8
250
5
220
2
GRENZPUNKT
10
3399349.325000
20
5275417.860000
30
0.000000
41
0.100000
42
0.100000
43
1.000000
50
0.000000
0
INSERT
100
AcDbEntity
100
AcDbBlockReference
8
250
5
221
2
GRENZPUNKT
10
3399361.425000
20
5275427.240000
30
0.000000
41
0.100000
42
0.100000
43
1.000000
50
0.000000
0
INSERT
100
AcDbEntity
100
AcDbBlockReference
8
250
5
222
2
GRENZPUNKT
10
3399361.010000
20
5275424.785000
30
0.000000
41
0.100000
42
0.100000
43
1.000000
50
0.000000
0
INSERT
100
AcDbEntity
100
AcDbBlockReference
8
250
5
223
2
GRENZPUNKT
10
3399347.075000
20
5275427.030000
30
0.000000
41
0.100000
42
0.100000
43
1.000000
50
0.000000
0
INSERT
100
AcDbEntity
100
AcDbBlockReference
8
250
5
224
2
GRENZPUNKT
10
3399364.365000
20
5275441.635000
30
0.000000
41
0.100000
42
0.100000
43
1.000000
50
0.000000
0
INSERT
100
AcDbEntity
100
AcDbBlockReference
8
250
5
225
2
GRENZPUNKT
10
3399365.895000
20
5275449.905000
30
0.000000
41
0.100000
42
0.100000
43
1.000000
50
0.000000
0
INSERT
100
AcDbEntity
100
AcDbBlockReference
8
250
5
226
2
GRENZPUNKT
10
3399378.280000
20
5275443.160000
30
0.000000
41
0.100000
42
0.100000
43
1.000000
50
0.000000
0
INSERT
100
AcDbEntity
100
AcDbBlockReference
8
250
5
227
2
GRENZPUNKT
10
3399358.405000
20
5275419.705000
30
0.000000
41
0.100000
42
0.100000
43
1.000000
50
0.000000
0
INSERT
100
AcDbEntity
100
AcDbBlockReference
8
250
5
228
2
GRENZPUNKT
10
3399359.870000
20
5275417.625000
30
0.000000
41
0.100000
42
0.100000
43
1.000000
50
0.000000
0
INSERT
100
AcDbEntity
100
AcDbBlockReference
8
250
5
229
2
GRENZPUNKT
10
3399360.610000
20
5275417.430000
30
0.000000
41
0.100000
42
0.100000
43
1.000000
50
0.000000
0
INSERT
100
AcDbEntity
100
AcDbBlockReference
8
250
5
22A
2
GRENZPUNKT
10
3399359.395000
20
5275413.230000
30
0.000000
41
0.100000
42
0.100000
43
1.000000
50
0.000000
0
INSERT
100
AcDbEntity
100
AcDbBlockReference
8
250
5
22B
2
GRENZPUNKT
10
3399360.300000
20
5275413.390000
30
0.000000
41
0.100000
42
0.100000
43
1.000000
50
0.000000
0
INSERT
100
AcDbEntity
100
AcDbBlockReference
8
250
5
22C
2
GRENZPUNKT
10
3399366.130000
20
5275412.185000
30
0.000000
41
0.100000
42
0.100000
43
1.000000
50
0.000000
0
INSERT
100
AcDbEntity
100
AcDbBlockReference
8
250
5
22D
2
GRENZPUNKT
10
3399365.130000
20
5275406.430000
30
0.000000
41
0.100000
42
0.100000
43
1.000000
50
0.000000
0
INSERT
100
AcDbEntity
100
AcDbBlockReference
8
250
5
22E
2
GRENZPUNKT
10
3399359.330000
20
5275407.485000
30
0.000000
41
0.100000
42
0.100000
43
1.000000
50
0.000000
0
INSERT
100
AcDbEntity
100
AcDbBlockReference
8
MAUERTREPPEUSW
5
22F
2
GRENZPUNKT
10
3399315.605000
20
5275457.650000
30
291.330000
41
0.100000
42
0.100000
43
1.000000
50
75.780000
0
INSERT
100
AcDbEntity
100
AcDbBlockReference
8
MAUERTREPPEUSW
5
230
2
GRENZPUNKT
10
3399309.275000
20
5275459.830000
30
0.000000
41
0.100000
42
0.100000
43
1.000000
50
76.410000
0
INSERT
100
AcDbEntity
100
AcDbBlockReference
8
MAUERTREPPEUSW
5
231
2
GRENZPUNKT
10
3399314.660000
20
5275459.615000
30
292.414000
41
0.100000
42
0.100000
43
1.000000
50
75.780000
0
INSERT
100
AcDbEntity
100
AcDbBlockReference
8
MAUERTREPPEUSW
5
232
2
GRENZPUNKT
10
3399316.015000
20
5275459.270000
30
0.000000
41
0.100000
42
0.100000
43
1.000000
50
75.780000
0
INSERT
100
AcDbEntity
100
AcDbBlockReference
8
MAUERTREPPEUSW
5
233
2
GRENZPUNKT
10
3399314.250000
20
5275457.995000
30
0.000000
41
0.100000
42
0.100000
43
1.000000
50
75.780000
0
INSERT
100
AcDbEntity
100
AcDbBlockReference
8
MAUERTREPPEUSW
5
234
2
GRENZPUNKT
10
3399309.545000
20
5275460.945000
30
0.000000
41
0.100000
42
0.100000
43
1.000000
50
256.410000
0
INSERT
100
AcDbEntity
100
AcDbBlockReference
8
MAUERTREPPEUSW
5
235
2
GRENZPUNKT
10
3399311.045000
20
5275460.550000
30
0.000000
41
0.100000
42
0.100000
43
1.000000
50
256.410000
0
INSERT
100
AcDbEntity
100
AcDbBlockReference
8
MAUERTREPPEUSW
5
236
2
GRENZPUNKT
10
3399310.780000
20
5275459.465000
30
0.000000
41
0.100000
42
0.100000
43
1.000000
50
256.410000
0
ARC
100
AcDbEntity
100
AcDbCircle
8
UEBERDACHUNGOFFENEHALLE
5
237
10
3399387.920000
20
5275386.590000
30
0.000000
40
0.775000
50
179.262520
51
215.521920
62
3
0
ARC
100
AcDbEntity
100
AcDbCircle
8
UEBERDACHUNGOFFENEHALLE
5
238
10
3399388.395000
20
5275399.655000
30
0.000000
40
1.005000
50
138.251810
51
160.388280
62
3
0
ARC
100
AcDbEntity
100
AcDbCircle
8
UEBERDACHUNGOFFENEHALLE
5
239
10
3399387.920000
20
5275386.585000
30
0.000000
40
0.775000
50
222.655070
51
266.552460
62
3
0
LINE
100
AcDbEntity
100
AcDbLine
8
UEBERDACHUNGOFFENEHALLE
5
23A
10
3399266.960000
20
5275450.625000
30
0.000000
11
3399267.155000
21
5275467.180000
31
0.000000
62
3
0
LINE
100
AcDbEntity
100
AcDbLine
8
UEBERDACHUNGOFFENEHALLE
5
23B
10
3399266.935000
20
5275446.275000
30
0.000000
11
3399266.950000
21
5275449.625000
31
0.000000
62
3
0
LINE
100
AcDbEntity
100
AcDbLine
8
UEBERDACHUNGOFFENEHALLE
5
23C
10
3399270.560000
20
5275467.180000
30
0.000000
11
3399267.015000
21
5275446.265000
31
0.000000
62
3
0
LINE
100
AcDbEntity
100
AcDbLine
8
UEBERDACHUNGOFFENEHALLE
5
23D
10
3399269.900000
20
5275424.375000
30
0.000000
11
3399287.335000
21
5275424.390000
31
0.000000
62
3
0
LINE
100
AcDbEntity
100
AcDbLine
8
UEBERDACHUNGOFFENEHALLE
5
23E
10
3399287.285000
20
5275422.730000
30
0.000000
11
3399269.900000
21
5275424.370000
31
0.000000
62
3
0
LINE
100
AcDbEntity
100
AcDbLine
8
UEBERDACHUNGOFFENEHALLE
5
23F
10
3399270.385000
20
5275424.825000
30
0.000000
11
3399268.455000
21
5275441.255000
31
0.000000
62
3
0
LINE
100
AcDbEntity
100
AcDbLine
8
UEBERDACHUNGOFFENEHALLE
5
240
10
3399270.420000
20
5275441.220000
30
0.000000
11
3399268.660000
21
5275422.720000
31
0.000000
62
3
0
LINE
100
AcDbEntity
100
AcDbLine
8
UEBERDACHUNGOFFENEHALLE
5
241
10
3399268.655000
20
5275422.720000
30
0.000000
11
3399268.450000
21
5275441.255000
31
0.000000
62
3
0
LINE
100
AcDbEntity
100
AcDbLine
8
UEBERDACHUNGOFFENEHALLE
5
242
10
3399268.580000
20
5275450.035000
30
0.000000
11
3399268.520000
21
5275445.800000
31
0.000000
62
3
0
LINE
100
AcDbEntity
100
AcDbLine
8
UEBERDACHUNGOFFENEHALLE
5
243
10
3399270.470000
20
5275450.125000
30
0.000000
11
3399267.165000
21
5275467.180000
31
0.000000
62
3
0
LINE
100
AcDbEntity
100
AcDbLine
8
UEBERDACHUNGOFFENEHALLE
5
244
10
3399270.520000
20
5275467.230000
30
0.000000
11
3399267.205000
21
5275467.230000
31
0.000000
62
3
0
LINE
100
AcDbEntity
100
AcDbLine
8
UEBERDACHUNGOFFENEHALLE
5
245
10
3399287.410000
20
5275467.150000
30
0.000000
11
3399288.900000
21
5275445.975000
31
0.000000
62
3
0
LINE
100
AcDbEntity
100
AcDbLine
8
UEBERDACHUNGOFFENEHALLE
5
246
10
3399267.225000
20
5275468.900000
30
0.000000
11
3399287.355000
21
5275467.205000
31
0.000000
62
3
0
LINE
100
AcDbEntity
100
AcDbLine
8
UEBERDACHUNGOFFENEHALLE
5
247
10
3399287.275000
20
5275445.970000
30
0.000000
11
3399288.990000
21
5275468.840000
31
0.000000
62
3
0
LINE
100
AcDbEntity
100
AcDbLine
8
UEBERDACHUNGOFFENEHALLE
5
248
10
3399267.155000
20
5275467.280000
30
0.000000
11
3399267.175000
21
5275468.855000
31
0.000000
62
3
0
LINE
100
AcDbEntity
100
AcDbLine
8
UEBERDACHUNGOFFENEHALLE
5
249
10
3399288.945000
20
5275468.885000
30
0.000000
11
3399267.205000
21
5275467.235000
31
0.000000
62
3
0
LINE
100
AcDbEntity
100
AcDbLine
8
UEBERDACHUNGOFFENEHALLE
5
24A
10
3399267.225000
20
5275468.905000
30
0.000000
11
3399288.945000
21
5275468.890000
31
0.000000
62
3
0
LINE
100
AcDbEntity
100
AcDbLine
8
UEBERDACHUNGOFFENEHALLE
5
24B
10
3399288.995000
20
5275468.840000
30
0.000000
11
3399288.900000
21
5275445.975000
31
0.000000
62
3
0
LINE
100
AcDbEntity
100
AcDbLine
8
UEBERDACHUNGOFFENEHALLE
5
24C
10
3399287.385000
20
5275424.340000
30
0.000000
11
3399287.335000
21
5275422.775000
31
0.000000
62
3
0
LINE
100
AcDbEntity
100
AcDbLine
8
UEBERDACHUNGOFFENEHALLE
5
24D
10
3399268.705000
20
5275422.675000
30
0.000000
11
3399287.335000
21
5275424.385000
31
0.000000
62
3
0
LINE
100
AcDbEntity
100
AcDbLine
8
UEBERDACHUNGOFFENEHALLE
5
24E
10
3399287.285000
20
5275422.725000
30
0.000000
11
3399268.705000
21
5275422.670000
31
0.000000
62
3
0
ARC
100
AcDbEntity
100
AcDbCircle
8
UEBERDACHUNGOFFENEHALLE
5
24F
10
3399388.415000
20
5275399.670000
30
0.000000
40
1.005000
50
103.169520
51
133.766280
62
3
0
LINE
100
AcDbEntity
100
AcDbLine
8
UEBERDACHUNGOFFENEHALLE
5
250
10
3399364.420000
20
5275430.550000
30
0.000000
11
3399363.030000
21
5275430.875000
31
0.000000
62
3
0
LINE
100
AcDbEntity
100
AcDbLine
8
UEBERDACHUNGOFFENEHALLE
5
251
10
3399363.915000
20
5275433.090000
30
0.000000
11
3399364.455000
21
5275430.585000
31
0.000000
62
3
0
LINE
100
AcDbEntity
100
AcDbLine
8
UEBERDACHUNGOFFENEHALLE
5
252
10
3399365.250000
20
5275432.460000
30
0.000000
11
3399363.025000
21
5275430.915000
31
0.000000
62
3
0
LINE
100
AcDbEntity
100
AcDbLine
8
UEBERDACHUNGOFFENEHALLE
5
253
10
3399363.000000
20
5275430.935000
30
0.000000
11
3399363.885000
21
5275433.095000
31
0.000000
62
3
0
LINE
100
AcDbEntity
100
AcDbLine
8
MUSEUMSGEBAEUDE
5
254
10
3399320.180000
20
5275458.200000
30
0.000000
11
3399308.540000
21
5275461.205000
31
0.000000
62
3
0
LINE
100
AcDbEntity
100
AcDbLine
8
WOHNHAUS
5
255
10
3399333.775000
20
5275453.785000
30
0.000000
11
3399343.050000
21
5275452.655000
31
0.000000
62
3
0
LINE
100
AcDbEntity
100
AcDbLine
8
WOHNHAUS
5
256
10
3399333.230000
20
5275444.790000
30
0.000000
11
3399333.645000
21
5275453.675000
31
0.000000
62
3
0
LINE
100
AcDbEntity
100
AcDbLine
8
WOHNHAUS
5
257
10
3399333.665000
20
5275453.925000
30
0.000000
11
3399334.705000
21
5275461.660000
31
0.000000
62
3
0
LINE
100
AcDbEntity
100
AcDbLine
8
WOHNHAUS
5
258
10
3399333.350000
20
5275444.665000
30
0.000000
11
3399342.630000
21
5275444.355000
31
0.000000
62
3
0
LINE
100
AcDbEntity
100
AcDbLine
8
WOHNHAUS
5
259
10
3399332.890000
20
5275434.660000
30
0.000000
11
3399333.220000
21
5275444.540000
31
0.000000
62
3
0
LINE
100
AcDbEntity
100
AcDbLine
8
WOHNHAUS
5
25A
10
3399333.010000
20
5275434.525000
30
0.000000
11
3399346.715000
21
5275433.565000
31
0.000000
62
3
0
LINE
100
AcDbEntity
100
AcDbLine
8
WOHNHAUS
5
25B
10
3399332.710000
20
5275424.010000
30
0.000000
11
3399332.885000
21
5275434.410000
31
0.000000
62
3
0
LINE
100
AcDbEntity
100
AcDbLine
8
WOHNHAUS
5
25C
10
3399342.140000
20
5275433.880000
30
0.000000
11
3399333.010000
21
5275434.525000
31
0.000000
62
3
0
LINE
100
AcDbEntity
100
AcDbLine
8
WOHNHAUS
5
25D
10
3399332.600000
20
5275418.135000
30
0.000000
11
3399332.710000
21
5275423.910000
31
0.000000
62
3
0
LINE
100
AcDbEntity
100
AcDbLine
8
WOHNHAUS
5
25E
10
3399343.580000
20
5275415.855000
30
0.000000
11
3399333.730000
21
5275417.475000
31
0.000000
62
3
0
LINE
100
AcDbEntity
100
AcDbLine
8
WOHNHAUS
5
25F
10
3399347.785000
20
5275452.145000
30
0.000000
11
3399348.600000
21
5275457.340000
31
0.000000
62
3
0
LINE
100
AcDbEntity
100
AcDbLine
8
WOHNHAUS
5
260
10
3399352.275000
20
5275451.555000
30
0.000000
11
3399347.825000
21
5275452.090000
31
0.000000
62
3
0
LINE
100
AcDbEntity
100
AcDbLine
8
WOHNHAUS
5
261
10
3399348.655000
20
5275457.380000
30
0.000000
11
3399352.105000
21
5275456.735000
31
0.000000
62
3
0
LINE
100
AcDbEntity
100
AcDbLine
8
WOHNHAUS
5
262
10
3399352.570000
20
5275456.145000
30
0.000000
11
3399352.330000
21
5275451.600000
31
0.000000
62
3
0
LINE
100
AcDbEntity
100
AcDbLine
8
WOHNHAUS
5
263
10
3399356.430000
20
5275451.050000
30
0.000000
11
3399360.700000
21
5275450.530000
31
0.000000
62
3
0
LINE
100
AcDbEntity
100
AcDbLine
8
WOHNHAUS
5
264
10
3399348.915000
20
5275451.955000
30
0.000000
11
3399355.435000
21
5275451.170000
31
0.000000
62
3
0
LINE
100
AcDbEntity
100
AcDbLine
8
WOHNHAUS
5
265
10
3399343.645000
20
5275458.315000
30
0.000000
11
3399344.170000
21
5275458.215000
31
0.000000
62
3
0
LINE
100
AcDbEntity
100
AcDbLine
8
WOHNHAUS
5
266
10
3399343.775000
20
5275460.490000
30
0.000000
11
3399343.535000
21
5275458.460000
31
0.000000
62
3
0
LINE
100
AcDbEntity
100
AcDbLine
8
WOHNHAUS
5
267
10
3399343.805000
20
5275460.740000
30
0.000000
11
3399344.875000
21
5275468.490000
31
0.000000
62
3
0
LINE
100
AcDbEntity
100
AcDbLine
8
WOHNHAUS
5
268
10
3399343.615000
20
5275459.145000
30
0.000000
11
3399343.770000
21
5275460.490000
31
0.000000
62
3
0
LINE
100
AcDbEntity
100
AcDbLine
8
WOHNHAUS
5
269
10
3399343.665000
20
5275460.630000
30
0.000000
11
3399334.845000
21
5275461.765000
31
0.000000
62
3
0
LINE
100
AcDbEntity
100
AcDbLine
8
WOHNHAUS
5
26A
10
3399345.015000
20
5275468.590000
30
0.000000
11
3399357.300000
21
5275466.340000
31
0.000000
62
3
0
LINE
100
AcDbEntity
100
AcDbLine
8
WOHNHAUS
5
26B
10
3399335.925000
20
5275469.825000
30
0.000000
11
3399344.770000
21
5275468.630000
31
0.000000
62
3
0
LINE
100
AcDbEntity
100
AcDbLine
8
WOHNHAUS
5
26C
10
3399360.195000
20
5275442.300000
30
0.000000
11
3399363.515000
21
5275441.770000
31
0.000000
62
3
0
LINE
100
AcDbEntity
100
AcDbLine
8
WOHNHAUS
5
26D
10
3399351.625000
20
5275443.035000
30
0.000000
11
3399359.950000
21
5275442.330000
31
0.000000
62
3
0
LINE
100
AcDbEntity
100
AcDbLine
8
WOHNHAUS
5
26E
10
3399360.745000
20
5275450.475000
30
0.000000
11
3399360.085000
21
5275442.445000
31
0.000000
62
3
0
LINE
100
AcDbEntity
100
AcDbLine
8
WOHNHAUS
5
26F
10
3399351.115000
20
5275438.490000
30
0.000000
11
3399351.490000
21
5275442.925000
31
0.000000
62
3
0
LINE
100
AcDbEntity
100
AcDbLine
8
WOHNHAUS
5
270
10
3399351.375000
20
5275443.065000
30
0.000000
11
3399350.515000
21
5275443.195000
31
0.000000
62
3
0
LINE
100
AcDbEntity
100
AcDbLine
8
WOHNHAUS
5
271
10
3399342.750000
20
5275444.230000
30
0.000000
11
3399342.195000
21
5275433.925000
31
0.000000
62
3
0
LINE
100
AcDbEntity
100
AcDbLine
8
WOHNHAUS
5
272
10
3399343.100000
20
5275452.600000
30
0.000000
11
3399342.760000
21
5275444.480000
31
0.000000
62
3
0
LINE
100
AcDbEntity
100
AcDbLine
8
WOHNHAUS
5
273
10
3399348.675000
20
5275448.310000
30
0.000000
11
3399348.865000
21
5275451.915000
31
0.000000
62
3
0
LINE
100
AcDbEntity
100
AcDbLine
8
WOHNHAUS
5
274
10
3399350.470000
20
5275443.255000
30
0.000000
11
3399350.750000
21
5275447.485000
31
0.000000
62
3
0
LINE
100
AcDbEntity
100
AcDbLine
8
WOHNHAUS
5
275
10
3399350.705000
20
5275447.540000
30
0.000000
11
3399349.230000
21
5275447.680000
31
0.000000
62
3
0
LINE
100
AcDbEntity
100
AcDbLine
8
WOHNHAUS
5
276
10
3399349.145000
20
5275447.720000
30
0.000000
11
3399348.705000
21
5275448.225000
31
0.000000
62
3
0
LINE
100
AcDbEntity
100
AcDbLine
8
WOHNHAUS
5
277
10
3399344.210000
20
5275458.160000
30
0.000000
11
3399343.110000
21
5275452.700000
31
0.000000
62
3
0
LINE
100
AcDbEntity
100
AcDbLine
8
WOHNHAUS
5
278
10
3399356.220000
20
5275456.765000
30
0.000000
11
3399343.655000
21
5275459.090000
31
0.000000
62
3
0
LINE
100
AcDbEntity
100
AcDbLine
8
WOHNHAUS
5
279
10
3399357.345000
20
5275466.285000
30
0.000000
11
3399356.275000
21
5275456.805000
31
0.000000
62
3
0
LINE
100
AcDbEntity
100
AcDbLine
8
WOHNHAUS
5
27A
10
3399346.965000
20
5275433.540000
30
0.000000
11
3399357.535000
21
5275432.165000
31
0.000000
62
3
0
LINE
100
AcDbEntity
100
AcDbLine
8
WOHNHAUS
5
27B
10
3399357.780000
20
5275432.120000
30
0.000000
11
3399364.420000
21
5275430.550000
31
0.000000
62
3
0
LINE
100
AcDbEntity
100
AcDbLine
8
WOHNHAUS
5
27C
10
3399332.760000
20
5275423.960000
30
0.000000
11
3399345.225000
21
5275423.705000
31
0.000000
62
3
0
LINE
100
AcDbEntity
100
AcDbLine
8
WOHNHAUS
5
27D
10
3399345.265000
20
5275423.655000
30
0.000000
11
3399345.015000
21
5275422.150000
31
0.000000
62
3
0
LINE
100
AcDbEntity
100
AcDbLine
8
WOHNHAUS
5
27E
10
3399346.310000
20
5275430.075000
30
0.000000
11
3399345.280000
21
5275423.750000
31
0.000000
62
3
0
LINE
100
AcDbEntity
100
AcDbLine
8
WOHNHAUS
5
27F
10
3399345.005000
20
5275422.050000
30
0.000000
11
3399344.970000
21
5275418.760000
31
0.000000
62
3
0
LINE
100
AcDbEntity
100
AcDbLine
8
WOHNHAUS
5
280
10
3399364.485000
20
5275430.585000
30
0.000000
11
3399365.270000
21
5275432.440000
31
0.000000
62
3
0
LINE
100
AcDbEntity
100
AcDbLine
8
WOHNHAUS
5
281
10
3399372.475000
20
5275428.635000
30
0.000000
11
3399364.515000
21
5275430.525000
31
0.000000
62
3
0
LINE
100
AcDbEntity
100
AcDbLine
8
WOHNHAUS
5
282
10
3399359.520000
20
5275413.605000
30
0.000000
11
3399364.455000
21
5275430.490000
31
0.000000
62
3
0
LINE
100
AcDbEntity
100
AcDbLine
8
WOHNHAUS
5
283
10
3399364.455000
20
5275430.490000
30
0.000000
11
3399363.400000
21
5275426.955000
31
0.000000
62
3
0
LINE
100
AcDbEntity
100
AcDbLine
8
WOHNHAUS
5
284
10
3399363.340000
20
5275426.915000
30
0.000000
11
3399347.455000
21
5275429.595000
31
0.000000
62
3
0
LINE
100
AcDbEntity
100
AcDbLine
8
WOHNHAUS
5
285
10
3399347.365000
20
5275429.635000
30
0.000000
11
3399346.830000
21
5275430.060000
31
0.000000
62
3
0
LINE
100
AcDbEntity
100
AcDbLine
8
WOHNHAUS
5
286
10
3399346.740000
20
5275430.095000
30
0.000000
11
3399346.370000
21
5275430.120000
31
0.000000
62
3
0
LINE
100
AcDbEntity
100
AcDbLine
8
WOHNHAUS
5
287
10
3399363.610000
20
5275441.755000
30
0.000000
11
3399376.685000
21
5275439.605000
31
0.000000
62
3
0
LINE
100
AcDbEntity
100
AcDbLine
8
WOHNHAUS
5
288
10
3399362.235000
20
5275438.500000
30
0.000000
11
3399363.545000
21
5275441.720000
31
0.000000
62
3
0
LINE
100
AcDbEntity
100
AcDbLine
8
WOHNHAUS
5
289
10
3399365.495000
20
5275437.035000
30
0.000000
11
3399362.260000
21
5275438.435000
31
0.000000
62
3
0
LINE
100
AcDbEntity
100
AcDbLine
8
WOHNHAUS
5
28A
10
3399362.215000
20
5275438.405000
30
0.000000
11
3399362.170000
21
5275437.445000
31
0.000000
62
3
0
LINE
100
AcDbEntity
100
AcDbLine
8
WOHNHAUS
5
28B
10
3399362.120000
20
5275437.400000
30
0.000000
11
3399351.165000
21
5275438.435000
31
0.000000
62
3
0
LINE
100
AcDbEntity
100
AcDbLine
8
WOHNHAUS
5
28C
10
3399376.715000
20
5275439.550000
30
0.000000
11
3399372.540000
21
5275428.670000
31
0.000000
62
3
0
LINE
100
AcDbEntity
100
AcDbLine
8
WOHNHAUS
5
28D
10
3399372.510000
20
5275428.575000
30
0.000000
11
3399367.270000
21
5275412.015000
31
0.000000
62
3
0
LINE
100
AcDbEntity
100
AcDbLine
8
WOHNHAUS
5
28E
10
3399365.245000
20
5275432.510000
30
0.000000
11
3399363.950000
21
5275433.120000
31
0.000000
62
3
0
LINE
100
AcDbEntity
100
AcDbLine
8
WOHNHAUS
5
28F
10
3399363.925000
20
5275433.185000
30
0.000000
11
3399365.525000
21
5275436.970000
31
0.000000
62
3
0
LINE
100
AcDbEntity
100
AcDbLine
8
WOHNHAUS
5
290
10
3399367.205000
20
5275411.980000
30
0.000000
11
3399359.555000
21
5275413.545000
31
0.000000
62
3
0
LINE
100
AcDbEntity
100
AcDbLine
8
WOHNHAUS
5
291
10
3399334.735000
20
5275461.905000
30
0.000000
11
3399335.785000
21
5275469.715000
31
0.000000
62
3
0
LINE
100
AcDbEntity
100
AcDbLine
8
ALTERSHEIM
5
292
10
3399297.055000
20
5275394.680000
30
0.000000
11
3399297.045000
21
5275424.360000
31
0.000000
62
3
0
LINE
100
AcDbEntity
100
AcDbLine
8
ALTERSHEIM
5
293
10
3399313.830000
20
5275394.670000
30
0.000000
11
3399297.105000
21
5275394.630000
31
0.000000
62
3
0
LINE
100
AcDbEntity
100
AcDbLine
8
ALTERSHEIM
5
294
10
3399313.800000
20
5275424.455000
30
0.000000
11
3399313.880000
21
5275394.720000
31
0.000000
62
3
0
LINE
100
AcDbEntity
100
AcDbLine
8
ALTERSHEIM
5
295
10
3399289.075000
20
5275445.925000
30
0.000000
11
3399316.425000
21
5275445.915000
31
0.000000
62
3
0
LINE
100
AcDbEntity
100
AcDbLine
8
ALTERSHEIM
5
296
10
3399287.320000
20
5275445.920000
30
0.000000
11
3399288.075000
21
5275445.925000
31
0.000000
62
3
0
LINE
100
AcDbEntity
100
AcDbLine
8
ALTERSHEIM
5
297
10
3399296.995000
20
5275424.410000
30
0.000000
11
3399269.900000
21
5275424.375000
31
0.000000
62
3
0
LINE
100
AcDbEntity
100
AcDbLine
8
ALTERSHEIM
5
298
10
3399269.850000
20
5275424.425000
30
0.000000
11
3399269.855000
21
5275424.715000
31
0.000000
62
3
0
LINE
100
AcDbEntity
100
AcDbLine
8
ALTERSHEIM
5
299
10
3399269.905000
20
5275424.770000
30
0.000000
11
3399270.340000
21
5275424.775000
31
0.000000
62
3
0
LINE
100
AcDbEntity
100
AcDbLine
8
ALTERSHEIM
5
29A
10
3399270.390000
20
5275424.825000
30
0.000000
11
3399270.425000
21
5275441.220000
31
0.000000
62
3
0
LINE
100
AcDbEntity
100
AcDbLine
8
ALTERSHEIM
5
29B
10
3399270.375000
20
5275441.275000
30
0.000000
11
3399268.500000
21
5275441.305000
31
0.000000
62
3
0
LINE
100
AcDbEntity
100
AcDbLine
8
ALTERSHEIM
5
29C
10
3399268.450000
20
5275441.355000
30
0.000000
11
3399268.580000
21
5275450.035000
31
0.000000
62
3
0
LINE
100
AcDbEntity
100
AcDbLine
8
ALTERSHEIM
5
29D
10
3399268.630000
20
5275450.085000
30
0.000000
11
3399270.430000
21
5275450.075000
31
0.000000
62
3
0
LINE
100
AcDbEntity
100
AcDbLine
8
ALTERSHEIM
5
29E
10
3399270.480000
20
5275450.125000
30
0.000000
11
3399270.570000
21
5275467.180000
31
0.000000
62
3
0
LINE
100
AcDbEntity
100
AcDbLine
8
ALTERSHEIM
5
29F
10
3399270.620000
20
5275467.230000
30
0.000000
11
3399287.355000
21
5275467.200000
31
0.000000
62
3
0
LINE
100
AcDbEntity
100
AcDbLine
8
ALTERSHEIM
5
2A0
10
3399287.405000
20
5275467.150000
30
0.000000
11
3399287.270000
21
5275445.970000
31
0.000000
62
3
0
LINE
100
AcDbEntity
100
AcDbLine
8
ALTERSHEIM
5
2A1
10
3399316.475000
20
5275445.865000
30
0.000000
11
3399316.575000
21
5275424.550000
31
0.000000
62
3
0
LINE
100
AcDbEntity
100
AcDbLine
8
ALTERSHEIM
5
2A2
10
3399316.525000
20
5275424.500000
30
0.000000
11
3399313.850000
21
5275424.505000
31
0.000000
62
3
0
LINE
100
AcDbEntity
100
AcDbLine
8
ALTERSHEIM
5
2A3
10
3399367.950000
20
5275449.660000
30
0.000000
11
3399364.695000
21
5275450.055000
31
0.000000
62
3
0
LINE
100
AcDbEntity
100
AcDbLine
8
ALTERSHEIM
5
2A4
10
3399378.040000
20
5275443.420000
30
0.000000
11
3399368.865000
21
5275449.330000
31
0.000000
62
3
0
LINE
100
AcDbEntity
100
AcDbLine
8
ALTERSHEIM
5
2A5
10
3399364.630000
20
5275450.180000
30
0.000000
11
3399367.385000
21
5275455.240000
31
0.000000
62
3
0
LINE
100
AcDbEntity
100
AcDbLine
8
ALTERSHEIM
5
2A6
10
3399373.610000
20
5275465.650000
30
0.000000
11
3399375.235000
21
5275464.995000
31
0.000000
62
3
0
LINE
100
AcDbEntity
100
AcDbLine
8
ALTERSHEIM
5
2A7
10
3399370.230000
20
5275460.505000
30
0.000000
11
3399372.905000
21
5275465.395000
31
0.000000
62
3
0
LINE
100
AcDbEntity
100
AcDbLine
8
ALTERSHEIM
5
2A8
10
3399380.560000
20
5275449.730000
30
0.000000
11
3399378.100000
21
5275443.440000
31
0.000000
62
3
0
LINE
100
AcDbEntity
100
AcDbLine
8
ALTERSHEIM
5
2A9
10
3399367.450000
20
5275455.260000
30
0.000000
11
3399369.300000
21
5275454.220000
31
0.000000
62
3
0
ARC
100
AcDbEntity
100
AcDbCircle
8
ALTERSHEIM
5
2AA
10
3399371.775000
20
5275454.120000
30
0.000000
40
2.435000
50
130.730590
51
177.075810
62
3
0
ARC
100
AcDbEntity
100
AcDbCircle
8
ALTERSHEIM
5
2AB
10
3399371.845000
20
5275454.175000
30
0.000000
40
2.435000
50
88.743730
51
130.362480
62
3
0
LINE
100
AcDbEntity
100
AcDbLine
8
ALTERSHEIM
5
2AC
10
3399371.960000
20
5275456.655000
30
0.000000
11
3399372.880000
21
5275459.170000
31
0.000000
62
3
0
LINE
100
AcDbEntity
100
AcDbLine
8
ALTERSHEIM
5
2AD
10
3399372.850000
20
5275459.235000
30
0.000000
11
3399370.250000
21
5275460.440000
31
0.000000
62
3
0
LINE
100
AcDbEntity
100
AcDbLine
8
ALTERSHEIM
5
2AE
10
3399375.300000
20
5275465.025000
30
0.000000
11
3399377.390000
21
5275470.110000
31
0.000000
62
3
0
LINE
100
AcDbEntity
100
AcDbLine
8
ALTERSHEIM
5
2AF
10
3399377.455000
20
5275470.135000
30
0.000000
11
3399385.540000
21
5275466.655000
31
0.000000
62
3
0
LINE
100
AcDbEntity
100
AcDbLine
8
ALTERSHEIM
5
2B0
10
3399385.565000
20
5275466.590000
30
0.000000
11
3399384.735000
21
5275464.750000
31
0.000000
62
3
0
LINE
100
AcDbEntity
100
AcDbLine
8
ALTERSHEIM
5
2B1
10
3399386.940000
20
5275469.705000
30
0.000000
11
3399385.605000
21
5275466.680000
31
0.000000
62
3
0
LINE
100
AcDbEntity
100
AcDbLine
8
ALTERSHEIM
5
2B2
10
3399384.760000
20
5275464.685000
30
0.000000
11
3399386.695000
21
5275463.895000
31
0.000000
62
3
0
LINE
100
AcDbEntity
100
AcDbLine
8
ALTERSHEIM
5
2B3
10
3399386.725000
20
5275463.830000
30
0.000000
11
3399380.875000
21
5275449.760000
31
0.000000
62
3
0
LINE
100
AcDbEntity
100
AcDbLine
8
ALTERSHEIM
5
2B4
10
3399380.810000
20
5275449.725000
30
0.000000
11
3399380.630000
21
5275449.765000
31
0.000000
62
3
0
LINE
100
AcDbEntity
100
AcDbLine
8
ALTERSHEIM
5
2B5
10
3399388.800000
20
5275468.985000
30
0.000000
11
3399387.005000
21
5275469.730000
31
0.000000
62
3
0
LINE
100
AcDbEntity
100
AcDbLine
8
BUEROGEBAEUDE
5
2B6
10
3399387.145000
20
5275386.700000
30
0.000000
11
3399387.210000
21
5275391.950000
31
0.000000
62
3
0
ARC
100
AcDbEntity
100
AcDbCircle
8
BUEROGEBAEUDE
5
2B7
10
3399388.145000
20
5275391.960000
30
0.000000
40
0.935000
50
137.304880
51
174.574890
62
3
0
ARC
100
AcDbEntity
100
AcDbCircle
8
BUEROGEBAEUDE
5
2B8
10
3399388.140000
20
5275391.960000
30
0.000000
40
0.935000
50
89.781210
51
130.779810
62
3
0
LINE
100
AcDbEntity
100
AcDbLine
8
BUEROGEBAEUDE
5
2B9
10
3399388.195000
20
5275392.940000
30
0.000000
11
3399388.225000
21
5275393.770000
31
0.000000
62
3
0
ARC
100
AcDbEntity
100
AcDbCircle
8
BUEROGEBAEUDE
5
2BA
10
3399388.105000
20
5275394.700000
30
0.000000
40
0.890000
50
233.196630
51
274.639050
62
3
0
ARC
100
AcDbEntity
100
AcDbCircle
8
BUEROGEBAEUDE
5
2BB
10
3399388.110000
20
5275394.700000
30
0.000000
40
0.890000
50
189.890960
51
226.664910
62
3
0
LINE
100
AcDbEntity
100
AcDbLine
8
BUEROGEBAEUDE
5
2BC
10
3399387.230000
20
5275394.650000
30
0.000000
11
3399387.435000
21
5275399.895000
31
0.000000
62
3
0
LINE
100
AcDbEntity
100
AcDbLine
8
BETRIEBSGEBAEUDE
5
2BD
10
3399356.635000
20
5275413.690000
30
0.000000
11
3399348.810000
21
5275414.985000
31
0.000000
62
3
0
LINE
100
AcDbEntity
100
AcDbLine
8
BETRIEBSGEBAEUDE
5
2BE
10
3399357.365000
20
5275419.785000
30
0.000000
11
3399356.690000
21
5275413.730000
31
0.000000
62
3
0
LINE
100
AcDbEntity
100
AcDbLine
8
BETRIEBSGEBAEUDE
5
2BF
10
3399348.770000
20
5275415.045000
30
0.000000
11
3399349.930000
21
5275420.905000
31
0.000000
62
3
0
LINE
100
AcDbEntity
100
AcDbLine
8
BETRIEBSGEBAEUDE
5
2C0
10
3399349.990000
20
5275420.950000
30
0.000000
11
3399357.320000
21
5275419.840000
31
0.000000
62
3
0
LINE
100
AcDbEntity
100
AcDbLine
8
WOHNGESCHAEFTSHAUS
5
2C1
10
3399333.195000
20
5275409.940000
30
0.000000
11
3399333.235000
21
5275417.055000
31
0.000000
62
3
0
LINE
100
AcDbEntity
100
AcDbLine
8
WOHNGESCHAEFTSHAUS
5
2C2
10
3399344.225000
20
5275407.645000
30
0.000000
11
3399333.690000
21
5275409.360000
31
0.000000
62
3
0
LINE
100
AcDbEntity
100
AcDbLine
8
WOHNGESCHAEFTSHAUS
5
2C3
10
3399333.730000
20
5275417.475000
30
0.000000
11
3399345.435000
21
5275415.545000
31
0.000000
62
3
0
LINE
100
AcDbEntity
100
AcDbLine
8
WOHNGESCHAEFTSHAUS
5
2C4
10
3399345.480000
20
5275415.490000
30
0.000000
11
3399344.280000
21
5275407.685000
31
0.000000
62
3
0
LINE
100
AcDbEntity
100
AcDbLine
8
TIEFGARAGE
5
2C5
10
3399385.540000
20
5275466.655000
30
0.000000
11
3399379.940000
21
5275469.080000
31
0.000000
62
3
0
LINE
100
AcDbEntity
100
AcDbLine
8
TIEFGARAGE
5
2C6
10
3399386.940000
20
5275469.705000
30
0.000000
11
3399385.605000
21
5275466.680000
31
0.000000
62
3
0
LINE
100
AcDbEntity
100
AcDbLine
8
TIEFGARAGE
5
2C7
10
3399388.800000
20
5275468.985000
30
0.000000
11
3399387.005000
21
5275469.730000
31
0.000000
62
3
0
LINE
100
AcDbEntity
100
AcDbLine
8
TIEFGARAGE
5
2C8
10
3399379.875000
20
5275469.050000
30
0.000000
11
3399379.055000
21
5275467.045000
31
0.000000
62
3
0
LINE
100
AcDbEntity
100
AcDbLine
8
GARAGE
5
2C9
10
3399355.985000
20
5275451.605000
30
0.000000
11
3399356.395000
21
5275455.455000
31
0.000000
62
3
0
LINE
100
AcDbEntity
100
AcDbLine
8
GARAGE
5
2CA
10
3399361.000000
20
5275450.490000
30
0.000000
11
3399356.430000
21
5275451.050000
31
0.000000
62
3
0
LINE
100
AcDbEntity
100
AcDbLine
8
GARAGE
5
2CB
10
3399356.940000
20
5275455.870000
30
0.000000
11
3399361.455000
21
5275455.150000
31
0.000000
62
3
0
LINE
100
AcDbEntity
100
AcDbLine
8
GARAGE
5
2CC
10
3399361.500000
20
5275455.090000
30
0.000000
11
3399361.055000
21
5275450.535000
31
0.000000
62
3
0
LINE
100
AcDbEntity
100
AcDbLine
8
GARAGE
5
2CD
10
3399360.350000
20
5275413.380000
30
0.000000
11
3399366.080000
21
5275412.195000
31
0.000000
62
3
0
LINE
100
AcDbEntity
100
AcDbLine
8
GARAGE
5
2CE
10
3399359.335000
20
5275407.530000
30
0.000000
11
3399360.295000
21
5275413.340000
31
0.000000
62
3
0
LINE
100
AcDbEntity
100
AcDbLine
8
GARAGE
5
2CF
10
3399366.120000
20
5275412.135000
30
0.000000
11
3399365.140000
21
5275406.480000
31
0.000000
62
3
0
LINE
100
AcDbEntity
100
AcDbLine
8
GARAGE
5
2D0
10
3399365.080000
20
5275406.440000
30
0.000000
11
3399359.375000
21
5275407.475000
31
0.000000
62
3
0
LINE
100
AcDbEntity
100
AcDbLine
8
SCHUPPEN
5
2D1
10
3399368.865000
20
5275449.325000
30
0.000000
11
3399378.240000
21
5275443.185000
31
0.000000
62
3
0
LINE
100
AcDbEntity
100
AcDbLine
8
SCHUPPEN
5
2D2
10
3399365.945000
20
5275449.900000
30
0.000000
11
3399367.950000
21
5275449.660000
31
0.000000
62
3
0
LINE
100
AcDbEntity
100
AcDbLine
8
SCHUPPEN
5
2D3
10
3399372.905000
20
5275465.395000
30
0.000000
11
3399369.825000
21
5275459.765000
31
0.000000
62
3
0
LINE
100
AcDbEntity
100
AcDbLine
8
SCHUPPEN
5
2D4
10
3399366.530000
20
5275465.670000
30
0.000000
11
3399361.250000
21
5275469.655000
31
0.000000
62
3
0
LINE
100
AcDbEntity
100
AcDbLine
8
SCHUPPEN
5
2D5
10
3399345.015000
20
5275418.700000
30
0.000000
11
3399349.275000
21
5275417.870000
31
0.000000
62
3
0
LINE
100
AcDbEntity
100
AcDbLine
8
SCHUPPEN
5
2D6
10
3399343.675000
20
5275418.920000
30
0.000000
11
3399344.920000
21
5275418.715000
31
0.000000
62
3
0
LINE
100
AcDbEntity
100
AcDbLine
8
SCHUPPEN
5
2D7
10
3399343.630000
20
5275415.895000
30
0.000000
11
3399343.625000
21
5275418.880000
31
0.000000
62
3
0
LINE
100
AcDbEntity
100
AcDbLine
8
SCHUPPEN
5
2D8
10
3399348.715000
20
5275415.005000
30
0.000000
11
3399343.680000
21
5275415.835000
31
0.000000
62
3
0
LINE
100
AcDbEntity
100
AcDbLine
8
SCHUPPEN
5
2D9
10
3399347.455000
20
5275429.595000
30
0.000000
11
3399361.375000
21
5275427.245000
31
0.000000
62
3
0
LINE
100
AcDbEntity
100
AcDbLine
8
SCHUPPEN
5
2DA
10
3399347.080000
20
5275427.080000
30
0.000000
11
3399347.400000
21
5275429.555000
31
0.000000
62
3
0
LINE
100
AcDbEntity
100
AcDbLine
8
SCHUPPEN
5
2DB
10
3399376.685000
20
5275439.605000
30
0.000000
11
3399364.415000
21
5275441.625000
31
0.000000
62
3
0
LINE
100
AcDbEntity
100
AcDbLine
8
SCHUPPEN
5
2DC
10
3399378.260000
20
5275443.115000
30
0.000000
11
3399376.755000
21
5275439.645000
31
0.000000
62
3
0
LINE
100
AcDbEntity
100
AcDbLine
8
SCHUPPEN
5
2DD
10
3399359.490000
20
5275413.510000
30
0.000000
11
3399359.410000
21
5275413.275000
31
0.000000
62
3
0
LINE
100
AcDbEntity
100
AcDbLine
8
SCHUPPEN
5
2DE
10
3399360.595000
20
5275417.380000
30
0.000000
11
3399359.520000
21
5275413.605000
31
0.000000
62
3
0
LINE
100
AcDbEntity
100
AcDbLine
8
SCHUPPEN
5
2DF
10
3399359.345000
20
5275413.235000
30
0.000000
11
3399356.735000
21
5275413.670000
31
0.000000
62
3
0
LINE
100
AcDbEntity
100
AcDbLine
8
SCHUPPEN
5
2E0
10
3399349.315000
20
5275417.810000
30
0.000000
11
3399348.770000
21
5275415.045000
31
0.000000
62
3
0
LINE
100
AcDbEntity
100
AcDbLine
8
SCHUPPEN
5
2E1
10
3399357.420000
20
5275419.825000
30
0.000000
11
3399358.355000
21
5275419.710000
31
0.000000
62
3
0
LINE
100
AcDbEntity
100
AcDbLine
8
SCHUPPEN
5
2E2
10
3399369.765000
20
5275459.755000
30
0.000000
11
3399365.120000
21
5275463.595000
31
0.000000
62
3
0
LINE
100
AcDbEntity
100
AcDbLine
8
SCHUPPEN
5
2E3
10
3399365.115000
20
5275463.670000
30
0.000000
11
3399366.540000
21
5275465.600000
31
0.000000
62
3
0
LINE
100
AcDbEntity
100
AcDbLine
8
SCHUPPEN
5
2E4
10
3399361.415000
20
5275427.190000
30
0.000000
11
3399361.020000
21
5275424.835000
31
0.000000
62
3
0
LINE
100
AcDbEntity
100
AcDbLine
8
SCHUPPEN
5
2E5
10
3399360.960000
20
5275424.795000
30
0.000000
11
3399347.120000
21
5275427.025000
31
0.000000
62
3
0
LINE
100
AcDbEntity
100
AcDbLine
8
SCHUPPEN
5
2E6
10
3399364.375000
20
5275441.685000
30
0.000000
11
3399365.885000
21
5275449.860000
31
0.000000
62
3
0
LINE
100
AcDbEntity
100
AcDbLine
8
SCHUPPEN
5
2E7
10
3399358.435000
20
5275419.665000
30
0.000000
11
3399359.840000
21
5275417.665000
31
0.000000
62
3
0
LINE
100
AcDbEntity
100
AcDbLine
8
SCHUPPEN
5
2E8
10
3399359.915000
20
5275417.610000
30
0.000000
11
3399360.560000
21
5275417.440000
31
0.000000
62
3
0
LINE
100
AcDbEntity
100
AcDbLine
8
TREPPE
5
2E9
10
3399315.560000
20
5275457.665000
30
291.330000
11
3399314.295000
21
5275457.985000
31
291.330000
62
2
0
LINE
100
AcDbEntity
100
AcDbLine
8
TREPPE
5
2EA
10
3399315.290000
20
5275457.730000
30
0.000000
11
3399315.700000
21
5275459.350000
31
0.000000
62
1
0
LINE
100
AcDbEntity
100
AcDbLine
8
TREPPE
5
2EB
10
3399314.565000
20
5275457.915000
30
0.000000
11
3399314.975000
21
5275459.535000
31
0.000000
62
1
0
LINE
100
AcDbEntity
100
AcDbLine
8
TREPPE
5
2EC
10
3399316.005000
20
5275459.220000
30
0.000000
11
3399315.620000
21
5275457.700000
31
0.000000
62
2
0
LINE
100
AcDbEntity
100
AcDbLine
8
TREPPE
5
2ED
10
3399309.285000
20
5275459.880000
30
0.000000
11
3399309.530000
21
5275460.900000
31
0.000000
62
2
0
LINE
100
AcDbEntity
100
AcDbLine
8
TREPPE
5
2EE
10
3399310.745000
20
5275459.470000
30
0.000000
11
3399311.030000
21
5275460.555000
31
0.000000
62
1
0
LINE
100
AcDbEntity
100
AcDbLine
8
TREPPE
5
2EF
10
3399310.015000
20
5275459.650000
30
0.000000
11
3399310.305000
21
5275460.745000
31
0.000000
62
1
0
LINE
100
AcDbEntity
100
AcDbLine
8
TREPPE
5
2F0
10
3399309.285000
20
5275459.825000
30
0.000000
11
3399309.580000
21
5275460.940000
31
0.000000
62
1
0
LINE
100
AcDbEntity
100
AcDbLine
8
TREPPE
5
2F1
10
3399310.730000
20
5275459.475000
30
0.000000
11
3399309.320000
21
5275459.815000
31
0.000000
62
2
0
LINE
100
AcDbEntity
100
AcDbLine
8
TREPPE
5
2F2
10
3399314.705000
20
5275459.600000
30
292.414000
11
3399315.970000
21
5275459.280000
31
292.414000
62
2
0
LINE
100
AcDbEntity
100
AcDbLine
8
TREPPE
5
2F3
10
3399314.260000
20
5275458.045000
30
0.000000
11
3399314.645000
21
5275459.565000
31
0.000000
62
2
0
LINE
100
AcDbEntity
100
AcDbLine
8
TREPPE
5
2F4
10
3399309.590000
20
5275460.935000
30
0.000000
11
3399310.995000
21
5275460.565000
31
0.000000
62
2
0
LINE
100
AcDbEntity
100
AcDbLine
8
TREPPE
5
2F5
10
3399311.030000
20
5275460.505000
30
0.000000
11
3399310.790000
21
5275459.515000
31
0.000000
62
2
0
INSERT
100
AcDbEntity
100
AcDbBlockReference
8
PFLANZFLALLGEMEIN
5
2F6
2
GRENZPUNKT
10
3399279.175000
20
5275468.610000
30
292.710000
41
0.100000
42
0.100000
43
1.000000
50
0.000000
0
INSERT
100
AcDbEntity
100
AcDbBlockReference
8
PFLANZFLALLGEMEIN
5
2F7
2
GRENZPUNKT
10
3399313.750000
20
5275447.060000
30
291.557000
41
0.100000
42
0.100000
43
1.000000
50
0.000000
0
INSERT
100
AcDbEntity
100
AcDbBlockReference
8
FAHRBAHNRANDOK
5
2F8
2
KREISKL
10
3399295.615000
20
5275384.725000
30
290.584000
41
0.500000
42
0.500000
43
1.000000
50
247.680000
0
LINE
100
AcDbEntity
100
AcDbLine
8
FAHRBAHNRANDOK
5
2F9
10
3399295.850000
20
5275384.640000
30
0.000000
11
3399300.650000
21
5275382.965000
31
0.000000
62
72
0
LINE
100
AcDbEntity
100
AcDbLine
8
FAHRBAHNRANDOK
5
2FA
10
3399289.515000
20
5275387.625000
30
0.000000
11
3399295.390000
21
5275384.830000
31
0.000000
62
72
0
INSERT
100
AcDbEntity
100
AcDbBlockReference
8
FAHRBAHNRANDOK
5
2FB
2
KREISKL
10
3399298.605000
20
5275360.825000
30
290.692000
41
0.500000
42
0.500000
43
1.000000
50
40.590000
0
LINE
100
AcDbEntity
100
AcDbLine
8
FAHRBAHNRANDOK
5
2FC
10
3399298.435000
20
5275361.010000
30
0.000000
11
3399295.560000
21
5275364.135000
31
0.000000
62
72
0
LINE
100
AcDbEntity
100
AcDbLine
8
FAHRBAHNRANDOK
5
2FD
10
3399302.505000
20
5275355.940000
30
0.000000
11
3399298.760000
21
5275360.630000
31
0.000000
62
72
0
INSERT
100
AcDbEntity
100
AcDbBlockReference
8
FAHRBAHNRANDOK
5
2FE
2
KREISKL
10
3399295.390000
20
5275364.320000
30
290.730000
41
0.500000
42
0.500000
43
1.000000
50
43.560000
0
LINE
100
AcDbEntity
100
AcDbLine
8
FAHRBAHNRANDOK
5
2FF
10
3399295.215000
20
5275364.500000
30
0.000000
11
3399292.580000
21
5275367.195000
31
0.000000
62
72
0
INSERT
100
AcDbEntity
100
AcDbBlockReference
8
FAHRBAHNRANDOK
5
300
2
KREISKL
10
3399292.405000
20
5275367.375000
30
290.782000
41
0.500000
42
0.500000
43
1.000000
50
44.190000
0
LINE
100
AcDbEntity
100
AcDbLine
8
FAHRBAHNRANDOK
5
301
10
3399292.230000
20
5275367.555000
30
0.000000
11
3399291.920000
21
5275367.875000
31
0.000000
62
72
0
INSERT
100
AcDbEntity
100
AcDbBlockReference
8
FAHRBAHNRANDOK
5
302
2
KREISKL
10
3399291.745000
20
5275368.055000
30
290.665000
41
0.500000
42
0.500000
43
1.000000
50
45.000000
0
LINE
100
AcDbEntity
100
AcDbLine
8
FAHRBAHNRANDOK
5
303
10
3399291.570000
20
5275368.230000
30
290.665000
11
3399282.640000
21
5275376.895000
31
290.665000
62
72
0
INSERT
100
AcDbEntity
100
AcDbBlockReference
8
FAHRBAHNRANDOK
5
304
2
KREISKL
10
3399282.460000
20
5275377.070000
30
290.732000
41
0.500000
42
0.500000
43
1.000000
50
45.540000
0
LINE
100
AcDbEntity
100
AcDbLine
8
FAHRBAHNRANDOK
5
305
10
3399282.280000
20
5275377.245000
30
290.732000
11
3399276.535000
21
5275382.975000
31
290.732000
62
72
0
INSERT
100
AcDbEntity
100
AcDbBlockReference
8
FAHRBAHNRANDOK
5
306
2
KREISKL
10
3399276.360000
20
5275383.150000
30
290.828000
41
0.500000
42
0.500000
43
1.000000
50
44.010000
0
LINE
100
AcDbEntity
100
AcDbLine
8
FAHRBAHNRANDOK
5
307
10
3399276.190000
20
5275383.335000
30
290.828000
11
3399271.645000
21
5275388.240000
31
290.828000
62
72
0
INSERT
100
AcDbEntity
100
AcDbBlockReference
8
FAHRBAHNRANDOK
5
308
2
KREISKL
10
3399271.475000
20
5275388.420000
30
290.948000
41
0.500000
42
0.500000
43
1.000000
50
26.820000
0
LINE
100
AcDbEntity
100
AcDbLine
8
FAHRBAHNRANDOK
5
309
10
3399271.260000
20
5275388.555000
30
290.948000
11
3399268.000000
21
5275390.595000
31
290.948000
62
72
0
INSERT
100
AcDbEntity
100
AcDbBlockReference
8
FAHRBAHNRANDOK
5
30A
2
KREISKL
10
3399278.760000
20
5275395.685000
30
290.822000
41
0.500000
42
0.500000
43
1.000000
50
223.830000
0
LINE
100
AcDbEntity
100
AcDbLine
8
FAHRBAHNRANDOK
5
30B
10
3399278.945000
20
5275395.520000
30
0.000000
11
3399283.195000
21
5275391.700000
31
0.000000
62
72
0
LINE
100
AcDbEntity
100
AcDbLine
8
FAHRBAHNRANDOK
5
30C
10
3399273.640000
20
5275401.900000
30
0.000000
11
3399278.600000
21
5275395.880000
31
0.000000
62
72
0
INSERT
100
AcDbEntity
100
AcDbBlockReference
8
FAHRBAHNRANDOK
5
30D
2
KREISKL
10
3399283.380000
20
5275391.530000
30
290.717000
41
0.500000
42
0.500000
43
1.000000
50
232.650000
0
LINE
100
AcDbEntity
100
AcDbLine
8
FAHRBAHNRANDOK
5
30E
10
3399283.590000
20
5275391.395000
30
0.000000
11
3399289.080000
21
5275387.865000
31
0.000000
62
72
0
INSERT
100
AcDbEntity
100
AcDbBlockReference
8
FAHRBAHNRANDOK
5
30F
2
KREISKL
10
3399289.290000
20
5275387.730000
30
290.631000
41
0.500000
42
0.500000
43
1.000000
50
240.930000
0
INSERT
100
AcDbEntity
100
AcDbBlockReference
8
FAHRBAHNRANDOK
5
310
2
KREISKL
10
3399297.605000
20
5275376.010000
30
290.796000
41
0.500000
42
0.500000
43
1.000000
50
72.720000
0
LINE
100
AcDbEntity
100
AcDbLine
8
FAHRBAHNRANDOK
5
311
10
3399297.370000
20
5275376.095000
30
290.796000
11
3399294.300000
21
5275377.190000
31
290.796000
62
72
0
LINE
100
AcDbEntity
100
AcDbLine
8
FAHRBAHNRANDOK
5
312
10
3399302.015000
20
5275374.835000
30
0.000000
11
3399297.850000
21
5275375.945000
31
0.000000
62
72
0
INSERT
100
AcDbEntity
100
AcDbBlockReference
8
FAHRBAHNRANDOK
5
313
2
KREISKL
10
3399294.065000
20
5275377.275000
30
290.820000
41
0.500000
42
0.500000
43
1.000000
50
69.480000
0
LINE
100
AcDbEntity
100
AcDbLine
8
FAHRBAHNRANDOK
5
314
10
3399293.830000
20
5275377.365000
30
290.820000
11
3399291.800000
21
5275378.165000
31
290.820000
62
72
0
INSERT
100
AcDbEntity
100
AcDbBlockReference
8
FAHRBAHNRANDOK
5
315
2
KREISKL
10
3399291.565000
20
5275378.255000
30
290.838000
41
0.500000
42
0.500000
43
1.000000
50
81.360000
0
ARC
100
AcDbEntity
100
AcDbCircle
8
FAHRBAHNRANDOK
5
316
10
3399291.470000
20
5275375.730000
30
290.838000
40
2.530000
50
93.482820
51
94.620810
62
72
0
INSERT
100
AcDbEntity
100
AcDbBlockReference
8
FAHRBAHNRANDOK
5
317
2
KREISKL
10
3399291.015000
20
5275378.220000
30
290.855000
41
0.500000
42
0.500000
43
1.000000
50
116.640000
0
ARC
100
AcDbEntity
100
AcDbCircle
8
FAHRBAHNRANDOK
5
318
10
3399291.095000
20
5275377.795000
30
290.855000
40
0.430000
50
134.184690
51
144.605890
62
72
0
INSERT
100
AcDbEntity
100
AcDbBlockReference
8
FAHRBAHNRANDOK
5
319
2
KREISKL
10
3399290.665000
20
5275377.810000
30
290.868000
41
0.500000
42
0.500000
43
1.000000
50
170.640000
0
ARC
100
AcDbEntity
100
AcDbCircle
8
FAHRBAHNRANDOK
5
31A
10
3399291.405000
20
5275377.785000
30
290.868000
40
0.740000
50
197.581590
51
206.289720
62
72
0
INSERT
100
AcDbEntity
100
AcDbBlockReference
8
FAHRBAHNRANDOK
5
31B
2
KREISKL
10
3399290.890000
20
5275377.255000
30
290.873000
41
0.500000
42
0.500000
43
1.000000
50
213.930000
0
LINE
100
AcDbEntity
100
AcDbLine
8
FAHRBAHNRANDOK
5
31C
10
3399291.065000
20
5275377.080000
30
290.873000
11
3399294.385000
21
5275373.860000
31
290.873000
62
72
0
INSERT
100
AcDbEntity
100
AcDbBlockReference
8
FAHRBAHNRANDOK
5
31D
2
KREISKL
10
3399294.560000
20
5275373.685000
30
290.863000
41
0.500000
42
0.500000
43
1.000000
50
225.720000
0
LINE
100
AcDbEntity
100
AcDbLine
8
FAHRBAHNRANDOK
5
31E
10
3399294.740000
20
5275373.510000
30
290.863000
11
3399297.845000
21
5275370.455000
31
290.863000
62
72
0
INSERT
100
AcDbEntity
100
AcDbBlockReference
8
FAHRBAHNRANDOK
5
31F
2
KREISKL
10
3399298.025000
20
5275370.280000
30
290.861000
41
0.500000
42
0.500000
43
1.000000
50
224.550000
0
LINE
100
AcDbEntity
100
AcDbLine
8
FAHRBAHNRANDOK
5
320
10
3399298.195000
20
5275370.095000
30
290.861000
11
3399301.630000
21
5275366.480000
31
290.861000
62
72
0
INSERT
100
AcDbEntity
100
AcDbBlockReference
8
FAHRBAHNRANDOK
5
321
2
KREISKL
10
3399280.100000
20
5275397.445000
30
290.915000
41
0.500000
42
0.500000
43
1.000000
50
0.000000
0
INSERT
100
AcDbEntity
100
AcDbBlockReference
8
FAHRBAHNRANDOK
5
322
2
KREISKL
10
3399282.800000
20
5275395.035000
30
290.858000
41
0.500000
42
0.500000
43
1.000000
50
0.000000
0
INSERT
100
AcDbEntity
100
AcDbBlockReference
8
FAHRBAHNRANDOK
5
323
2
KREISKL
10
3399285.805000
20
5275392.615000
30
290.803000
41
0.500000
42
0.500000
43
1.000000
50
0.000000
0
INSERT
100
AcDbEntity
100
AcDbBlockReference
8
FAHRBAHNRANDOK
5
324
2
KREISKL
10
3399288.560000
20
5275390.750000
30
290.765000
41
0.500000
42
0.500000
43
1.000000
50
0.000000
0
INSERT
100
AcDbEntity
100
AcDbBlockReference
8
FAHRBAHNRANDOK
5
325
2
KREISKL
10
3399292.185000
20
5275388.700000
30
290.708000
41
0.500000
42
0.500000
43
1.000000
50
0.000000
0
INSERT
100
AcDbEntity
100
AcDbBlockReference
8
FAHRBAHNRANDOK
5
326
2
KREISKL
10
3399294.820000
20
5275387.460000
30
290.716000
41
0.500000
42
0.500000
43
1.000000
50
0.000000
0
INSERT
100
AcDbEntity
100
AcDbBlockReference
8
FAHRBAHNRANDOK
5
327
2
KREISKL
10
3399298.715000
20
5275385.980000
30
290.682000
41
0.500000
42
0.500000
43
1.000000
50
0.000000
0
INSERT
100
AcDbEntity
100
AcDbBlockReference
8
FAHRBAHNRANDOK
5
328
2
KREISKL
10
3399299.550000
20
5275355.920000
30
290.757000
41
0.500000
42
0.500000
43
1.000000
50
0.000000
0
INSERT
100
AcDbEntity
100
AcDbBlockReference
8
FAHRBAHNRANDOK
5
329
2
KREISKL
10
3399295.915000
20
5275360.260000
30
290.802000
41
0.500000
42
0.500000
43
1.000000
50
0.000000
0
INSERT
100
AcDbEntity
100
AcDbBlockReference
8
FAHRBAHNRANDOK
5
32A
2
KREISKL
10
3399292.730000
20
5275363.675000
30
290.846000
41
0.500000
42
0.500000
43
1.000000
50
0.000000
0
INSERT
100
AcDbEntity
100
AcDbBlockReference
8
FAHRBAHNRANDOK
5
32B
2
KREISKL
10
3399290.630000
20
5275365.760000
30
290.880000
41
0.500000
42
0.500000
43
1.000000
50
0.000000
0
INSERT
100
AcDbEntity
100
AcDbBlockReference
8
FAHRBAHNRANDOK
5
32C
2
KREISKL
10
3399289.275000
20
5275366.920000
30
290.901000
41
0.500000
42
0.500000
43
1.000000
50
0.000000
0
INSERT
100
AcDbEntity
100
AcDbBlockReference
8
FAHRBAHNRANDOK
5
32D
2
KREISKL
10
3399287.180000
20
5275368.295000
30
290.935000
41
0.500000
42
0.500000
43
1.000000
50
0.000000
0
INSERT
100
AcDbEntity
100
AcDbBlockReference
8
FAHRBAHNRANDOK
5
32E
2
KREISKL
10
3399282.525000
20
5275371.330000
30
290.999000
41
0.500000
42
0.500000
43
1.000000
50
0.000000
0
INSERT
100
AcDbEntity
100
AcDbBlockReference
8
FAHRBAHNRANDOK
5
32F
2
KREISKL
10
3399278.825000
20
5275373.820000
30
291.076000
41
0.500000
42
0.500000
43
1.000000
50
0.000000
0
INSERT
100
AcDbEntity
100
AcDbBlockReference
8
FAHRBAHNRANDOK
5
330
2
KREISKL
10
3399277.265000
20
5275375.255000
30
291.105000
41
0.500000
42
0.500000
43
1.000000
50
0.000000
0
INSERT
100
AcDbEntity
100
AcDbBlockReference
8
FAHRBAHNRANDOK
5
331
2
KREISKL
10
3399272.815000
20
5275379.830000
30
291.152000
41
0.500000
42
0.500000
43
1.000000
50
0.000000
0
INSERT
100
AcDbEntity
100
AcDbBlockReference
8
FAHRBAHNRANDOK
5
332
2
KREISKL
10
3399268.545000
20
5275384.260000
30
291.234000
41
0.500000
42
0.500000
43
1.000000
50
0.000000
0
INSERT
100
AcDbEntity
100
AcDbBlockReference
8
FAHRBAHNRANDOK
5
333
2
KREISKL
10
3399266.125000
20
5275386.420000
30
291.249000
41
0.500000
42
0.500000
43
1.000000
50
0.000000
0
INSERT
100
AcDbEntity
100
AcDbBlockReference
8
FAHRBAHNRANDOK
5
334
2
KREISKL
10
3399262.505000
20
5275388.810000
30
291.188000
41
0.500000
42
0.500000
43
1.000000
50
0.000000
0
INSERT
100
AcDbEntity
100
AcDbBlockReference
8
FAHRBAHNRANDOK
5
335
2
KREISKL
10
3399259.420000
20
5275391.020000
30
290.868000
41
0.500000
42
0.500000
43
1.000000
50
0.000000
0
LINE
100
AcDbEntity
100
AcDbLine
8
FAHRBAHNRANDOK
5
336
10
3399261.300000
20
5275391.550000
30
0.000000
11
3399259.665000
21
5275391.090000
31
0.000000
62
72
0
LINE
100
AcDbEntity
100
AcDbLine
8
FAHRBAHNRANDOK
5
337
10
3399259.190000
20
5275390.930000
30
0.000000
11
3399258.035000
21
5275390.480000
31
0.000000
62
72
0
INSERT
100
AcDbEntity
100
AcDbBlockReference
8
FAHRBAHNRANDOK
5
338
2
KREISKL
10
3399267.790000
20
5275390.730000
30
291.014000
41
0.500000
42
0.500000
43
1.000000
50
0.000000
0
LINE
100
AcDbEntity
100
AcDbLine
8
FAHRBAHNRANDOK
5
339
10
3399267.550000
20
5275390.800000
30
291.014000
11
3399264.950000
21
5275391.560000
31
291.014000
62
72
0
INSERT
100
AcDbEntity
100
AcDbBlockReference
8
FAHRBAHNRANDOK
5
33A
2
KREISKL
10
3399264.710000
20
5275391.635000
30
291.018000
41
0.500000
42
0.500000
43
1.000000
50
0.000000
0
LINE
100
AcDbEntity
100
AcDbLine
8
FAHRBAHNRANDOK
5
33B
10
3399264.460000
20
5275391.630000
30
291.018000
11
3399261.790000
21
5275391.620000
31
291.018000
62
72
0
INSERT
100
AcDbEntity
100
AcDbBlockReference
8
FAHRBAHNRANDOK
5
33C
2
KREISKL
10
3399261.540000
20
5275391.620000
30
290.941000
41
0.500000
42
0.500000
43
1.000000
50
0.000000
0
INSERT
100
AcDbEntity
100
AcDbBlockReference
8
FAHRBAHNRANDOK
5
33D
2
KREISKL
10
3399254.930000
20
5275399.365000
30
291.122000
41
0.500000
42
0.500000
43
1.000000
50
0.000000
0
LINE
100
AcDbEntity
100
AcDbLine
8
FAHRBAHNRANDOK
5
33E
10
3399255.030000
20
5275399.595000
30
291.122000
11
3399255.235000
21
5275400.075000
31
291.122000
62
72
0
INSERT
100
AcDbEntity
100
AcDbBlockReference
8
FAHRBAHNRANDOK
5
33F
2
KREISKL
10
3399255.040000
20
5275388.750000
30
290.584000
41
0.500000
42
0.500000
43
1.000000
50
0.000000
0
LINE
100
AcDbEntity
100
AcDbLine
8
FAHRBAHNRANDOK
5
340
10
3399256.735000
20
5275389.805000
30
290.584000
11
3399255.250000
21
5275388.880000
31
290.584000
62
72
0
INSERT
100
AcDbEntity
100
AcDbBlockReference
8
FAHRBAHNRANDOK
5
341
2
KREISKL
10
3399256.945000
20
5275389.935000
30
290.773000
41
0.500000
42
0.500000
43
1.000000
50
0.000000
0
LINE
100
AcDbEntity
100
AcDbLine
8
FAHRBAHNRANDOK
5
342
10
3399257.580000
20
5275390.275000
30
290.773000
11
3399257.170000
21
5275390.055000
31
290.773000
62
72
0
INSERT
100
AcDbEntity
100
AcDbBlockReference
8
FAHRBAHNRANDOK
5
343
2
KREISKL
10
3399257.800000
20
5275390.390000
30
290.759000
41
0.500000
42
0.500000
43
1.000000
50
0.000000
0
INSERT
100
AcDbEntity
100
AcDbBlockReference
8
FAHRBAHNRANDOK
5
344
2
KREISKL
10
3399261.225000
20
5275398.615000
30
291.281000
41
0.500000
42
0.500000
43
1.000000
50
0.000000
0
LINE
100
AcDbEntity
100
AcDbLine
8
FAHRBAHNRANDOK
5
345
10
3399261.215000
20
5275398.865000
30
291.281000
11
3399261.080000
21
5275402.415000
31
291.281000
62
72
0
INSERT
100
AcDbEntity
100
AcDbBlockReference
8
FAHRBAHNRANDOK
5
346
2
KREISKL
10
3399264.230000
20
5275398.860000
30
291.292000
41
0.500000
42
0.500000
43
1.000000
50
0.000000
0
LINE
100
AcDbEntity
100
AcDbLine
8
FAHRBAHNRANDOK
5
347
10
3399262.295000
20
5275402.695000
30
291.292000
11
3399264.120000
21
5275399.085000
31
291.292000
62
72
0
INSERT
100
AcDbEntity
100
AcDbBlockReference
8
FAHRBAHNRANDOK
5
348
2
KREISKL
10
3399264.280000
20
5275398.415000
30
291.282000
41
0.500000
42
0.500000
43
1.000000
50
0.000000
0
LINE
100
AcDbEntity
100
AcDbLine
8
FAHRBAHNRANDOK
5
349
10
3399264.070000
20
5275398.280000
30
291.282000
11
3399263.965000
21
5275398.215000
31
291.282000
62
72
0
INSERT
100
AcDbEntity
100
AcDbBlockReference
8
FAHRBAHNRANDOK
5
34A
2
KREISKL
10
3399263.755000
20
5275398.080000
30
291.288000
41
0.500000
42
0.500000
43
1.000000
50
0.000000
0
LINE
100
AcDbEntity
100
AcDbLine
8
FAHRBAHNRANDOK
5
34B
10
3399263.505000
20
5275398.080000
30
291.288000
11
3399262.020000
21
5275398.090000
31
291.288000
62
72
0
INSERT
100
AcDbEntity
100
AcDbBlockReference
8
FAHRBAHNRANDOK
5
34C
2
KREISKL
10
3399261.770000
20
5275398.090000
30
291.285000
41
0.500000
42
0.500000
43
1.000000
50
0.000000
0
INSERT
100
AcDbEntity
100
AcDbBlockReference
8
FAHRBAHNRANDOK
5
34D
2
KREISKL
10
3399261.385000
20
5275398.255000
30
291.280000
41
0.500000
42
0.500000
43
1.000000
50
0.000000
0
INSERT
100
AcDbEntity
100
AcDbBlockReference
8
FAHRBAHNRANDOK
5
34E
2
KREISKL
10
3399388.270000
20
5275378.195000
30
292.057000
41
0.500000
42
0.500000
43
1.000000
50
0.000000
0
INSERT
100
AcDbEntity
100
AcDbBlockReference
8
FAHRBAHNRANDOK
5
34F
2
KREISKL
10
3399380.555000
20
5275392.415000
30
292.367000
41
0.500000
42
0.500000
43
1.000000
50
0.000000
0
LINE
100
AcDbEntity
100
AcDbLine
8
FAHRBAHNRANDOK
5
350
10
3399380.550000
20
5275392.165000
30
292.367000
11
3399380.445000
21
5275388.850000
31
292.367000
62
72
0
INSERT
100
AcDbEntity
100
AcDbBlockReference
8
FAHRBAHNRANDOK
5
351
2
KREISKL
10
3399380.440000
20
5275388.600000
30
292.232000
41
0.500000
42
0.500000
43
1.000000
50
0.000000
0
LINE
100
AcDbEntity
100
AcDbLine
8
FAHRBAHNRANDOK
5
352
10
3399380.435000
20
5275388.350000
30
292.232000
11
3399380.370000
21
5275384.820000
31
292.232000
62
72
0
LINE
100
AcDbEntity
100
AcDbLine
8
FAHRBAHNRANDOK
5
353
10
3399380.595000
20
5275388.405000
30
0.000000
11
3399384.010000
21
5275384.175000
31
0.000000
62
72
0
INSERT
100
AcDbEntity
100
AcDbBlockReference
8
FAHRBAHNRANDOK
5
354
2
KREISKL
10
3399380.370000
20
5275384.570000
30
292.083000
41
0.500000
42
0.500000
43
1.000000
50
0.000000
0
LINE
100
AcDbEntity
100
AcDbLine
8
FAHRBAHNRANDOK
5
355
10
3399380.390000
20
5275384.325000
30
292.083000
11
3399380.485000
21
5275383.070000
31
292.083000
62
72
0
INSERT
100
AcDbEntity
100
AcDbBlockReference
8
FAHRBAHNRANDOK
5
356
2
KREISKL
10
3399380.505000
20
5275382.820000
30
292.033000
41
0.500000
42
0.500000
43
1.000000
50
0.000000
0
LINE
100
AcDbEntity
100
AcDbLine
8
FAHRBAHNRANDOK
5
357
10
3399380.600000
20
5275382.585000
30
292.033000
11
3399380.925000
21
5275381.785000
31
292.033000
62
72
0
INSERT
100
AcDbEntity
100
AcDbBlockReference
8
FAHRBAHNRANDOK
5
358
2
KREISKL
10
3399381.020000
20
5275381.555000
30
292.007000
41
0.500000
42
0.500000
43
1.000000
50
0.000000
0
LINE
100
AcDbEntity
100
AcDbLine
8
FAHRBAHNRANDOK
5
359
10
3399381.165000
20
5275381.350000
30
292.007000
11
3399381.255000
21
5275381.230000
31
292.007000
62
72
0
INSERT
100
AcDbEntity
100
AcDbBlockReference
8
FAHRBAHNRANDOK
5
35A
2
KREISKL
10
3399381.400000
20
5275381.025000
30
292.093000
41
0.500000
42
0.500000
43
1.000000
50
0.000000
0
LINE
100
AcDbEntity
100
AcDbLine
8
FAHRBAHNRANDOK
5
35B
10
3399381.580000
20
5275380.855000
30
292.093000
11
3399382.480000
21
5275379.980000
31
292.093000
62
72
0
INSERT
100
AcDbEntity
100
AcDbBlockReference
8
FAHRBAHNRANDOK
5
35C
2
KREISKL
10
3399382.660000
20
5275379.805000
30
292.070000
41
0.500000
42
0.500000
43
1.000000
50
0.000000
0
LINE
100
AcDbEntity
100
AcDbLine
8
FAHRBAHNRANDOK
5
35D
10
3399382.880000
20
5275379.685000
30
292.070000
11
3399384.355000
21
5275378.870000
31
292.070000
62
72
0
INSERT
100
AcDbEntity
100
AcDbBlockReference
8
FAHRBAHNRANDOK
5
35E
2
KREISKL
10
3399384.575000
20
5275378.750000
30
292.047000
41
0.500000
42
0.500000
43
1.000000
50
0.000000
0
LINE
100
AcDbEntity
100
AcDbLine
8
FAHRBAHNRANDOK
5
35F
10
3399384.825000
20
5275378.710000
30
292.047000
11
3399387.995000
21
5275378.215000
31
292.047000
62
72
0
INSERT
100
AcDbEntity
100
AcDbBlockReference
8
FAHRBAHNRANDOK
5
360
2
KREISKL
10
3399388.240000
20
5275378.175000
30
291.956000
41
0.500000
42
0.500000
43
1.000000
50
0.000000
0
INSERT
100
AcDbEntity
100
AcDbBlockReference
8
FAHRBAHNRANDOK
5
361
2
KREISKL
10
3399348.805000
20
5275367.065000
30
291.003000
41
0.500000
42
0.500000
43
1.000000
50
0.000000
0
LINE
100
AcDbEntity
100
AcDbLine
8
FAHRBAHNRANDOK
5
362
10
3399354.845000
20
5275369.240000
30
291.003000
11
3399349.040000
21
5275367.150000
31
291.003000
62
72
0
LINE
100
AcDbEntity
100
AcDbLine
8
FAHRBAHNRANDOK
5
363
10
3399348.580000
20
5275366.955000
30
0.000000
11
3399348.155000
21
5275366.750000
31
0.000000
62
72
0
INSERT
100
AcDbEntity
100
AcDbBlockReference
8
FAHRBAHNRANDOK
5
364
2
KREISKL
10
3399345.485000
20
5275379.435000
30
291.039000
41
0.500000
42
0.500000
43
1.000000
50
0.000000
0
LINE
100
AcDbEntity
100
AcDbLine
8
FAHRBAHNRANDOK
5
365
10
3399345.735000
20
5275379.425000
30
291.039000
11
3399363.260000
21
5275378.825000
31
291.039000
62
72
0
LINE
100
AcDbEntity
100
AcDbLine
8
FAHRBAHNRANDOK
5
366
10
3399336.480000
20
5275379.740000
30
0.000000
11
3399345.235000
21
5275379.445000
31
0.000000
62
72
0
INSERT
100
AcDbEntity
100
AcDbBlockReference
8
FAHRBAHNRANDOK
5
367
2
KREISKL
10
3399363.510000
20
5275378.820000
30
291.513000
41
0.500000
42
0.500000
43
1.000000
50
0.000000
0
INSERT
100
AcDbEntity
100
AcDbBlockReference
8
FAHRBAHNRANDOK
5
368
2
KREISKL
10
3399363.950000
20
5275378.785000
30
291.411000
41
0.500000
42
0.500000
43
1.000000
50
0.000000
0
LINE
100
AcDbEntity
100
AcDbLine
8
FAHRBAHNRANDOK
5
369
10
3399364.200000
20
5275378.800000
30
291.411000
11
3399365.065000
21
5275378.855000
31
291.411000
62
72
0
INSERT
100
AcDbEntity
100
AcDbBlockReference
8
FAHRBAHNRANDOK
5
36A
2
KREISKL
10
3399365.315000
20
5275378.870000
30
291.565000
41
0.500000
42
0.500000
43
1.000000
50
0.000000
0
LINE
100
AcDbEntity
100
AcDbLine
8
FAHRBAHNRANDOK
5
36B
10
3399365.565000
20
5275378.905000
30
291.565000
11
3399366.275000
21
5275379.005000
31
291.565000
62
72
0
INSERT
100
AcDbEntity
100
AcDbBlockReference
8
FAHRBAHNRANDOK
5
36C
2
KREISKL
10
3399366.520000
20
5275379.045000
30
291.611000
41
0.500000
42
0.500000
43
1.000000
50
0.000000
0
ARC
100
AcDbEntity
100
AcDbCircle
8
FAHRBAHNRANDOK
5
36D
10
3399366.870000
20
5275379.235000
30
291.611000
40
0.400000
50
134.841240
51
172.340670
62
72
0
INSERT
100
AcDbEntity
100
AcDbBlockReference
8
FAHRBAHNRANDOK
5
36E
2
KREISKL
10
3399377.025000
20
5275378.405000
30
291.729000
41
0.500000
42
0.500000
43
1.000000
50
0.000000
0
INSERT
100
AcDbEntity
100
AcDbBlockReference
8
FAHRBAHNRANDOK
5
36F
2
KREISKL
10
3399392.865000
20
5275370.245000
30
292.155000
41
0.500000
42
0.500000
43
1.000000
50
0.000000
0
LINE
100
AcDbEntity
100
AcDbLine
8
FAHRBAHNRANDOK
5
370
10
3399392.645000
20
5275370.135000
30
292.155000
11
3399391.935000
21
5275369.785000
31
292.155000
62
72
0
INSERT
100
AcDbEntity
100
AcDbBlockReference
8
FAHRBAHNRANDOK
5
371
2
KREISKL
10
3399392.725000
20
5275370.350000
30
292.081000
41
0.500000
42
0.500000
43
1.000000
50
0.000000
0
LINE
100
AcDbEntity
100
AcDbLine
8
FAHRBAHNRANDOK
5
372
10
3399392.475000
20
5275370.375000
30
292.081000
11
3399390.425000
21
5275370.595000
31
292.081000
62
72
0
INSERT
100
AcDbEntity
100
AcDbBlockReference
8
FAHRBAHNRANDOK
5
373
2
KREISKL
10
3399390.175000
20
5275370.620000
30
292.022000
41
0.500000
42
0.500000
43
1.000000
50
0.000000
0
LINE
100
AcDbEntity
100
AcDbLine
8
FAHRBAHNRANDOK
5
374
10
3399389.925000
20
5275370.630000
30
292.022000
11
3399384.990000
21
5275370.765000
31
292.022000
62
72
0
INSERT
100
AcDbEntity
100
AcDbBlockReference
8
FAHRBAHNRANDOK
5
375
2
KREISKL
10
3399384.740000
20
5275370.770000
30
291.897000
41
0.500000
42
0.500000
43
1.000000
50
0.000000
0
LINE
100
AcDbEntity
100
AcDbLine
8
FAHRBAHNRANDOK
5
376
10
3399384.490000
20
5275370.775000
30
291.897000
11
3399383.970000
21
5275370.780000
31
291.897000
62
72
0
INSERT
100
AcDbEntity
100
AcDbBlockReference
8
FAHRBAHNRANDOK
5
377
2
KREISKL
10
3399383.720000
20
5275370.785000
30
291.944000
41
0.500000
42
0.500000
43
1.000000
50
0.000000
0
LINE
100
AcDbEntity
100
AcDbLine
8
FAHRBAHNRANDOK
5
378
10
3399383.470000
20
5275370.790000
30
291.944000
11
3399374.350000
21
5275371.020000
31
291.944000
62
72
0
INSERT
100
AcDbEntity
100
AcDbBlockReference
8
FAHRBAHNRANDOK
5
379
2
KREISKL
10
3399374.100000
20
5275371.025000
30
291.702000
41
0.500000
42
0.500000
43
1.000000
50
0.000000
0
LINE
100
AcDbEntity
100
AcDbLine
8
FAHRBAHNRANDOK
5
37A
10
3399373.850000
20
5275371.020000
30
291.702000
11
3399367.760000
21
5275370.985000
31
291.702000
62
72
0
INSERT
100
AcDbEntity
100
AcDbBlockReference
8
FAHRBAHNRANDOK
5
37B
2
KREISKL
10
3399367.510000
20
5275370.985000
30
291.533000
41
0.500000
42
0.500000
43
1.000000
50
0.000000
0
LINE
100
AcDbEntity
100
AcDbLine
8
FAHRBAHNRANDOK
5
37C
10
3399367.260000
20
5275370.965000
30
291.533000
11
3399361.785000
21
5275370.520000
31
291.533000
62
72
0
INSERT
100
AcDbEntity
100
AcDbBlockReference
8
FAHRBAHNRANDOK
5
37D
2
KREISKL
10
3399361.540000
20
5275370.500000
30
291.393000
41
0.500000
42
0.500000
43
1.000000
50
0.000000
0
LINE
100
AcDbEntity
100
AcDbLine
8
FAHRBAHNRANDOK
5
37E
10
3399361.290000
20
5275370.455000
30
291.393000
11
3399355.325000
21
5275369.370000
31
291.393000
62
72
0
INSERT
100
AcDbEntity
100
AcDbBlockReference
8
FAHRBAHNRANDOK
5
37F
2
KREISKL
10
3399355.080000
20
5275369.325000
30
291.232000
41
0.500000
42
0.500000
43
1.000000
50
0.000000
0
INSERT
100
AcDbEntity
100
AcDbBlockReference
8
FAHRBAHNRANDOK
5
380
2
KREISKL
10
3399384.165000
20
5275383.980000
30
292.075000
41
0.500000
42
0.500000
43
1.000000
50
0.000000
0
INSERT
100
AcDbEntity
100
AcDbBlockReference
8
FAHRBAHNRANDOK
5
381
2
KREISKL
10
3399391.710000
20
5275369.675000
30
292.192000
41
0.500000
42
0.500000
43
1.000000
50
0.000000
0
LINE
100
AcDbEntity
100
AcDbLine
8
FAHRBAHNRANDOK
5
382
10
3399391.555000
20
5275369.480000
30
292.192000
11
3399390.965000
21
5275368.710000
31
292.192000
62
72
0
INSERT
100
AcDbEntity
100
AcDbBlockReference
8
FAHRBAHNRANDOK
5
383
2
KREISKL
10
3399390.815000
20
5275368.515000
30
292.233000
41
0.500000
42
0.500000
43
1.000000
50
0.000000
0
INSERT
100
AcDbEntity
100
AcDbBlockReference
8
FAHRBAHNRANDOK
5
384
2
KREISKL
10
3399330.110000
20
5275385.560000
30
290.739000
41
0.500000
42
0.500000
43
1.000000
50
0.000000
0
LINE
100
AcDbEntity
100
AcDbLine
8
FAHRBAHNRANDOK
5
385
10
3399330.235000
20
5275387.285000
30
0.000000
11
3399330.130000
21
5275385.810000
31
0.000000
62
72
0
LINE
100
AcDbEntity
100
AcDbLine
8
FAHRBAHNRANDOK
5
386
10
3399330.135000
20
5275385.310000
30
0.000000
11
3399330.160000
21
5275384.970000
31
0.000000
62
72
0
INSERT
100
AcDbEntity
100
AcDbBlockReference
8
FAHRBAHNRANDOK
5
387
2
KREISKL
10
3399330.185000
20
5275384.725000
30
290.744000
41
0.500000
42
0.500000
43
1.000000
50
0.000000
0
INSERT
100
AcDbEntity
100
AcDbBlockReference
8
FAHRBAHNRANDOK
5
388
2
KREISKL
10
3399330.465000
20
5275383.515000
30
290.830000
41
0.500000
42
0.500000
43
1.000000
50
0.000000
0
LINE
100
AcDbEntity
100
AcDbLine
8
FAHRBAHNRANDOK
5
389
10
3399330.580000
20
5275383.295000
30
290.830000
11
3399331.045000
21
5275382.415000
31
290.830000
62
72
0
LINE
100
AcDbEntity
100
AcDbLine
8
FAHRBAHNRANDOK
5
38A
10
3399330.280000
20
5275384.295000
30
0.000000
11
3399330.405000
21
5275383.755000
31
0.000000
62
72
0
INSERT
100
AcDbEntity
100
AcDbBlockReference
8
FAHRBAHNRANDOK
5
38B
2
KREISKL
10
3399331.160000
20
5275382.195000
30
290.848000
41
0.500000
42
0.500000
43
1.000000
50
0.000000
0
LINE
100
AcDbEntity
100
AcDbLine
8
FAHRBAHNRANDOK
5
38C
10
3399331.330000
20
5275382.010000
30
290.848000
11
3399331.885000
21
5275381.430000
31
290.848000
62
72
0
INSERT
100
AcDbEntity
100
AcDbBlockReference
8
FAHRBAHNRANDOK
5
38D
2
KREISKL
10
3399332.055000
20
5275381.250000
30
290.862000
41
0.500000
42
0.500000
43
1.000000
50
0.000000
0
LINE
100
AcDbEntity
100
AcDbLine
8
FAHRBAHNRANDOK
5
38E
10
3399332.260000
20
5275381.100000
30
290.862000
11
3399332.585000
21
5275380.865000
31
290.862000
62
72
0
INSERT
100
AcDbEntity
100
AcDbBlockReference
8
FAHRBAHNRANDOK
5
38F
2
KREISKL
10
3399332.790000
20
5275380.720000
30
290.792000
41
0.500000
42
0.500000
43
1.000000
50
0.000000
0
LINE
100
AcDbEntity
100
AcDbLine
8
FAHRBAHNRANDOK
5
390
10
3399333.015000
20
5275380.615000
30
290.792000
11
3399333.840000
21
5275380.225000
31
290.792000
62
72
0
INSERT
100
AcDbEntity
100
AcDbBlockReference
8
FAHRBAHNRANDOK
5
391
2
KREISKL
10
3399334.065000
20
5275380.120000
30
290.819000
41
0.500000
42
0.500000
43
1.000000
50
0.000000
0
LINE
100
AcDbEntity
100
AcDbLine
8
FAHRBAHNRANDOK
5
392
10
3399334.315000
20
5275380.075000
30
290.819000
11
3399335.985000
21
5275379.790000
31
290.819000
62
72
0
INSERT
100
AcDbEntity
100
AcDbBlockReference
8
FAHRBAHNRANDOK
5
393
2
KREISKL
10
3399336.230000
20
5275379.745000
30
290.841000
41
0.500000
42
0.500000
43
1.000000
50
0.000000
0
INSERT
100
AcDbEntity
100
AcDbBlockReference
8
FAHRBAHNRANDOK
5
394
2
KREISKL
10
3399366.815000
20
5275379.635000
30
291.628000
41
0.500000
42
0.500000
43
1.000000
50
0.000000
0
ARC
100
AcDbEntity
100
AcDbCircle
8
FAHRBAHNRANDOK
5
395
10
3399366.950000
20
5275379.260000
30
291.628000
40
0.400000
50
32.612490
51
73.436710
62
72
0
INSERT
100
AcDbEntity
100
AcDbBlockReference
8
FAHRBAHNRANDOK
5
396
2
KREISKL
10
3399367.350000
20
5275379.230000
30
291.648000
41
0.500000
42
0.500000
43
1.000000
50
0.000000
0
LINE
100
AcDbEntity
100
AcDbLine
8
FAHRBAHNRANDOK
5
397
10
3399369.075000
20
5275379.770000
30
291.648000
11
3399367.590000
21
5275379.305000
31
291.648000
62
72
0
INSERT
100
AcDbEntity
100
AcDbBlockReference
8
FAHRBAHNRANDOK
5
398
2
KREISKL
10
3399369.315000
20
5275379.840000
30
291.726000
41
0.500000
42
0.500000
43
1.000000
50
0.000000
0
LINE
100
AcDbEntity
100
AcDbLine
8
FAHRBAHNRANDOK
5
399
10
3399371.235000
20
5275380.900000
30
291.726000
11
3399369.535000
21
5275379.965000
31
291.726000
62
72
0
INSERT
100
AcDbEntity
100
AcDbBlockReference
8
FAHRBAHNRANDOK
5
39A
2
KREISKL
10
3399371.455000
20
5275381.020000
30
291.846000
41
0.500000
42
0.500000
43
1.000000
50
0.000000
0
LINE
100
AcDbEntity
100
AcDbLine
8
FAHRBAHNRANDOK
5
39B
10
3399371.845000
20
5275381.330000
30
291.846000
11
3399371.650000
21
5275381.175000
31
291.846000
62
72
0
INSERT
100
AcDbEntity
100
AcDbBlockReference
8
FAHRBAHNRANDOK
5
39C
2
KREISKL
10
3399372.040000
20
5275381.490000
30
291.807000
41
0.500000
42
0.500000
43
1.000000
50
0.000000
0
LINE
100
AcDbEntity
100
AcDbLine
8
FAHRBAHNRANDOK
5
39D
10
3399372.960000
20
5275382.355000
30
291.807000
11
3399372.220000
21
5275381.660000
31
291.807000
62
72
0
INSERT
100
AcDbEntity
100
AcDbBlockReference
8
FAHRBAHNRANDOK
5
39E
2
KREISKL
10
3399373.145000
20
5275382.525000
30
291.874000
41
0.500000
42
0.500000
43
1.000000
50
0.000000
0
LINE
100
AcDbEntity
100
AcDbLine
8
FAHRBAHNRANDOK
5
39F
10
3399373.920000
20
5275383.750000
30
291.874000
11
3399373.275000
21
5275382.735000
31
291.874000
62
72
0
INSERT
100
AcDbEntity
100
AcDbBlockReference
8
FAHRBAHNRANDOK
5
3A0
2
KREISKL
10
3399374.055000
20
5275383.965000
30
291.929000
41
0.500000
42
0.500000
43
1.000000
50
0.000000
0
LINE
100
AcDbEntity
100
AcDbLine
8
FAHRBAHNRANDOK
5
3A1
10
3399374.460000
20
5275386.315000
30
291.929000
11
3399374.095000
21
5275384.210000
31
291.929000
62
72
0
LINE
100
AcDbEntity
100
AcDbLine
8
FAHRBAHNRANDOK
5
3A2
10
3399373.805000
20
5275383.965000
30
0.000000
11
3399367.805000
21
5275383.955000
31
0.000000
62
72
0
INSERT
100
AcDbEntity
100
AcDbBlockReference
8
FAHRBAHNRANDOK
5
3A3
2
KREISKL
10
3399374.505000
20
5275386.565000
30
292.022000
41
0.500000
42
0.500000
43
1.000000
50
0.000000
0
LINE
100
AcDbEntity
100
AcDbLine
8
FAHRBAHNRANDOK
5
3A4
10
3399374.590000
20
5275390.135000
30
292.022000
11
3399374.510000
21
5275386.815000
31
292.022000
62
72
0
INSERT
100
AcDbEntity
100
AcDbBlockReference
8
FAHRBAHNRANDOK
5
3A5
2
KREISKL
10
3399374.595000
20
5275390.385000
30
292.161000
41
0.500000
42
0.500000
43
1.000000
50
0.000000
0
INSERT
100
AcDbEntity
100
AcDbBlockReference
8
FAHRBAHNRANDOK
5
3A6
2
KREISKL
10
3399303.270000
20
5275354.915000
30
290.559000
41
0.500000
42
0.500000
43
1.000000
50
35.730000
0
LINE
100
AcDbEntity
100
AcDbLine
8
FAHRBAHNRANDOK
5
3A7
10
3399303.120000
20
5275355.115000
30
0.000000
11
3399302.805000
21
5275355.540000
31
0.000000
62
72
0
INSERT
100
AcDbEntity
100
AcDbBlockReference
8
FAHRBAHNRANDOK
5
3A8
2
KREISKL
10
3399302.660000
20
5275355.745000
30
290.645000
41
0.500000
42
0.500000
43
1.000000
50
37.440000
0
INSERT
100
AcDbEntity
100
AcDbBlockReference
8
FAHRBAHNRANDOK
5
3A9
2
KREISKL
10
3399300.885000
20
5275382.885000
30
290.563000
41
0.500000
42
0.500000
43
1.000000
50
253.620000
0
LINE
100
AcDbEntity
100
AcDbLine
8
FAHRBAHNRANDOK
5
3AA
10
3399301.130000
20
5275382.825000
30
0.000000
11
3399304.300000
21
5275382.055000
31
0.000000
62
72
0
INSERT
100
AcDbEntity
100
AcDbBlockReference
8
FAHRBAHNRANDOK
5
3AB
2
KREISKL
10
3399304.545000
20
5275381.995000
30
290.548000
41
0.500000
42
0.500000
43
1.000000
50
258.390000
0
LINE
100
AcDbEntity
100
AcDbLine
8
FAHRBAHNRANDOK
5
3AC
10
3399304.790000
20
5275381.955000
30
0.000000
11
3399307.855000
21
5275381.440000
31
0.000000
62
72
0
INSERT
100
AcDbEntity
100
AcDbBlockReference
8
FAHRBAHNRANDOK
5
3AD
2
KREISKL
10
3399308.100000
20
5275381.395000
30
290.565000
41
0.500000
42
0.500000
43
1.000000
50
264.060000
0
LINE
100
AcDbEntity
100
AcDbLine
8
FAHRBAHNRANDOK
5
3AE
10
3399308.350000
20
5275381.385000
30
0.000000
11
3399311.030000
21
5275381.275000
31
0.000000
62
72
0
INSERT
100
AcDbEntity
100
AcDbBlockReference
8
FAHRBAHNRANDOK
5
3AF
2
KREISKL
10
3399311.280000
20
5275381.265000
30
290.589000
41
0.500000
42
0.500000
43
1.000000
50
271.800000
0
LINE
100
AcDbEntity
100
AcDbLine
8
FAHRBAHNRANDOK
5
3B0
10
3399311.530000
20
5275381.290000
30
0.000000
11
3399311.905000
21
5275381.330000
31
0.000000
62
72
0
INSERT
100
AcDbEntity
100
AcDbBlockReference
8
FAHRBAHNRANDOK
5
3B1
2
KREISKL
10
3399312.150000
20
5275381.355000
30
290.520000
41
0.500000
42
0.500000
43
1.000000
50
279.990000
0
LINE
100
AcDbEntity
100
AcDbLine
8
FAHRBAHNRANDOK
5
3B2
10
3399312.395000
20
5275381.415000
30
0.000000
11
3399314.150000
21
5275381.855000
31
0.000000
62
72
0
INSERT
100
AcDbEntity
100
AcDbBlockReference
8
FAHRBAHNRANDOK
5
3B3
2
KREISKL
10
3399314.395000
20
5275381.915000
30
290.551000
41
0.500000
42
0.500000
43
1.000000
50
291.060000
0
LINE
100
AcDbEntity
100
AcDbLine
8
FAHRBAHNRANDOK
5
3B4
10
3399314.615000
20
5275382.030000
30
0.000000
11
3399316.855000
21
5275383.220000
31
0.000000
62
72
0
INSERT
100
AcDbEntity
100
AcDbBlockReference
8
FAHRBAHNRANDOK
5
3B5
2
KREISKL
10
3399317.080000
20
5275383.340000
30
290.581000
41
0.500000
42
0.500000
43
1.000000
50
304.560000
0
LINE
100
AcDbEntity
100
AcDbLine
8
FAHRBAHNRANDOK
5
3B6
10
3399317.265000
20
5275383.500000
30
0.000000
11
3399319.370000
21
5275385.340000
31
0.000000
62
72
0
INSERT
100
AcDbEntity
100
AcDbBlockReference
8
FAHRBAHNRANDOK
5
3B7
2
KREISKL
10
3399319.555000
20
5275385.500000
30
290.628000
41
0.500000
42
0.500000
43
1.000000
50
317.160000
0
LINE
100
AcDbEntity
100
AcDbLine
8
FAHRBAHNRANDOK
5
3B8
10
3399319.705000
20
5275385.700000
30
0.000000
11
3399320.625000
21
5275386.925000
31
0.000000
62
72
0
INSERT
100
AcDbEntity
100
AcDbBlockReference
8
FAHRBAHNRANDOK
5
3B9
2
KREISKL
10
3399320.775000
20
5275387.125000
30
290.663000
41
0.500000
42
0.500000
43
1.000000
50
327.600000
0
LINE
100
AcDbEntity
100
AcDbLine
8
FAHRBAHNRANDOK
5
3BA
10
3399320.890000
20
5275387.345000
30
0.000000
11
3399321.515000
21
5275388.515000
31
0.000000
62
72
0
INSERT
100
AcDbEntity
100
AcDbBlockReference
8
FAHRBAHNRANDOK
5
3BB
2
KREISKL
10
3399321.635000
20
5275388.735000
30
290.677000
41
0.500000
42
0.500000
43
1.000000
50
335.520000
0
LINE
100
AcDbEntity
100
AcDbLine
8
FAHRBAHNRANDOK
5
3BC
10
3399321.725000
20
5275388.970000
30
0.000000
11
3399322.035000
21
5275389.785000
31
0.000000
62
72
0
INSERT
100
AcDbEntity
100
AcDbBlockReference
8
FAHRBAHNRANDOK
5
3BD
2
KREISKL
10
3399322.125000
20
5275390.020000
30
290.757000
41
0.500000
42
0.500000
43
1.000000
50
342.090000
0
LINE
100
AcDbEntity
100
AcDbLine
8
FAHRBAHNRANDOK
5
3BE
10
3399322.190000
20
5275390.260000
30
0.000000
11
3399322.355000
21
5275390.885000
31
0.000000
62
72
0
INSERT
100
AcDbEntity
100
AcDbBlockReference
8
FAHRBAHNRANDOK
5
3BF
2
KREISKL
10
3399322.420000
20
5275391.130000
30
290.755000
41
0.500000
42
0.500000
43
1.000000
50
351.270000
0
LINE
100
AcDbEntity
100
AcDbLine
8
FAHRBAHNRANDOK
5
3C0
10
3399322.440000
20
5275391.375000
30
290.755000
11
3399322.520000
21
5275392.385000
31
290.755000
62
72
0
INSERT
100
AcDbEntity
100
AcDbBlockReference
8
FAHRBAHNRANDOK
5
3C1
2
KREISKL
10
3399318.125000
20
5275372.290000
30
290.691000
41
0.500000
42
0.500000
43
1.000000
50
350.640000
0
LINE
100
AcDbEntity
100
AcDbLine
8
FAHRBAHNRANDOK
5
3C2
10
3399317.975000
20
5275370.875000
30
290.691000
11
3399318.100000
21
5275372.040000
31
290.691000
62
72
0
INSERT
100
AcDbEntity
100
AcDbBlockReference
8
FAHRBAHNRANDOK
5
3C3
2
KREISKL
10
3399317.970000
20
5275372.765000
30
290.694000
41
0.500000
42
0.500000
43
1.000000
50
42.210000
0
INSERT
100
AcDbEntity
100
AcDbBlockReference
8
FAHRBAHNRANDOK
5
3C4
2
KREISKL
10
3399317.510000
20
5275372.965000
30
290.693000
41
0.500000
42
0.500000
43
1.000000
50
78.930000
0
LINE
100
AcDbEntity
100
AcDbLine
8
FAHRBAHNRANDOK
5
3C5
10
3399317.260000
20
5275372.960000
30
290.693000
11
3399315.490000
21
5275372.925000
31
290.693000
62
72
0
INSERT
100
AcDbEntity
100
AcDbBlockReference
8
FAHRBAHNRANDOK
5
3C6
2
KREISKL
10
3399315.240000
20
5275372.920000
30
290.716000
41
0.500000
42
0.500000
43
1.000000
50
86.850000
0
LINE
100
AcDbEntity
100
AcDbLine
8
FAHRBAHNRANDOK
5
3C7
10
3399314.995000
20
5275372.955000
30
290.716000
11
3399311.435000
21
5275373.430000
31
290.716000
62
72
0
INSERT
100
AcDbEntity
100
AcDbBlockReference
8
FAHRBAHNRANDOK
5
3C8
2
KREISKL
10
3399311.190000
20
5275373.460000
30
290.733000
41
0.500000
42
0.500000
43
1.000000
50
83.070000
0
LINE
100
AcDbEntity
100
AcDbLine
8
FAHRBAHNRANDOK
5
3C9
10
3399310.940000
20
5275373.490000
30
290.733000
11
3399307.125000
21
5275373.910000
31
290.733000
62
72
0
INSERT
100
AcDbEntity
100
AcDbBlockReference
8
FAHRBAHNRANDOK
5
3CA
2
KREISKL
10
3399306.875000
20
5275373.940000
30
290.720000
41
0.500000
42
0.500000
43
1.000000
50
81.720000
0
LINE
100
AcDbEntity
100
AcDbLine
8
FAHRBAHNRANDOK
5
3CB
10
3399306.630000
20
5275373.985000
30
290.720000
11
3399302.500000
21
5275374.730000
31
290.720000
62
72
0
INSERT
100
AcDbEntity
100
AcDbBlockReference
8
FAHRBAHNRANDOK
5
3CC
2
KREISKL
10
3399302.255000
20
5275374.775000
30
290.752000
41
0.500000
42
0.500000
43
1.000000
50
77.490000
0
INSERT
100
AcDbEntity
100
AcDbBlockReference
8
FAHRBAHNRANDOK
5
3CD
2
KREISKL
10
3399301.805000
20
5275366.300000
30
290.849000
41
0.500000
42
0.500000
43
1.000000
50
222.300000
0
LINE
100
AcDbEntity
100
AcDbLine
8
FAHRBAHNRANDOK
5
3CE
10
3399301.965000
20
5275366.110000
30
290.849000
11
3399304.420000
21
5275363.280000
31
290.849000
62
72
0
INSERT
100
AcDbEntity
100
AcDbBlockReference
8
FAHRBAHNRANDOK
5
3CF
2
KREISKL
10
3399304.580000
20
5275363.090000
30
290.838000
41
0.500000
42
0.500000
43
1.000000
50
219.510000
0
LINE
100
AcDbEntity
100
AcDbLine
8
FAHRBAHNRANDOK
5
3D0
10
3399304.735000
20
5275362.895000
30
290.838000
11
3399306.865000
21
5275360.170000
31
290.838000
62
72
0
INSERT
100
AcDbEntity
100
AcDbBlockReference
8
FAHRBAHNRANDOK
5
3D1
2
KREISKL
10
3399307.020000
20
5275359.970000
30
290.819000
41
0.500000
42
0.500000
43
1.000000
50
217.170000
0
LINE
100
AcDbEntity
100
AcDbLine
8
FAHRBAHNRANDOK
5
3D2
10
3399307.165000
20
5275359.770000
30
290.819000
11
3399308.035000
21
5275358.590000
31
290.819000
62
72
0
INSERT
100
AcDbEntity
100
AcDbBlockReference
8
FAHRBAHNRANDOK
5
3D3
2
KREISKL
10
3399308.185000
20
5275358.385000
30
290.805000
41
0.500000
42
0.500000
43
1.000000
50
215.550000
0
LINE
100
AcDbEntity
100
AcDbLine
8
FAHRBAHNRANDOK
5
3D4
10
3399308.325000
20
5275358.180000
30
290.805000
11
3399310.370000
21
5275355.235000
31
290.805000
62
72
0
INSERT
100
AcDbEntity
100
AcDbBlockReference
8
FAHRBAHNRANDOK
5
3D5
2
KREISKL
10
3399310.515000
20
5275355.030000
30
290.759000
41
0.500000
42
0.500000
43
1.000000
50
213.840000
0
INSERT
100
AcDbEntity
100
AcDbBlockReference
8
FAHRBAHNRANDOK
5
3D6
2
KREISKL
10
3399301.900000
20
5275384.980000
30
290.672000
41
0.500000
42
0.500000
43
1.000000
50
0.000000
0
INSERT
100
AcDbEntity
100
AcDbBlockReference
8
FAHRBAHNRANDOK
5
3D7
2
KREISKL
10
3399305.245000
20
5275384.225000
30
290.671000
41
0.500000
42
0.500000
43
1.000000
50
0.000000
0
INSERT
100
AcDbEntity
100
AcDbBlockReference
8
FAHRBAHNRANDOK
5
3D8
2
KREISKL
10
3399308.110000
20
5275383.970000
30
290.684000
41
0.500000
42
0.500000
43
1.000000
50
0.000000
0
INSERT
100
AcDbEntity
100
AcDbBlockReference
8
FAHRBAHNRANDOK
5
3D9
2
KREISKL
10
3399310.640000
20
5275384.310000
30
290.706000
41
0.500000
42
0.500000
43
1.000000
50
0.000000
0
INSERT
100
AcDbEntity
100
AcDbBlockReference
8
FAHRBAHNRANDOK
5
3DA
2
KREISKL
10
3399312.835000
20
5275385.925000
30
290.733000
41
0.500000
42
0.500000
43
1.000000
50
0.000000
0
INSERT
100
AcDbEntity
100
AcDbBlockReference
8
FAHRBAHNRANDOK
5
3DB
2
KREISKL
10
3399347.930000
20
5275366.645000
30
290.962000
41
0.500000
42
0.500000
43
1.000000
50
117.270000
0
LINE
100
AcDbEntity
100
AcDbLine
8
FAHRBAHNRANDOK
5
3DC
10
3399347.710000
20
5275366.520000
30
290.962000
11
3399345.075000
21
5275365.070000
31
290.962000
62
72
0
INSERT
100
AcDbEntity
100
AcDbBlockReference
8
FAHRBAHNRANDOK
5
3DD
2
KREISKL
10
3399327.720000
20
5275359.100000
30
290.635000
41
0.500000
42
0.500000
43
1.000000
50
173.070000
0
LINE
100
AcDbEntity
100
AcDbLine
8
FAHRBAHNRANDOK
5
3DE
10
3399328.400000
20
5275365.415000
30
290.635000
11
3399327.750000
21
5275359.345000
31
290.635000
62
72
0
ARC
100
AcDbEntity
100
AcDbCircle
8
FAHRBAHNRANDOK
5
3DF
10
3399328.295000
20
5275359.045000
30
0.000000
40
0.575000
50
199.659150
51
224.462840
62
72
0
INSERT
100
AcDbEntity
100
AcDbBlockReference
8
FAHRBAHNRANDOK
5
3E0
2
KREISKL
10
3399328.095000
20
5275358.505000
30
290.626000
41
0.500000
42
0.500000
43
1.000000
50
248.850000
0
ARC
100
AcDbEntity
100
AcDbCircle
8
FAHRBAHNRANDOK
5
3E1
10
3399328.300000
20
5275359.055000
30
290.626000
40
0.590000
50
274.357890
51
296.166050
62
72
0
INSERT
100
AcDbEntity
100
AcDbBlockReference
8
FAHRBAHNRANDOK
5
3E2
2
KREISKL
10
3399328.755000
20
5275358.685000
30
290.628000
41
0.500000
42
0.500000
43
1.000000
50
303.210000
0
LINE
100
AcDbEntity
100
AcDbLine
8
FAHRBAHNRANDOK
5
3E3
10
3399328.915000
20
5275358.880000
30
290.628000
11
3399329.795000
21
5275359.965000
31
290.628000
62
72
0
INSERT
100
AcDbEntity
100
AcDbBlockReference
8
FAHRBAHNRANDOK
5
3E4
2
KREISKL
10
3399329.950000
20
5275360.160000
30
290.648000
41
0.500000
42
0.500000
43
1.000000
50
319.410000
0
LINE
100
AcDbEntity
100
AcDbLine
8
FAHRBAHNRANDOK
5
3E5
10
3399330.120000
20
5275360.345000
30
290.648000
11
3399332.090000
21
5275362.520000
31
290.648000
62
72
0
INSERT
100
AcDbEntity
100
AcDbBlockReference
8
FAHRBAHNRANDOK
5
3E6
2
KREISKL
10
3399332.260000
20
5275362.705000
30
290.695000
41
0.500000
42
0.500000
43
1.000000
50
315.720000
0
LINE
100
AcDbEntity
100
AcDbLine
8
FAHRBAHNRANDOK
5
3E7
10
3399332.440000
20
5275362.875000
30
290.695000
11
3399333.840000
21
5275364.210000
31
290.695000
62
72
0
INSERT
100
AcDbEntity
100
AcDbBlockReference
8
FAHRBAHNRANDOK
5
3E8
2
KREISKL
10
3399334.020000
20
5275364.385000
30
290.755000
41
0.500000
42
0.500000
43
1.000000
50
311.670000
0
LINE
100
AcDbEntity
100
AcDbLine
8
FAHRBAHNRANDOK
5
3E9
10
3399334.215000
20
5275364.545000
30
290.755000
11
3399336.935000
21
5275366.800000
31
290.755000
62
72
0
INSERT
100
AcDbEntity
100
AcDbBlockReference
8
FAHRBAHNRANDOK
5
3EA
2
KREISKL
10
3399337.125000
20
5275366.960000
30
290.856000
41
0.500000
42
0.500000
43
1.000000
50
307.710000
0
LINE
100
AcDbEntity
100
AcDbLine
8
FAHRBAHNRANDOK
5
3EB
10
3399337.330000
20
5275367.105000
30
290.856000
11
3399339.060000
21
5275368.350000
31
290.856000
62
72
0
INSERT
100
AcDbEntity
100
AcDbBlockReference
8
FAHRBAHNRANDOK
5
3EC
2
KREISKL
10
3399339.265000
20
5275368.495000
30
290.906000
41
0.500000
42
0.500000
43
1.000000
50
304.200000
0
LINE
100
AcDbEntity
100
AcDbLine
8
FAHRBAHNRANDOK
5
3ED
10
3399339.475000
20
5275368.630000
30
290.906000
11
3399341.190000
21
5275369.730000
31
290.906000
62
72
0
INSERT
100
AcDbEntity
100
AcDbBlockReference
8
FAHRBAHNRANDOK
5
3EE
2
KREISKL
10
3399341.400000
20
5275369.865000
30
290.977000
41
0.500000
42
0.500000
43
1.000000
50
302.310000
0
LINE
100
AcDbEntity
100
AcDbLine
8
FAHRBAHNRANDOK
5
3EF
10
3399341.610000
20
5275369.995000
30
290.977000
11
3399342.825000
21
5275370.750000
31
290.977000
62
72
0
INSERT
100
AcDbEntity
100
AcDbBlockReference
8
FAHRBAHNRANDOK
5
3F0
2
KREISKL
10
3399343.035000
20
5275370.880000
30
291.039000
41
0.500000
42
0.500000
43
1.000000
50
318.870000
0
ARC
100
AcDbEntity
100
AcDbCircle
8
FAHRBAHNRANDOK
5
3F1
10
3399342.795000
20
5275371.365000
30
291.039000
40
0.540000
50
322.991910
51
348.631380
62
72
0
INSERT
100
AcDbEntity
100
AcDbBlockReference
8
FAHRBAHNRANDOK
5
3F2
2
KREISKL
10
3399343.320000
20
5275371.510000
30
291.052000
41
0.500000
42
0.500000
43
1.000000
50
13.860000
0
ARC
100
AcDbEntity
100
AcDbCircle
8
FAHRBAHNRANDOK
5
3F3
10
3399342.735000
20
5275371.350000
30
291.052000
40
0.605000
50
39.214980
51
64.420250
62
72
0
INSERT
100
AcDbEntity
100
AcDbBlockReference
8
FAHRBAHNRANDOK
5
3F4
2
KREISKL
10
3399342.750000
20
5275371.955000
30
291.043000
41
0.500000
42
0.500000
43
1.000000
50
70.020000
0
LINE
100
AcDbEntity
100
AcDbLine
8
FAHRBAHNRANDOK
5
3F5
10
3399342.500000
20
5275371.965000
30
291.043000
11
3399336.750000
21
5275372.145000
31
291.043000
62
72
0
INSERT
100
AcDbEntity
100
AcDbBlockReference
8
FAHRBAHNRANDOK
5
3F6
2
KREISKL
10
3399336.500000
20
5275372.155000
30
290.923000
41
0.500000
42
0.500000
43
1.000000
50
88.290000
0
LINE
100
AcDbEntity
100
AcDbLine
8
FAHRBAHNRANDOK
5
3F7
10
3399336.250000
20
5275372.160000
30
290.923000
11
3399332.660000
21
5275372.270000
31
290.923000
62
72
0
INSERT
100
AcDbEntity
100
AcDbBlockReference
8
FAHRBAHNRANDOK
5
3F8
2
KREISKL
10
3399332.410000
20
5275372.280000
30
290.851000
41
0.500000
42
0.500000
43
1.000000
50
88.110000
0
LINE
100
AcDbEntity
100
AcDbLine
8
FAHRBAHNRANDOK
5
3F9
10
3399332.160000
20
5275372.290000
30
290.851000
11
3399329.820000
21
5275372.380000
31
290.851000
62
72
0
INSERT
100
AcDbEntity
100
AcDbBlockReference
8
FAHRBAHNRANDOK
5
3FA
2
KREISKL
10
3399329.570000
20
5275372.385000
30
290.809000
41
0.500000
42
0.500000
43
1.000000
50
110.250000
0
ARC
100
AcDbEntity
100
AcDbCircle
8
FAHRBAHNRANDOK
5
3FB
10
3399329.575000
20
5275371.840000
30
290.809000
40
0.545000
50
117.306270
51
147.792170
62
72
0
INSERT
100
AcDbEntity
100
AcDbBlockReference
8
FAHRBAHNRANDOK
5
3FC
2
KREISKL
10
3399329.035000
20
5275371.895000
30
290.794000
41
0.500000
42
0.500000
43
1.000000
50
175.050000
0
LINE
100
AcDbEntity
100
AcDbLine
8
FAHRBAHNRANDOK
5
3FD
10
3399329.010000
20
5275371.645000
30
290.794000
11
3399328.850000
21
5275369.980000
31
290.794000
62
72
0
INSERT
100
AcDbEntity
100
AcDbBlockReference
8
FAHRBAHNRANDOK
5
3FE
2
KREISKL
10
3399330.220000
20
5275384.540000
30
290.760000
41
0.500000
42
0.500000
43
1.000000
50
192.510000
0
INSERT
100
AcDbEntity
100
AcDbBlockReference
8
FAHRBAHNRANDOK
5
3FF
2
KREISKL
10
3399344.855000
20
5275364.950000
30
290.818000
41
0.500000
42
0.500000
43
1.000000
50
121.140000
0
LINE
100
AcDbEntity
100
AcDbLine
8
FAHRBAHNRANDOK
5
400
10
3399344.645000
20
5275364.810000
30
290.818000
11
3399341.965000
21
5275363.045000
31
290.818000
62
72
0
INSERT
100
AcDbEntity
100
AcDbBlockReference
8
FAHRBAHNRANDOK
5
401
2
KREISKL
10
3399341.755000
20
5275362.905000
30
290.679000
41
0.500000
42
0.500000
43
1.000000
50
125.010000
0
LINE
100
AcDbEntity
100
AcDbLine
8
FAHRBAHNRANDOK
5
402
10
3399341.555000
20
5275362.760000
30
290.679000
11
3399340.960000
21
5275362.320000
31
290.679000
62
72
0
INSERT
100
AcDbEntity
100
AcDbBlockReference
8
FAHRBAHNRANDOK
5
403
2
KREISKL
10
3399340.760000
20
5275362.170000
30
290.581000
41
0.500000
42
0.500000
43
1.000000
50
127.800000
0
LINE
100
AcDbEntity
100
AcDbLine
8
FAHRBAHNRANDOK
5
404
10
3399340.565000
20
5275362.010000
30
290.581000
11
3399338.780000
21
5275360.570000
31
290.581000
62
72
0
INSERT
100
AcDbEntity
100
AcDbBlockReference
8
FAHRBAHNRANDOK
5
405
2
KREISKL
10
3399338.585000
20
5275360.410000
30
290.506000
41
0.500000
42
0.500000
43
1.000000
50
131.040000
0
LINE
100
AcDbEntity
100
AcDbLine
8
FAHRBAHNRANDOK
5
406
10
3399338.405000
20
5275360.240000
30
290.506000
11
3399336.715000
21
5275358.660000
31
290.506000
62
72
0
INSERT
100
AcDbEntity
100
AcDbBlockReference
8
FAHRBAHNRANDOK
5
407
2
KREISKL
10
3399336.530000
20
5275358.490000
30
290.443000
41
0.500000
42
0.500000
43
1.000000
50
135.360000
0
LINE
100
AcDbEntity
100
AcDbLine
8
FAHRBAHNRANDOK
5
408
10
3399336.360000
20
5275358.305000
30
290.443000
11
3399335.035000
21
5275356.855000
31
290.443000
62
72
0
INSERT
100
AcDbEntity
100
AcDbBlockReference
8
FAHRBAHNRANDOK
5
409
2
KREISKL
10
3399334.865000
20
5275356.670000
30
290.394000
41
0.500000
42
0.500000
43
1.000000
50
139.140000
0
LINE
100
AcDbEntity
100
AcDbLine
8
FAHRBAHNRANDOK
5
40A
10
3399334.705000
20
5275356.480000
30
290.394000
11
3399334.390000
21
5275356.090000
31
290.394000
62
72
0
INSERT
100
AcDbEntity
100
AcDbBlockReference
8
FAHRBAHNRANDOK
5
40B
2
KREISKL
10
3399334.230000
20
5275355.895000
30
290.460000
41
0.500000
42
0.500000
43
1.000000
50
142.290000
0
LINE
100
AcDbEntity
100
AcDbLine
8
FAHRBAHNRANDOK
5
40C
10
3399334.085000
20
5275355.695000
30
290.460000
11
3399331.980000
21
5275352.810000
31
290.460000
62
72
0
INSERT
100
AcDbEntity
100
AcDbBlockReference
8
FAHRBAHNRANDOK
5
40D
2
KREISKL
10
3399316.455000
20
5275355.795000
30
290.655000
41
0.500000
42
0.500000
43
1.000000
50
354.240000
0
LINE
100
AcDbEntity
100
AcDbLine
8
FAHRBAHNRANDOK
5
40E
10
3399316.480000
20
5275356.040000
30
290.655000
11
3399317.525000
21
5275366.335000
31
290.655000
62
72
0
INSERT
100
AcDbEntity
100
AcDbBlockReference
8
FAHRBAHNRANDOK
5
40F
2
KREISKL
10
3399317.550000
20
5275366.585000
30
290.668000
41
0.500000
42
0.500000
43
1.000000
50
354.330000
0
LINE
100
AcDbEntity
100
AcDbLine
8
FAHRBAHNRANDOK
5
410
10
3399317.575000
20
5275366.835000
30
290.668000
11
3399317.925000
21
5275370.375000
31
290.668000
62
72
0
INSERT
100
AcDbEntity
100
AcDbBlockReference
8
FAHRBAHNRANDOK
5
411
2
KREISKL
10
3399317.950000
20
5275370.625000
30
290.685000
41
0.500000
42
0.500000
43
1.000000
50
354.240000
0
INSERT
100
AcDbEntity
100
AcDbBlockReference
8
FAHRBAHNRANDOK
5
412
2
KREISKL
10
3399322.545000
20
5275392.635000
30
290.747000
41
0.500000
42
0.500000
43
1.000000
50
357.930000
0
LINE
100
AcDbEntity
100
AcDbLine
8
FAHRBAHNRANDOK
5
413
10
3399322.540000
20
5275392.885000
30
290.747000
11
3399322.440000
21
5275404.235000
31
290.747000
62
72
0
INSERT
100
AcDbEntity
100
AcDbBlockReference
8
FAHRBAHNRANDOK
5
414
2
KREISKL
10
3399330.735000
20
5275399.980000
30
290.783000
41
0.500000
42
0.500000
43
1.000000
50
180.180000
0
LINE
100
AcDbEntity
100
AcDbLine
8
FAHRBAHNRANDOK
5
415
10
3399330.730000
20
5275399.730000
30
0.000000
11
3399330.725000
21
5275398.720000
31
0.000000
62
72
0
LINE
100
AcDbEntity
100
AcDbLine
8
FAHRBAHNRANDOK
5
416
10
3399330.620000
20
5275411.150000
30
0.000000
11
3399330.730000
21
5275400.230000
31
0.000000
62
72
0
INSERT
100
AcDbEntity
100
AcDbBlockReference
8
FAHRBAHNRANDOK
5
417
2
KREISKL
10
3399330.725000
20
5275398.470000
30
290.782000
41
0.500000
42
0.500000
43
1.000000
50
179.100000
0
LINE
100
AcDbEntity
100
AcDbLine
8
FAHRBAHNRANDOK
5
418
10
3399330.715000
20
5275398.220000
30
0.000000
11
3399330.625000
21
5275394.725000
31
0.000000
62
72
0
INSERT
100
AcDbEntity
100
AcDbBlockReference
8
FAHRBAHNRANDOK
5
419
2
KREISKL
10
3399330.615000
20
5275394.475000
30
290.781000
41
0.500000
42
0.500000
43
1.000000
50
178.020000
0
LINE
100
AcDbEntity
100
AcDbLine
8
FAHRBAHNRANDOK
5
41A
10
3399330.605000
20
5275394.225000
30
0.000000
11
3399330.425000
21
5275390.030000
31
0.000000
62
72
0
INSERT
100
AcDbEntity
100
AcDbBlockReference
8
FAHRBAHNRANDOK
5
41B
2
KREISKL
10
3399330.415000
20
5275389.780000
30
290.789000
41
0.500000
42
0.500000
43
1.000000
50
176.580000
0
LINE
100
AcDbEntity
100
AcDbLine
8
FAHRBAHNRANDOK
5
41C
10
3399330.395000
20
5275389.530000
30
0.000000
11
3399330.360000
21
5275389.085000
31
0.000000
62
72
0
INSERT
100
AcDbEntity
100
AcDbBlockReference
8
FAHRBAHNRANDOK
5
41D
2
KREISKL
10
3399330.340000
20
5275388.835000
30
290.719000
41
0.500000
42
0.500000
43
1.000000
50
175.950000
0
LINE
100
AcDbEntity
100
AcDbLine
8
FAHRBAHNRANDOK
5
41E
10
3399330.325000
20
5275388.590000
30
0.000000
11
3399330.270000
21
5275387.780000
31
0.000000
62
72
0
INSERT
100
AcDbEntity
100
AcDbBlockReference
8
FAHRBAHNRANDOK
5
41F
2
KREISKL
10
3399330.255000
20
5275387.530000
30
290.725000
41
0.500000
42
0.500000
43
1.000000
50
176.040000
0
INSERT
100
AcDbEntity
100
AcDbBlockReference
8
FAHRBAHNRANDOK
5
420
2
KREISKL
10
3399328.825000
20
5275369.730000
30
290.771000
41
0.500000
42
0.500000
43
1.000000
50
174.510000
0
LINE
100
AcDbEntity
100
AcDbLine
8
FAHRBAHNRANDOK
5
421
10
3399328.800000
20
5275369.485000
30
290.771000
11
3399328.450000
21
5275365.915000
31
290.771000
62
72
0
INSERT
100
AcDbEntity
100
AcDbBlockReference
8
FAHRBAHNRANDOK
5
422
2
KREISKL
10
3399328.425000
20
5275365.665000
30
290.695000
41
0.500000
42
0.500000
43
1.000000
50
174.150000
0
INSERT
100
AcDbEntity
100
AcDbBlockReference
8
FAHRBAHNRANDOK
5
423
2
KREISKL
10
3399332.305000
20
5275365.325000
30
290.751000
41
0.500000
42
0.500000
43
1.000000
50
0.000000
0
INSERT
100
AcDbEntity
100
AcDbBlockReference
8
FAHRBAHNRANDOK
5
424
2
KREISKL
10
3399333.180000
20
5275365.085000
30
290.764000
41
0.500000
42
0.500000
43
1.000000
50
0.000000
0
INSERT
100
AcDbEntity
100
AcDbBlockReference
8
FAHRBAHNRANDOK
5
425
2
KREISKL
10
3399336.405000
20
5275369.235000
30
290.886000
41
0.500000
42
0.500000
43
1.000000
50
0.000000
0
INSERT
100
AcDbEntity
100
AcDbBlockReference
8
FAHRBAHNRANDOK
5
426
2
KREISKL
10
3399336.435000
20
5275368.370000
30
290.881000
41
0.500000
42
0.500000
43
1.000000
50
0.000000
0
INSERT
100
AcDbEntity
100
AcDbBlockReference
8
FAHRBAHNRANDOK
5
427
2
KREISKL
10
3399336.665000
20
5275367.675000
30
290.864000
41
0.500000
42
0.500000
43
1.000000
50
0.000000
0
INSERT
100
AcDbEntity
100
AcDbBlockReference
8
FAHRBAHNRANDOK
5
428
2
KREISKL
10
3399332.315000
20
5275369.435000
30
290.810000
41
0.500000
42
0.500000
43
1.000000
50
0.000000
0
INSERT
100
AcDbEntity
100
AcDbBlockReference
8
FAHRBAHNRANDOK
5
429
2
KREISKL
10
3399333.135000
20
5275384.225000
30
290.765000
41
0.500000
42
0.500000
43
1.000000
50
0.000000
0
INSERT
100
AcDbEntity
100
AcDbBlockReference
8
FAHRBAHNRANDOK
5
42A
2
KREISKL
10
3399313.835000
20
5275394.635000
30
290.638000
41
0.500000
42
0.500000
43
1.000000
50
0.000000
0
INSERT
100
AcDbEntity
100
AcDbBlockReference
8
FAHRBAHNRANDOK
5
42B
2
KREISKL
10
3399317.145000
20
5275397.865000
30
290.804000
41
0.500000
42
0.500000
43
1.000000
50
0.000000
0
INSERT
100
AcDbEntity
100
AcDbBlockReference
8
FAHRBAHNRANDOK
5
42C
2
KREISKL
10
3399317.310000
20
5275395.900000
30
290.829000
41
0.500000
42
0.500000
43
1.000000
50
0.000000
0
INSERT
100
AcDbEntity
100
AcDbBlockReference
8
FAHRBAHNRANDOK
5
42D
2
KREISKL
10
3399317.910000
20
5275394.010000
30
290.806000
41
0.500000
42
0.500000
43
1.000000
50
0.000000
0
INSERT
100
AcDbEntity
100
AcDbBlockReference
8
FAHRBAHNRANDOK
5
42E
2
KREISKL
10
3399318.890000
20
5275392.270000
30
290.798000
41
0.500000
42
0.500000
43
1.000000
50
0.000000
0
INSERT
100
AcDbEntity
100
AcDbBlockReference
8
FAHRBAHNRANDOK
5
42F
2
KREISKL
10
3399320.195000
20
5275390.990000
30
290.807000
41
0.500000
42
0.500000
43
1.000000
50
0.000000
0
INSERT
100
AcDbEntity
100
AcDbBlockReference
8
FAHRBAHNRANDOK
5
430
2
KREISKL
10
3399314.605000
20
5275366.830000
30
290.767000
41
0.500000
42
0.500000
43
1.000000
50
0.000000
0
INSERT
100
AcDbEntity
100
AcDbBlockReference
8
FAHRBAHNRANDOK
5
431
2
KREISKL
10
3399313.900000
20
5275360.100000
30
290.814000
41
0.500000
42
0.500000
43
1.000000
50
0.000000
0
INSERT
100
AcDbEntity
100
AcDbBlockReference
8
FAHRBAHNRANDOK
5
432
2
KREISKL
10
3399313.705000
20
5275358.460000
30
290.796000
41
0.500000
42
0.500000
43
1.000000
50
0.000000
0
INSERT
100
AcDbEntity
100
AcDbBlockReference
8
FAHRBAHNRANDOK
5
433
2
KREISKL
10
3399313.190000
20
5275357.285000
30
290.779000
41
0.500000
42
0.500000
43
1.000000
50
0.000000
0
INSERT
100
AcDbEntity
100
AcDbBlockReference
8
FAHRBAHNRANDOK
5
434
2
KREISKL
10
3399312.595000
20
5275356.585000
30
290.773000
41
0.500000
42
0.500000
43
1.000000
50
0.000000
0
INSERT
100
AcDbEntity
100
AcDbBlockReference
8
FAHRBAHNRANDOK
5
435
2
KREISKL
10
3399311.700000
20
5275355.910000
30
290.769000
41
0.500000
42
0.500000
43
1.000000
50
0.000000
0
INSERT
100
AcDbEntity
100
AcDbBlockReference
8
FAHRBAHNRANDOK
5
436
2
KREISKL
10
3399309.355000
20
5275359.235000
30
290.837000
41
0.500000
42
0.500000
43
1.000000
50
0.000000
0
INSERT
100
AcDbEntity
100
AcDbBlockReference
8
FAHRBAHNRANDOK
5
437
2
KREISKL
10
3399309.835000
20
5275360.010000
30
290.853000
41
0.500000
42
0.500000
43
1.000000
50
0.000000
0
INSERT
100
AcDbEntity
100
AcDbBlockReference
8
FAHRBAHNRANDOK
5
438
2
KREISKL
10
3399310.390000
20
5275365.250000
30
290.850000
41
0.500000
42
0.500000
43
1.000000
50
0.000000
0
INSERT
100
AcDbEntity
100
AcDbBlockReference
8
FAHRBAHNRANDOK
5
439
2
KREISKL
10
3399266.285000
20
5275415.560000
30
291.357000
41
0.500000
42
0.500000
43
1.000000
50
287.730000
0
LINE
100
AcDbEntity
100
AcDbLine
8
FAHRBAHNRANDOK
5
43A
10
3399266.390000
20
5275415.330000
30
291.357000
11
3399269.755000
21
5275407.945000
31
291.357000
62
72
0
LINE
100
AcDbEntity
100
AcDbLine
8
FAHRBAHNRANDOK
5
43B
10
3399266.085000
20
5275416.145000
30
0.000000
11
3399266.205000
21
5275415.795000
31
0.000000
62
72
0
INSERT
100
AcDbEntity
100
AcDbBlockReference
8
FAHRBAHNRANDOK
5
43C
2
KREISKL
10
3399269.855000
20
5275407.715000
30
291.108000
41
0.500000
42
0.500000
43
1.000000
50
208.710000
0
LINE
100
AcDbEntity
100
AcDbLine
8
FAHRBAHNRANDOK
5
43D
10
3399269.990000
20
5275407.505000
30
0.000000
11
3399273.345000
21
5275402.300000
31
0.000000
62
72
0
INSERT
100
AcDbEntity
100
AcDbBlockReference
8
FAHRBAHNRANDOK
5
43E
2
KREISKL
10
3399273.480000
20
5275402.090000
30
290.955000
41
0.500000
42
0.500000
43
1.000000
50
216.180000
0
INSERT
100
AcDbEntity
100
AcDbBlockReference
8
FAHRBAHNRANDOK
5
43F
2
KREISKL
10
3399271.170000
20
5275409.575000
30
291.256000
41
0.500000
42
0.500000
43
1.000000
50
0.000000
0
INSERT
100
AcDbEntity
100
AcDbBlockReference
8
FAHRBAHNRANDOK
5
440
2
KREISKL
10
3399273.070000
20
5275406.280000
30
291.144000
41
0.500000
42
0.500000
43
1.000000
50
0.000000
0
INSERT
100
AcDbEntity
100
AcDbBlockReference
8
FAHRBAHNRANDOK
5
441
2
KREISKL
10
3399275.160000
20
5275403.220000
30
291.052000
41
0.500000
42
0.500000
43
1.000000
50
0.000000
0
INSERT
100
AcDbEntity
100
AcDbBlockReference
8
FAHRBAHNRANDOK
5
442
2
KREISKL
10
3399277.310000
20
5275400.445000
30
290.992000
41
0.500000
42
0.500000
43
1.000000
50
0.000000
0
INSERT
100
AcDbEntity
100
AcDbBlockReference
8
FAHRBAHNRANDOK
5
443
2
KREISKL
10
3399272.100000
20
5275407.670000
30
291.146000
41
0.500000
42
0.500000
43
1.000000
50
0.000000
0
INSERT
100
AcDbEntity
100
AcDbBlockReference
8
FAHRBAHNRANDOK
5
444
2
KREISKL
10
3399265.305000
20
5275468.940000
30
292.728000
41
0.500000
42
0.500000
43
1.000000
50
0.000000
0
INSERT
100
AcDbEntity
100
AcDbBlockReference
8
FAHRBAHNRANDOK
5
445
2
KREISKL
10
3399272.145000
20
5275469.015000
30
292.747000
41
0.500000
42
0.500000
43
1.000000
50
0.000000
0
INSERT
100
AcDbEntity
100
AcDbBlockReference
8
FAHRBAHNRANDOK
5
446
2
KREISKL
10
3399279.160000
20
5275469.010000
30
292.735000
41
0.500000
42
0.500000
43
1.000000
50
0.000000
0
INSERT
100
AcDbEntity
100
AcDbBlockReference
8
FAHRBAHNRANDOK
5
447
2
KREISKL
10
3399255.690000
20
5275401.145000
30
291.294000
41
0.500000
42
0.500000
43
1.000000
50
0.000000
0
LINE
100
AcDbEntity
100
AcDbLine
8
FAHRBAHNRANDOK
5
448
10
3399255.435000
20
5275400.535000
30
291.294000
11
3399255.590000
21
5275400.915000
31
291.294000
62
72
0
LINE
100
AcDbEntity
100
AcDbLine
8
FAHRBAHNRANDOK
5
449
10
3399255.770000
20
5275401.380000
30
0.000000
11
3399256.215000
21
5275402.690000
31
0.000000
62
72
0
INSERT
100
AcDbEntity
100
AcDbBlockReference
8
FAHRBAHNRANDOK
5
44A
2
KREISKL
10
3399255.335000
20
5275400.305000
30
291.257000
41
0.500000
42
0.500000
43
1.000000
50
0.000000
0
INSERT
100
AcDbEntity
100
AcDbBlockReference
8
FAHRBAHNRANDOK
5
44B
2
KREISKL
10
3399262.185000
20
5275402.915000
30
291.353000
41
0.500000
42
0.500000
43
1.000000
50
0.000000
0
LINE
100
AcDbEntity
100
AcDbLine
8
FAHRBAHNRANDOK
5
44C
10
3399261.780000
20
5275403.100000
30
291.353000
11
3399261.955000
21
5275403.020000
31
291.353000
62
72
0
INSERT
100
AcDbEntity
100
AcDbBlockReference
8
FAHRBAHNRANDOK
5
44D
2
KREISKL
10
3399261.070000
20
5275402.665000
30
291.337000
41
0.500000
42
0.500000
43
1.000000
50
0.000000
0
LINE
100
AcDbEntity
100
AcDbLine
8
FAHRBAHNRANDOK
5
44E
10
3399261.235000
20
5275402.850000
30
291.337000
11
3399261.385000
21
5275403.015000
31
291.337000
62
72
0
INSERT
100
AcDbEntity
100
AcDbBlockReference
8
FAHRBAHNRANDOK
5
44F
2
KREISKL
10
3399261.550000
20
5275403.200000
30
291.353000
41
0.500000
42
0.500000
43
1.000000
50
0.000000
0
LINE
100
AcDbEntity
100
AcDbLine
8
FAHRBAHNRANDOK
5
450
10
3399255.385000
20
5275453.280000
30
292.687000
11
3399255.270000
21
5275470.315000
31
292.687000
62
72
0
INSERT
100
AcDbEntity
100
AcDbBlockReference
8
FAHRBAHNRANDOK
5
451
2
KREISKL
10
3399255.390000
20
5275453.030000
30
292.367000
41
0.500000
42
0.500000
43
1.000000
50
0.000000
0
LINE
100
AcDbEntity
100
AcDbLine
8
FAHRBAHNRANDOK
5
452
10
3399255.515000
20
5275432.555000
30
292.367000
11
3399255.390000
21
5275452.780000
31
292.367000
62
72
0
INSERT
100
AcDbEntity
100
AcDbBlockReference
8
FAHRBAHNRANDOK
5
453
2
KREISKL
10
3399255.515000
20
5275432.305000
30
291.983000
41
0.500000
42
0.500000
43
1.000000
50
0.000000
0
LINE
100
AcDbEntity
100
AcDbLine
8
FAHRBAHNRANDOK
5
454
10
3399255.665000
20
5275428.410000
30
291.983000
11
3399255.525000
21
5275432.055000
31
291.983000
62
72
0
INSERT
100
AcDbEntity
100
AcDbBlockReference
8
FAHRBAHNRANDOK
5
455
2
KREISKL
10
3399255.675000
20
5275428.160000
30
291.923000
41
0.500000
42
0.500000
43
1.000000
50
0.000000
0
LINE
100
AcDbEntity
100
AcDbLine
8
FAHRBAHNRANDOK
5
456
10
3399256.005000
20
5275425.115000
30
291.923000
11
3399255.705000
21
5275427.910000
31
291.923000
62
72
0
INSERT
100
AcDbEntity
100
AcDbBlockReference
8
FAHRBAHNRANDOK
5
457
2
KREISKL
10
3399256.035000
20
5275424.870000
30
291.865000
41
0.500000
42
0.500000
43
1.000000
50
0.000000
0
LINE
100
AcDbEntity
100
AcDbLine
8
FAHRBAHNRANDOK
5
458
10
3399256.630000
20
5275421.140000
30
291.865000
11
3399256.075000
21
5275424.620000
31
291.865000
62
72
0
INSERT
100
AcDbEntity
100
AcDbBlockReference
8
FAHRBAHNRANDOK
5
459
2
KREISKL
10
3399256.670000
20
5275420.895000
30
291.772000
41
0.500000
42
0.500000
43
1.000000
50
0.000000
0
LINE
100
AcDbEntity
100
AcDbLine
8
FAHRBAHNRANDOK
5
45A
10
3399257.335000
20
5275417.890000
30
291.772000
11
3399256.725000
21
5275420.650000
31
291.772000
62
72
0
INSERT
100
AcDbEntity
100
AcDbBlockReference
8
FAHRBAHNRANDOK
5
45B
2
KREISKL
10
3399257.390000
20
5275417.645000
30
291.703000
41
0.500000
42
0.500000
43
1.000000
50
0.000000
0
LINE
100
AcDbEntity
100
AcDbLine
8
FAHRBAHNRANDOK
5
45C
10
3399257.870000
20
5275414.630000
30
291.703000
11
3399257.430000
21
5275417.400000
31
291.703000
62
72
0
INSERT
100
AcDbEntity
100
AcDbBlockReference
8
FAHRBAHNRANDOK
5
45D
2
KREISKL
10
3399257.910000
20
5275414.380000
30
291.642000
41
0.500000
42
0.500000
43
1.000000
50
0.000000
0
LINE
100
AcDbEntity
100
AcDbLine
8
FAHRBAHNRANDOK
5
45E
10
3399257.860000
20
5275410.830000
30
291.642000
11
3399257.905000
21
5275414.130000
31
291.642000
62
72
0
INSERT
100
AcDbEntity
100
AcDbBlockReference
8
FAHRBAHNRANDOK
5
45F
2
KREISKL
10
3399257.855000
20
5275410.580000
30
291.567000
41
0.500000
42
0.500000
43
1.000000
50
0.000000
0
LINE
100
AcDbEntity
100
AcDbLine
8
FAHRBAHNRANDOK
5
460
10
3399257.240000
20
5275406.430000
30
291.567000
11
3399257.820000
21
5275410.330000
31
291.567000
62
72
0
INSERT
100
AcDbEntity
100
AcDbBlockReference
8
FAHRBAHNRANDOK
5
461
2
KREISKL
10
3399257.200000
20
5275406.180000
30
291.476000
41
0.500000
42
0.500000
43
1.000000
50
0.000000
0
LINE
100
AcDbEntity
100
AcDbLine
8
FAHRBAHNRANDOK
5
462
10
3399256.365000
20
5275403.170000
30
291.476000
11
3399257.135000
21
5275405.940000
31
291.476000
62
72
0
INSERT
100
AcDbEntity
100
AcDbBlockReference
8
FAHRBAHNRANDOK
5
463
2
KREISKL
10
3399256.295000
20
5275402.930000
30
291.380000
41
0.500000
42
0.500000
43
1.000000
50
0.000000
0
INSERT
100
AcDbEntity
100
AcDbBlockReference
8
FAHRBAHNRANDOK
5
464
2
KREISKL
10
3399263.985000
20
5275424.860000
30
291.498000
41
0.500000
42
0.500000
43
1.000000
50
0.000000
0
LINE
100
AcDbEntity
100
AcDbLine
8
FAHRBAHNRANDOK
5
465
10
3399264.035000
20
5275424.615000
30
291.498000
11
3399264.810000
21
5275420.685000
31
291.498000
62
72
0
LINE
100
AcDbEntity
100
AcDbLine
8
FAHRBAHNRANDOK
5
466
10
3399263.895000
20
5275425.505000
30
0.000000
11
3399263.950000
21
5275425.105000
31
0.000000
62
72
0
INSERT
100
AcDbEntity
100
AcDbBlockReference
8
FAHRBAHNRANDOK
5
467
2
KREISKL
10
3399262.810000
20
5275468.355000
30
292.527000
41
0.500000
42
0.500000
43
1.000000
50
0.000000
0
LINE
100
AcDbEntity
100
AcDbLine
8
FAHRBAHNRANDOK
5
468
10
3399262.810000
20
5275468.105000
30
292.527000
11
3399262.820000
21
5275466.580000
31
292.527000
62
72
0
INSERT
100
AcDbEntity
100
AcDbBlockReference
8
FAHRBAHNRANDOK
5
469
2
KREISKL
10
3399262.825000
20
5275466.330000
30
292.475000
41
0.500000
42
0.500000
43
1.000000
50
0.000000
0
LINE
100
AcDbEntity
100
AcDbLine
8
FAHRBAHNRANDOK
5
46A
10
3399262.825000
20
5275466.080000
30
292.475000
11
3399262.910000
21
5275455.575000
31
292.475000
62
72
0
INSERT
100
AcDbEntity
100
AcDbBlockReference
8
FAHRBAHNRANDOK
5
46B
2
KREISKL
10
3399262.915000
20
5275455.325000
30
292.233000
41
0.500000
42
0.500000
43
1.000000
50
0.000000
0
LINE
100
AcDbEntity
100
AcDbLine
8
FAHRBAHNRANDOK
5
46C
10
3399262.915000
20
5275455.075000
30
292.233000
11
3399262.985000
21
5275443.535000
31
292.233000
62
72
0
INSERT
100
AcDbEntity
100
AcDbBlockReference
8
FAHRBAHNRANDOK
5
46D
2
KREISKL
10
3399262.985000
20
5275443.285000
30
291.964000
41
0.500000
42
0.500000
43
1.000000
50
0.000000
0
LINE
100
AcDbEntity
100
AcDbLine
8
FAHRBAHNRANDOK
5
46E
10
3399262.995000
20
5275443.035000
30
291.964000
11
3399263.230000
21
5275432.670000
31
291.964000
62
72
0
INSERT
100
AcDbEntity
100
AcDbBlockReference
8
FAHRBAHNRANDOK
5
46F
2
KREISKL
10
3399263.235000
20
5275432.420000
30
291.695000
41
0.500000
42
0.500000
43
1.000000
50
0.000000
0
LINE
100
AcDbEntity
100
AcDbLine
8
FAHRBAHNRANDOK
5
470
10
3399263.250000
20
5275432.170000
30
291.695000
11
3399263.350000
21
5275430.595000
31
291.695000
62
72
0
INSERT
100
AcDbEntity
100
AcDbBlockReference
8
FAHRBAHNRANDOK
5
471
2
KREISKL
10
3399263.365000
20
5275430.345000
30
291.721000
41
0.500000
42
0.500000
43
1.000000
50
0.000000
0
LINE
100
AcDbEntity
100
AcDbLine
8
FAHRBAHNRANDOK
5
472
10
3399263.390000
20
5275430.100000
30
291.721000
11
3399263.830000
21
5275426.000000
31
291.721000
62
72
0
INSERT
100
AcDbEntity
100
AcDbBlockReference
8
FAHRBAHNRANDOK
5
473
2
KREISKL
10
3399263.855000
20
5275425.750000
30
291.602000
41
0.500000
42
0.500000
43
1.000000
50
0.000000
0
INSERT
100
AcDbEntity
100
AcDbBlockReference
8
FAHRBAHNRANDOK
5
474
2
KREISKL
10
3399264.860000
20
5275420.440000
30
291.396000
41
0.500000
42
0.500000
43
1.000000
50
0.000000
0
LINE
100
AcDbEntity
100
AcDbLine
8
FAHRBAHNRANDOK
5
475
10
3399264.930000
20
5275420.200000
30
291.396000
11
3399265.940000
21
5275416.625000
31
291.396000
62
72
0
INSERT
100
AcDbEntity
100
AcDbBlockReference
8
FAHRBAHNRANDOK
5
476
2
KREISKL
10
3399266.005000
20
5275416.385000
30
291.296000
41
0.500000
42
0.500000
43
1.000000
50
0.000000
0
INSERT
100
AcDbEntity
100
AcDbBlockReference
8
FAHRBAHNRANDOK
5
477
2
KREISKL
10
3399322.440000
20
5275404.485000
30
290.809000
41
0.500000
42
0.500000
43
1.000000
50
0.630000
0
LINE
100
AcDbEntity
100
AcDbLine
8
FAHRBAHNRANDOK
5
478
10
3399322.435000
20
5275404.735000
30
290.809000
11
3399322.300000
21
5275414.875000
31
290.809000
62
72
0
INSERT
100
AcDbEntity
100
AcDbBlockReference
8
FAHRBAHNRANDOK
5
479
2
KREISKL
10
3399322.295000
20
5275415.125000
30
290.908000
41
0.500000
42
0.500000
43
1.000000
50
0.810000
0
LINE
100
AcDbEntity
100
AcDbLine
8
FAHRBAHNRANDOK
5
47A
10
3399322.295000
20
5275415.375000
30
290.908000
11
3399322.200000
21
5275422.955000
31
290.908000
62
72
0
INSERT
100
AcDbEntity
100
AcDbBlockReference
8
FAHRBAHNRANDOK
5
47B
2
KREISKL
10
3399322.195000
20
5275423.205000
30
291.000000
41
0.500000
42
0.500000
43
1.000000
50
0.720000
0
LINE
100
AcDbEntity
100
AcDbLine
8
FAHRBAHNRANDOK
5
47C
10
3399322.190000
20
5275423.455000
30
291.000000
11
3399322.100000
21
5275430.645000
31
291.000000
62
72
0
INSERT
100
AcDbEntity
100
AcDbBlockReference
8
FAHRBAHNRANDOK
5
47D
2
KREISKL
10
3399322.100000
20
5275430.895000
30
291.081000
41
0.500000
42
0.500000
43
1.000000
50
0.090000
0
LINE
100
AcDbEntity
100
AcDbLine
8
FAHRBAHNRANDOK
5
47E
10
3399322.100000
20
5275431.145000
30
291.081000
11
3399322.195000
21
5275439.155000
31
291.081000
62
72
0
INSERT
100
AcDbEntity
100
AcDbBlockReference
8
FAHRBAHNRANDOK
5
47F
2
KREISKL
10
3399322.195000
20
5275439.405000
30
291.190000
41
0.500000
42
0.500000
43
1.000000
50
358.560000
0
LINE
100
AcDbEntity
100
AcDbLine
8
FAHRBAHNRANDOK
5
480
10
3399322.205000
20
5275439.655000
30
0.000000
11
3399322.425000
21
5275445.030000
31
0.000000
62
72
0
INSERT
100
AcDbEntity
100
AcDbBlockReference
8
FAHRBAHNRANDOK
5
481
2
KREISKL
10
3399322.435000
20
5275445.280000
30
291.260000
41
0.500000
42
0.500000
43
1.000000
50
356.940000
0
LINE
100
AcDbEntity
100
AcDbLine
8
FAHRBAHNRANDOK
5
482
10
3399322.450000
20
5275445.530000
30
0.000000
11
3399322.505000
21
5275446.340000
31
0.000000
62
72
0
INSERT
100
AcDbEntity
100
AcDbBlockReference
8
FAHRBAHNRANDOK
5
483
2
KREISKL
10
3399322.525000
20
5275446.585000
30
291.195000
41
0.500000
42
0.500000
43
1.000000
50
355.950000
0
LINE
100
AcDbEntity
100
AcDbLine
8
FAHRBAHNRANDOK
5
484
10
3399322.540000
20
5275446.835000
30
0.000000
11
3399322.800000
21
5275450.295000
31
0.000000
62
72
0
INSERT
100
AcDbEntity
100
AcDbBlockReference
8
FAHRBAHNRANDOK
5
485
2
KREISKL
10
3399322.820000
20
5275450.540000
30
291.230000
41
0.500000
42
0.500000
43
1.000000
50
355.050000
0
LINE
100
AcDbEntity
100
AcDbLine
8
FAHRBAHNRANDOK
5
486
10
3399322.845000
20
5275450.790000
30
0.000000
11
3399322.920000
21
5275451.575000
31
0.000000
62
72
0
INSERT
100
AcDbEntity
100
AcDbBlockReference
8
FAHRBAHNRANDOK
5
487
2
KREISKL
10
3399322.945000
20
5275451.825000
30
291.327000
41
0.500000
42
0.500000
43
1.000000
50
354.240000
0
LINE
100
AcDbEntity
100
AcDbLine
8
FAHRBAHNRANDOK
5
488
10
3399322.975000
20
5275452.070000
30
0.000000
11
3399323.535000
21
5275457.455000
31
0.000000
62
72
0
INSERT
100
AcDbEntity
100
AcDbBlockReference
8
FAHRBAHNRANDOK
5
489
2
KREISKL
10
3399323.565000
20
5275457.705000
30
291.373000
41
0.500000
42
0.500000
43
1.000000
50
352.800000
0
LINE
100
AcDbEntity
100
AcDbLine
8
FAHRBAHNRANDOK
5
48A
10
3399323.600000
20
5275457.950000
30
0.000000
11
3399324.390000
21
5275463.225000
31
0.000000
62
72
0
INSERT
100
AcDbEntity
100
AcDbBlockReference
8
FAHRBAHNRANDOK
5
48B
2
KREISKL
10
3399324.425000
20
5275463.470000
30
291.432000
41
0.500000
42
0.500000
43
1.000000
50
350.280000
0
INSERT
100
AcDbEntity
100
AcDbBlockReference
8
FAHRBAHNRANDOK
5
48C
2
KREISKL
10
3399332.785000
20
5275467.360000
30
291.496000
41
0.500000
42
0.500000
43
1.000000
50
168.750000
0
LINE
100
AcDbEntity
100
AcDbLine
8
FAHRBAHNRANDOK
5
48D
10
3399332.745000
20
5275467.115000
30
0.000000
11
3399331.595000
21
5275460.770000
31
0.000000
62
72
0
INSERT
100
AcDbEntity
100
AcDbBlockReference
8
FAHRBAHNRANDOK
5
48E
2
KREISKL
10
3399331.550000
20
5275460.520000
30
291.432000
41
0.500000
42
0.500000
43
1.000000
50
171.630000
0
LINE
100
AcDbEntity
100
AcDbLine
8
FAHRBAHNRANDOK
5
48F
10
3399331.520000
20
5275460.275000
30
0.000000
11
3399330.965000
21
5275455.435000
31
0.000000
62
72
0
INSERT
100
AcDbEntity
100
AcDbBlockReference
8
FAHRBAHNRANDOK
5
490
2
KREISKL
10
3399330.935000
20
5275455.185000
30
291.368000
41
0.500000
42
0.500000
43
1.000000
50
173.970000
0
LINE
100
AcDbEntity
100
AcDbLine
8
FAHRBAHNRANDOK
5
491
10
3399330.910000
20
5275454.935000
30
0.000000
11
3399330.825000
21
5275454.025000
31
0.000000
62
72
0
INSERT
100
AcDbEntity
100
AcDbBlockReference
8
FAHRBAHNRANDOK
5
492
2
KREISKL
10
3399330.800000
20
5275453.775000
30
291.272000
41
0.500000
42
0.500000
43
1.000000
50
175.230000
0
LINE
100
AcDbEntity
100
AcDbLine
8
FAHRBAHNRANDOK
5
493
10
3399330.780000
20
5275453.530000
30
0.000000
11
3399330.590000
21
5275450.725000
31
0.000000
62
72
0
INSERT
100
AcDbEntity
100
AcDbBlockReference
8
FAHRBAHNRANDOK
5
494
2
KREISKL
10
3399330.570000
20
5275450.480000
30
291.236000
41
0.500000
42
0.500000
43
1.000000
50
176.580000
0
LINE
100
AcDbEntity
100
AcDbLine
8
FAHRBAHNRANDOK
5
495
10
3399330.560000
20
5275450.230000
30
0.000000
11
3399330.510000
21
5275449.345000
31
0.000000
62
72
0
INSERT
100
AcDbEntity
100
AcDbBlockReference
8
FAHRBAHNRANDOK
5
496
2
KREISKL
10
3399330.500000
20
5275449.095000
30
291.298000
41
0.500000
42
0.500000
43
1.000000
50
177.750000
0
LINE
100
AcDbEntity
100
AcDbLine
8
FAHRBAHNRANDOK
5
497
10
3399330.490000
20
5275448.845000
30
0.000000
11
3399330.375000
21
5275444.525000
31
0.000000
62
72
0
INSERT
100
AcDbEntity
100
AcDbBlockReference
8
FAHRBAHNRANDOK
5
498
2
KREISKL
10
3399330.370000
20
5275444.275000
30
291.241000
41
0.500000
42
0.500000
43
1.000000
50
179.100000
0
LINE
100
AcDbEntity
100
AcDbLine
8
FAHRBAHNRANDOK
5
499
10
3399330.370000
20
5275444.025000
30
0.000000
11
3399330.340000
21
5275438.210000
31
0.000000
62
72
0
INSERT
100
AcDbEntity
100
AcDbBlockReference
8
FAHRBAHNRANDOK
5
49A
2
KREISKL
10
3399330.340000
20
5275437.960000
30
291.164000
41
0.500000
42
0.500000
43
1.000000
50
180.180000
0
LINE
100
AcDbEntity
100
AcDbLine
8
FAHRBAHNRANDOK
5
49B
10
3399330.340000
20
5275437.710000
30
0.000000
11
3399330.400000
21
5275432.140000
31
0.000000
62
72
0
INSERT
100
AcDbEntity
100
AcDbBlockReference
8
FAHRBAHNRANDOK
5
49C
2
KREISKL
10
3399330.400000
20
5275431.890000
30
291.087000
41
0.500000
42
0.500000
43
1.000000
50
180.540000
0
LINE
100
AcDbEntity
100
AcDbLine
8
FAHRBAHNRANDOK
5
49D
10
3399330.405000
20
5275431.640000
30
0.000000
11
3399330.440000
21
5275425.430000
31
0.000000
62
72
0
INSERT
100
AcDbEntity
100
AcDbBlockReference
8
FAHRBAHNRANDOK
5
49E
2
KREISKL
10
3399330.445000
20
5275425.180000
30
291.017000
41
0.500000
42
0.500000
43
1.000000
50
181.260000
0
LINE
100
AcDbEntity
100
AcDbLine
8
FAHRBAHNRANDOK
5
49F
10
3399330.455000
20
5275424.930000
30
0.000000
11
3399330.475000
21
5275424.350000
31
0.000000
62
72
0
INSERT
100
AcDbEntity
100
AcDbBlockReference
8
FAHRBAHNRANDOK
5
4A0
2
KREISKL
10
3399330.480000
20
5275424.100000
30
290.929000
41
0.500000
42
0.500000
43
1.000000
50
181.260000
0
LINE
100
AcDbEntity
100
AcDbLine
8
FAHRBAHNRANDOK
5
4A1
10
3399330.485000
20
5275423.850000
30
0.000000
11
3399330.495000
21
5275421.820000
31
0.000000
62
72
0
INSERT
100
AcDbEntity
100
AcDbBlockReference
8
FAHRBAHNRANDOK
5
4A2
2
KREISKL
10
3399330.500000
20
5275421.570000
30
290.903000
41
0.500000
42
0.500000
43
1.000000
50
180.630000
0
LINE
100
AcDbEntity
100
AcDbLine
8
FAHRBAHNRANDOK
5
4A3
10
3399330.500000
20
5275421.320000
30
0.000000
11
3399330.515000
21
5275420.445000
31
0.000000
62
72
0
INSERT
100
AcDbEntity
100
AcDbBlockReference
8
FAHRBAHNRANDOK
5
4A4
2
KREISKL
10
3399330.515000
20
5275420.195000
30
290.971000
41
0.500000
42
0.500000
43
1.000000
50
180.720000
0
LINE
100
AcDbEntity
100
AcDbLine
8
FAHRBAHNRANDOK
5
4A5
10
3399330.520000
20
5275419.945000
30
0.000000
11
3399330.615000
21
5275411.650000
31
0.000000
62
72
0
INSERT
100
AcDbEntity
100
AcDbBlockReference
8
FAHRBAHNRANDOK
5
4A6
2
KREISKL
10
3399330.615000
20
5275411.400000
30
290.874000
41
0.500000
42
0.500000
43
1.000000
50
180.630000
0
INSERT
100
AcDbEntity
100
AcDbBlockReference
8
FAHRBAHNRANDOK
5
4A7
2
KREISKL
10
3399333.640000
20
5275453.770000
30
0.000000
41
0.500000
42
0.500000
43
1.000000
50
0.000000
0
INSERT
100
AcDbEntity
100
AcDbBlockReference
8
FAHRBAHNRANDOK
5
4A8
2
KREISKL
10
3399333.655000
20
5275453.090000
30
291.412000
41
0.500000
42
0.500000
43
1.000000
50
0.000000
0
INSERT
100
AcDbEntity
100
AcDbBlockReference
8
FAHRBAHNRANDOK
5
4A9
2
KREISKL
10
3399333.500000
20
5275450.280000
30
291.406000
41
0.500000
42
0.500000
43
1.000000
50
0.000000
0
INSERT
100
AcDbEntity
100
AcDbBlockReference
8
FAHRBAHNRANDOK
5
4AA
2
KREISKL
10
3399332.640000
20
5275423.945000
30
291.057000
41
0.500000
42
0.500000
43
1.000000
50
0.000000
0
INSERT
100
AcDbEntity
100
AcDbBlockReference
8
FAHRBAHNRANDOK
5
4AB
2
KREISKL
10
3399332.670000
20
5275421.910000
30
291.051000
41
0.500000
42
0.500000
43
1.000000
50
0.000000
0
INSERT
100
AcDbEntity
100
AcDbBlockReference
8
FAHRBAHNRANDOK
5
4AC
2
KREISKL
10
3399332.575000
20
5275417.645000
30
0.000000
41
0.500000
42
0.500000
43
1.000000
50
0.000000
0
INSERT
100
AcDbEntity
100
AcDbBlockReference
8
FAHRBAHNRANDOK
5
4AD
2
KREISKL
10
3399333.190000
20
5275417.590000
30
0.000000
41
0.500000
42
0.500000
43
1.000000
50
0.000000
0
INSERT
100
AcDbEntity
100
AcDbBlockReference
8
FAHRBAHNRANDOK
5
4AE
2
KREISKL
10
3399333.210000
20
5275402.150000
30
0.000000
41
0.500000
42
0.500000
43
1.000000
50
0.180000
0
INSERT
100
AcDbEntity
100
AcDbBlockReference
8
FAHRBAHNRANDOK
5
4AF
2
KREISKL
10
3399333.250000
20
5275401.160000
30
0.000000
41
0.500000
42
0.500000
43
1.000000
50
0.000000
0
INSERT
100
AcDbEntity
100
AcDbBlockReference
8
FAHRBAHNRANDOK
5
4B0
2
KREISKL
10
3399332.800000
20
5275401.135000
30
0.000000
41
0.500000
42
0.500000
43
1.000000
50
0.000000
0
INSERT
100
AcDbEntity
100
AcDbBlockReference
8
FAHRBAHNRANDOK
5
4B1
2
KREISKL
10
3399313.750000
20
5275424.510000
30
0.000000
41
0.500000
42
0.500000
43
1.000000
50
0.000000
0
INSERT
100
AcDbEntity
100
AcDbBlockReference
8
FAHRBAHNRANDOK
5
4B2
2
KREISKL
10
3399316.620000
20
5275424.455000
30
0.000000
41
0.500000
42
0.500000
43
1.000000
50
0.000000
0
INSERT
100
AcDbEntity
100
AcDbBlockReference
8
FAHRBAHNRANDOK
5
4B3
2
KREISKL
10
3399316.510000
20
5275445.950000
30
0.000000
41
0.500000
42
0.500000
43
1.000000
50
0.000000
0
INSERT
100
AcDbEntity
100
AcDbBlockReference
8
FAHRBAHNRANDOK
5
4B4
2
KREISKL
10
3399320.180000
20
5275450.120000
30
291.390000
41
0.500000
42
0.500000
43
1.000000
50
0.000000
0
INSERT
100
AcDbEntity
100
AcDbBlockReference
8
FAHRBAHNRANDOK
5
4B5
2
KREISKL
10
3399320.195000
20
5275458.160000
30
0.000000
41
0.500000
42
0.500000
43
1.000000
50
0.000000
0
INSERT
100
AcDbEntity
100
AcDbBlockReference
8
FAHRBAHNRANDOK
5
4B6
2
KREISKL
10
3399321.110000
20
5275439.240000
30
291.241000
41
0.500000
42
0.500000
43
1.000000
50
0.000000
0
INSERT
100
AcDbEntity
100
AcDbBlockReference
8
FAHRBAHNRANDOK
5
4B7
2
KREISKL
10
3399320.525000
20
5275438.700000
30
291.228000
41
0.500000
42
0.500000
43
1.000000
50
0.000000
0
INSERT
100
AcDbEntity
100
AcDbBlockReference
8
FAHRBAHNRANDOK
5
4B8
2
KREISKL
10
3399320.205000
20
5275437.585000
30
291.212000
41
0.500000
42
0.500000
43
1.000000
50
0.000000
0
INSERT
100
AcDbEntity
100
AcDbBlockReference
8
FAHRBAHNRANDOK
5
4B9
2
KREISKL
10
3399320.115000
20
5275436.180000
30
291.184000
41
0.500000
42
0.500000
43
1.000000
50
0.000000
0
INSERT
100
AcDbEntity
100
AcDbBlockReference
8
FAHRBAHNRANDOK
5
4BA
2
KREISKL
10
3399320.085000
20
5275424.665000
30
290.983000
41
0.500000
42
0.500000
43
1.000000
50
0.000000
0
INSERT
100
AcDbEntity
100
AcDbBlockReference
8
FAHRBAHNRANDOK
5
4BB
2
KREISKL
10
3399319.950000
20
5275423.520000
30
290.971000
41
0.500000
42
0.500000
43
1.000000
50
0.000000
0
INSERT
100
AcDbEntity
100
AcDbBlockReference
8
FAHRBAHNRANDOK
5
4BC
2
KREISKL
10
3399319.605000
20
5275422.520000
30
290.965000
41
0.500000
42
0.500000
43
1.000000
50
0.000000
0
INSERT
100
AcDbEntity
100
AcDbBlockReference
8
FAHRBAHNRANDOK
5
4BD
2
KREISKL
10
3399317.680000
20
5275417.145000
30
290.870000
41
0.500000
42
0.500000
43
1.000000
50
0.000000
0
INSERT
100
AcDbEntity
100
AcDbBlockReference
8
FAHRBAHNRANDOK
5
4BE
2
KREISKL
10
3399317.180000
20
5275415.160000
30
290.866000
41
0.500000
42
0.500000
43
1.000000
50
0.000000
0
INSERT
100
AcDbEntity
100
AcDbBlockReference
8
FAHRBAHNRANDOK
5
4BF
2
KREISKL
10
3399317.055000
20
5275413.115000
30
290.897000
41
0.500000
42
0.500000
43
1.000000
50
0.000000
0
INSERT
100
AcDbEntity
100
AcDbBlockReference
8
FAHRBAHNRANDOK
5
4C0
2
KREISKL
10
3399320.005000
20
5275445.995000
30
291.330000
41
0.500000
42
0.500000
43
1.000000
50
0.000000
0
INSERT
100
AcDbEntity
100
AcDbBlockReference
8
LAMPE
5
4C1
2
UNBEKA
10
3399299.980000
20
5275372.260000
30
290.906000
41
2.500000
42
2.500000
43
1.000000
50
0.000000
0
INSERT
100
AcDbEntity
100
AcDbBlockReference
8
LAMPE
5
4C2
2
UNBEKA
10
3399271.665000
20
5275381.235000
30
291.946000
41
2.500000
42
2.500000
43
1.000000
50
0.000000
0
INSERT
100
AcDbEntity
100
AcDbBlockReference
8
LAMPE
5
4C3
2
UNBEKA
10
3399262.645000
20
5275399.245000
30
291.329000
41
2.500000
42
2.500000
43
1.000000
50
0.000000
0
INSERT
100
AcDbEntity
100
AcDbBlockReference
8
LAMPE
5
4C4
2
UNBEKA
10
3399366.035000
20
5275369.140000
30
291.566000
41
2.500000
42
2.500000
43
1.000000
50
0.000000
0
INSERT
100
AcDbEntity
100
AcDbBlockReference
8
LAMPE
5
4C5
2
UNBEKA
10
3399395.840000
20
5275368.915000
30
292.232000
41
2.500000
42
2.500000
43
1.000000
50
0.000000
0
INSERT
100
AcDbEntity
100
AcDbBlockReference
8
LAMPE
5
4C6
2
UNBEKA
10
3399381.055000
20
5275389.450000
30
292.290000
41
2.500000
42
2.500000
43
1.000000
50
0.000000
0
INSERT
100
AcDbEntity
100
AcDbBlockReference
8
LAMPE
5
4C7
2
UNBEKA
10
3399331.325000
20
5275370.925000
30
290.833000
41
2.500000
42
2.500000
43
1.000000
50
0.000000
0
INSERT
100
AcDbEntity
100
AcDbBlockReference
8
LAMPE
5
4C8
2
UNBEKA
10
3399290.640000
20
5275453.020000
30
292.267000
41
2.500000
42
2.500000
43
1.000000
50
0.000000
0
LINE
100
AcDbEntity
100
AcDbLine
8
STELLKANTEPFLASTERFLAE
5
4C9
10
3399313.750000
20
5275447.010000
30
291.557000
11
3399313.750000
21
5275446.955000
31
291.557000
62
72
0
INSERT
100
AcDbEntity
100
AcDbBlockReference
8
STELLKANTEPFLASTERFLAE
5
4CA
2
GRENZPUNKT
10
3399313.750000
20
5275446.705000
30
291.570000
41
0.500000
42
0.500000
43
1.000000
50
0.000000
0
LINE
100
AcDbEntity
100
AcDbLine
8
STELLKANTEPFLASTERFLAE
5
4CB
10
3399314.000000
20
5275446.700000
30
291.570000
11
3399314.910000
21
5275446.690000
31
291.570000
62
72
0
INSERT
100
AcDbEntity
100
AcDbBlockReference
8
STELLKANTEPFLASTERFLAE
5
4CC
2
GRENZPUNKT
10
3399315.160000
20
5275446.685000
30
291.545000
41
0.500000
42
0.500000
43
1.000000
50
0.000000
0
LINE
100
AcDbEntity
100
AcDbLine
8
STELLKANTEPFLASTERFLAE
5
4CD
10
3399315.175000
20
5275446.435000
30
291.545000
11
3399315.185000
21
5275446.280000
31
291.545000
62
72
0
INSERT
100
AcDbEntity
100
AcDbBlockReference
8
STELLKANTEPFLASTERFLAE
5
4CE
2
GRENZPUNKT
10
3399315.200000
20
5275446.030000
30
291.577000
41
0.500000
42
0.500000
43
1.000000
50
0.000000
0
LINE
100
AcDbEntity
100
AcDbLine
8
GEHWEGKANTE
5
4CF
10
3399295.390000
20
5275384.830000
30
290.584000
11
3399289.515000
21
5275387.625000
31
290.584000
62
72
0
LINE
100
AcDbEntity
100
AcDbLine
8
GEHWEGKANTE
5
4D0
10
3399300.650000
20
5275382.965000
30
0.000000
11
3399295.850000
21
5275384.640000
31
0.000000
62
72
0
LINE
100
AcDbEntity
100
AcDbLine
8
GEHWEGKANTE
5
4D1
10
3399298.760000
20
5275360.630000
30
290.692000
11
3399302.505000
21
5275355.940000
31
290.692000
62
72
0
LINE
100
AcDbEntity
100
AcDbLine
8
GEHWEGKANTE
5
4D2
10
3399295.560000
20
5275364.135000
30
0.000000
11
3399298.435000
21
5275361.010000
31
0.000000
62
72
0
LINE
100
AcDbEntity
100
AcDbLine
8
GEHWEGKANTE
5
4D3
10
3399292.580000
20
5275367.195000
30
290.730000
11
3399295.215000
21
5275364.500000
31
290.730000
62
72
0
LINE
100
AcDbEntity
100
AcDbLine
8
GEHWEGKANTE
5
4D4
10
3399291.920000
20
5275367.875000
30
290.782000
11
3399292.230000
21
5275367.555000
31
290.782000
62
72
0
LINE
100
AcDbEntity
100
AcDbLine
8
GEHWEGKANTE
5
4D5
10
3399278.600000
20
5275395.880000
30
290.822000
11
3399273.640000
21
5275401.900000
31
290.822000
62
72
0
LINE
100
AcDbEntity
100
AcDbLine
8
GEHWEGKANTE
5
4D6
10
3399283.195000
20
5275391.700000
30
0.000000
11
3399278.945000
21
5275395.520000
31
0.000000
62
72
0
LINE
100
AcDbEntity
100
AcDbLine
8
GEHWEGKANTE
5
4D7
10
3399289.080000
20
5275387.865000
30
290.717000
11
3399283.590000
21
5275391.395000
31
290.717000
62
72
0
LINE
100
AcDbEntity
100
AcDbLine
8
GEHWEGKANTE
5
4D8
10
3399280.285000
20
5275397.275000
30
290.915000
11
3399282.610000
21
5275395.200000
31
290.915000
62
72
0
LINE
100
AcDbEntity
100
AcDbLine
8
GEHWEGKANTE
5
4D9
10
3399277.480000
20
5275400.260000
30
0.000000
11
3399279.930000
21
5275397.625000
31
0.000000
62
72
0
LINE
100
AcDbEntity
100
AcDbLine
8
GEHWEGKANTE
5
4DA
10
3399282.995000
20
5275394.875000
30
290.858000
11
3399285.610000
21
5275392.770000
31
290.858000
62
72
0
LINE
100
AcDbEntity
100
AcDbLine
8
GEHWEGKANTE
5
4DB
10
3399286.010000
20
5275392.475000
30
290.803000
11
3399288.350000
21
5275390.890000
31
290.803000
62
72
0
LINE
100
AcDbEntity
100
AcDbLine
8
GEHWEGKANTE
5
4DC
10
3399288.775000
20
5275390.630000
30
290.765000
11
3399291.965000
21
5275388.825000
31
290.765000
62
72
0
LINE
100
AcDbEntity
100
AcDbLine
8
GEHWEGKANTE
5
4DD
10
3399292.410000
20
5275388.595000
30
290.708000
11
3399294.595000
21
5275387.565000
31
290.708000
62
72
0
LINE
100
AcDbEntity
100
AcDbLine
8
GEHWEGKANTE
5
4DE
10
3399295.055000
20
5275387.370000
30
290.716000
11
3399298.480000
21
5275386.070000
31
290.716000
62
72
0
LINE
100
AcDbEntity
100
AcDbLine
8
GEHWEGKANTE
5
4DF
10
3399298.955000
20
5275385.905000
30
290.682000
11
3399301.660000
21
5275385.055000
31
290.682000
62
72
0
LINE
100
AcDbEntity
100
AcDbLine
8
GEHWEGKANTE
5
4E0
10
3399299.390000
20
5275356.110000
30
290.757000
11
3399296.075000
21
5275360.070000
31
290.757000
62
72
0
LINE
100
AcDbEntity
100
AcDbLine
8
GEHWEGKANTE
5
4E1
10
3399295.745000
20
5275360.445000
30
290.802000
11
3399292.900000
21
5275363.490000
31
290.802000
62
72
0
LINE
100
AcDbEntity
100
AcDbLine
8
GEHWEGKANTE
5
4E2
10
3399292.550000
20
5275363.850000
30
290.846000
11
3399290.805000
21
5275365.585000
31
290.846000
62
72
0
LINE
100
AcDbEntity
100
AcDbLine
8
GEHWEGKANTE
5
4E3
10
3399290.440000
20
5275365.920000
30
290.880000
11
3399289.465000
21
5275366.760000
31
290.880000
62
72
0
LINE
100
AcDbEntity
100
AcDbLine
8
GEHWEGKANTE
5
4E4
10
3399289.070000
20
5275367.060000
30
290.901000
11
3399287.390000
21
5275368.155000
31
290.901000
62
72
0
LINE
100
AcDbEntity
100
AcDbLine
8
GEHWEGKANTE
5
4E5
10
3399286.970000
20
5275368.430000
30
290.935000
11
3399282.735000
21
5275371.195000
31
290.935000
62
72
0
LINE
100
AcDbEntity
100
AcDbLine
8
GEHWEGKANTE
5
4E6
10
3399282.320000
20
5275371.470000
30
290.999000
11
3399279.030000
21
5275373.680000
31
290.999000
62
72
0
LINE
100
AcDbEntity
100
AcDbLine
8
GEHWEGKANTE
5
4E7
10
3399278.640000
20
5275373.990000
30
291.076000
11
3399277.450000
21
5275375.085000
31
291.076000
62
72
0
LINE
100
AcDbEntity
100
AcDbLine
8
GEHWEGKANTE
5
4E8
10
3399277.095000
20
5275375.430000
30
291.105000
11
3399272.990000
21
5275379.650000
31
291.105000
62
72
0
LINE
100
AcDbEntity
100
AcDbLine
8
GEHWEGKANTE
5
4E9
10
3399272.640000
20
5275380.010000
30
291.152000
11
3399268.715000
21
5275384.080000
31
291.152000
62
72
0
LINE
100
AcDbEntity
100
AcDbLine
8
GEHWEGKANTE
5
4EA
10
3399268.355000
20
5275384.430000
30
291.234000
11
3399266.310000
21
5275386.255000
31
291.234000
62
72
0
LINE
100
AcDbEntity
100
AcDbLine
8
GEHWEGKANTE
5
4EB
10
3399265.915000
20
5275386.560000
30
291.249000
11
3399262.715000
21
5275388.670000
31
291.249000
62
72
0
LINE
100
AcDbEntity
100
AcDbLine
8
GEHWEGKANTE
5
4EC
10
3399259.665000
20
5275391.085000
30
290.868000
11
3399261.180000
21
5275391.485000
31
290.868000
62
72
0
LINE
100
AcDbEntity
100
AcDbLine
8
GEHWEGKANTE
5
4ED
10
3399261.670000
20
5275391.520000
30
290.979000
11
3399262.215000
21
5275391.465000
31
290.979000
62
72
0
LINE
100
AcDbEntity
100
AcDbLine
8
GEHWEGKANTE
5
4EE
10
3399262.685000
20
5275391.330000
30
291.095000
11
3399264.700000
21
5275390.335000
31
291.095000
62
72
0
LINE
100
AcDbEntity
100
AcDbLine
8
GEHWEGKANTE
5
4EF
10
3399265.125000
20
5275390.070000
30
291.166000
11
3399267.995000
21
5275387.895000
31
291.166000
62
72
0
LINE
100
AcDbEntity
100
AcDbLine
8
GEHWEGKANTE
5
4F0
10
3399268.380000
20
5275387.575000
30
291.158000
11
3399270.470000
21
5275385.660000
31
291.158000
62
72
0
LINE
100
AcDbEntity
100
AcDbLine
8
GEHWEGKANTE
5
4F1
10
3399270.830000
20
5275385.310000
30
291.143000
11
3399273.260000
21
5275382.760000
31
291.143000
62
72
0
LINE
100
AcDbEntity
100
AcDbLine
8
GEHWEGKANTE
5
4F2
10
3399273.610000
20
5275382.400000
30
291.078000
11
3399277.810000
21
5275378.095000
31
291.078000
62
72
0
LINE
100
AcDbEntity
100
AcDbLine
8
GEHWEGKANTE
5
4F3
10
3399278.165000
20
5275377.740000
30
291.010000
11
3399279.610000
21
5275376.305000
31
291.010000
62
72
0
LINE
100
AcDbEntity
100
AcDbLine
8
GEHWEGKANTE
5
4F4
10
3399279.985000
20
5275375.975000
30
290.980000
11
3399280.925000
21
5275375.245000
31
290.980000
62
72
0
LINE
100
AcDbEntity
100
AcDbLine
8
GEHWEGKANTE
5
4F5
10
3399281.330000
20
5275374.950000
30
290.961000
11
3399285.095000
21
5275372.475000
31
290.961000
62
72
0
LINE
100
AcDbEntity
100
AcDbLine
8
GEHWEGKANTE
5
4F6
10
3399285.515000
20
5275372.200000
30
290.883000
11
3399288.730000
21
5275370.080000
31
290.883000
62
72
0
LINE
100
AcDbEntity
100
AcDbLine
8
GEHWEGKANTE
5
4F7
10
3399289.150000
20
5275369.800000
30
290.828000
11
3399291.260000
21
5275368.385000
31
290.828000
62
72
0
INSERT
100
AcDbEntity
100
AcDbBlockReference
8
GEHWEGKANTE
5
4F8
2
PFEIL
10
3399294.000000
20
5275389.230000
30
0.121000
41
0.500000
42
0.500000
43
1.000000
50
154.890000
0
LINE
100
AcDbEntity
100
AcDbLine
8
GEHWEGKANTE
5
4F9
10
3399330.130000
20
5275385.810000
30
290.739000
11
3399330.235000
21
5275387.285000
31
290.739000
62
72
0
LINE
100
AcDbEntity
100
AcDbLine
8
GEHWEGKANTE
5
4FA
10
3399330.160000
20
5275384.970000
30
0.000000
11
3399330.135000
21
5275385.310000
31
0.000000
62
72
0
LINE
100
AcDbEntity
100
AcDbLine
8
GEHWEGKANTE
5
4FB
10
3399302.805000
20
5275355.540000
30
290.559000
11
3399303.120000
21
5275355.115000
31
290.559000
62
72
0
LINE
100
AcDbEntity
100
AcDbLine
8
GEHWEGKANTE
5
4FC
10
3399304.300000
20
5275382.055000
30
290.563000
11
3399301.130000
21
5275382.825000
31
290.563000
62
72
0
LINE
100
AcDbEntity
100
AcDbLine
8
GEHWEGKANTE
5
4FD
10
3399307.855000
20
5275381.440000
30
290.548000
11
3399304.790000
21
5275381.955000
31
290.548000
62
72
0
LINE
100
AcDbEntity
100
AcDbLine
8
GEHWEGKANTE
5
4FE
10
3399311.030000
20
5275381.275000
30
290.565000
11
3399308.350000
21
5275381.385000
31
290.565000
62
72
0
LINE
100
AcDbEntity
100
AcDbLine
8
GEHWEGKANTE
5
4FF
10
3399311.905000
20
5275381.330000
30
290.589000
11
3399311.530000
21
5275381.290000
31
290.589000
62
72
0
LINE
100
AcDbEntity
100
AcDbLine
8
GEHWEGKANTE
5
500
10
3399314.150000
20
5275381.855000
30
290.520000
11
3399312.395000
21
5275381.415000
31
290.520000
62
72
0
LINE
100
AcDbEntity
100
AcDbLine
8
GEHWEGKANTE
5
501
10
3399316.855000
20
5275383.220000
30
290.551000
11
3399314.615000
21
5275382.030000
31
290.551000
62
72
0
LINE
100
AcDbEntity
100
AcDbLine
8
GEHWEGKANTE
5
502
10
3399319.370000
20
5275385.340000
30
290.581000
11
3399317.265000
21
5275383.500000
31
290.581000
62
72
0
LINE
100
AcDbEntity
100
AcDbLine
8
GEHWEGKANTE
5
503
10
3399320.625000
20
5275386.925000
30
290.628000
11
3399319.705000
21
5275385.700000
31
290.628000
62
72
0
LINE
100
AcDbEntity
100
AcDbLine
8
GEHWEGKANTE
5
504
10
3399321.515000
20
5275388.515000
30
290.663000
11
3399320.890000
21
5275387.345000
31
290.663000
62
72
0
LINE
100
AcDbEntity
100
AcDbLine
8
GEHWEGKANTE
5
505
10
3399322.035000
20
5275389.785000
30
290.677000
11
3399321.725000
21
5275388.970000
31
290.677000
62
72
0
LINE
100
AcDbEntity
100
AcDbLine
8
GEHWEGKANTE
5
506
10
3399322.190000
20
5275390.260000
30
290.757000
11
3399322.355000
21
5275390.885000
31
290.757000
62
72
0
LINE
100
AcDbEntity
100
AcDbLine
8
GEHWEGKANTE
5
507
10
3399320.420000
20
5275390.875000
30
0.000000
11
3399321.900000
21
5275390.130000
31
0.000000
62
72
0
LINE
100
AcDbEntity
100
AcDbLine
8
GEHWEGKANTE
5
508
10
3399302.140000
20
5275384.925000
30
290.672000
11
3399305.000000
21
5275384.280000
31
290.672000
62
72
0
LINE
100
AcDbEntity
100
AcDbLine
8
GEHWEGKANTE
5
509
10
3399305.495000
20
5275384.205000
30
290.671000
11
3399307.865000
21
5275383.995000
31
290.671000
62
72
0
LINE
100
AcDbEntity
100
AcDbLine
8
GEHWEGKANTE
5
50A
10
3399308.360000
20
5275384.005000
30
290.684000
11
3399310.390000
21
5275384.275000
31
290.684000
62
72
0
LINE
100
AcDbEntity
100
AcDbLine
8
GEHWEGKANTE
5
50B
10
3399310.840000
20
5275384.460000
30
290.706000
11
3399312.635000
21
5275385.780000
31
290.706000
62
72
0
LINE
100
AcDbEntity
100
AcDbLine
8
GEHWEGKANTE
5
50C
10
3399312.865000
20
5275386.175000
30
290.733000
11
3399313.805000
21
5275394.385000
31
290.733000
62
72
0
LINE
100
AcDbEntity
100
AcDbLine
8
GEHWEGKANTE
5
50D
10
3399330.730000
20
5275400.230000
30
290.783000
11
3399330.620000
21
5275411.150000
31
290.783000
62
72
0
LINE
100
AcDbEntity
100
AcDbLine
8
GEHWEGKANTE
5
50E
10
3399330.725000
20
5275398.720000
30
0.000000
11
3399330.730000
21
5275399.730000
31
0.000000
62
72
0
LINE
100
AcDbEntity
100
AcDbLine
8
GEHWEGKANTE
5
50F
10
3399330.625000
20
5275394.725000
30
290.782000
11
3399330.715000
21
5275398.220000
31
290.782000
62
72
0
LINE
100
AcDbEntity
100
AcDbLine
8
GEHWEGKANTE
5
510
10
3399330.425000
20
5275390.030000
30
290.781000
11
3399330.605000
21
5275394.225000
31
290.781000
62
72
0
LINE
100
AcDbEntity
100
AcDbLine
8
GEHWEGKANTE
5
511
10
3399330.360000
20
5275389.085000
30
290.789000
11
3399330.395000
21
5275389.530000
31
290.789000
62
72
0
LINE
100
AcDbEntity
100
AcDbLine
8
GEHWEGKANTE
5
512
10
3399330.270000
20
5275387.780000
30
290.719000
11
3399330.325000
21
5275388.590000
31
290.719000
62
72
0
LINE
100
AcDbEntity
100
AcDbLine
8
GEHWEGKANTE
5
513
10
3399332.805000
20
5275400.885000
30
290.765000
11
3399333.130000
21
5275384.475000
31
290.765000
62
72
0
LINE
100
AcDbEntity
100
AcDbLine
8
GEHWEGKANTE
5
514
10
3399313.835000
20
5275394.885000
30
290.638000
11
3399313.755000
21
5275424.260000
31
290.638000
62
72
0
LINE
100
AcDbEntity
100
AcDbLine
8
GEHWEGKANTE
5
515
10
3399317.165000
20
5275397.615000
30
290.804000
11
3399317.285000
21
5275396.150000
31
290.804000
62
72
0
LINE
100
AcDbEntity
100
AcDbLine
8
GEHWEGKANTE
5
516
10
3399317.060000
20
5275412.865000
30
0.000000
11
3399317.145000
21
5275398.115000
31
0.000000
62
72
0
LINE
100
AcDbEntity
100
AcDbLine
8
GEHWEGKANTE
5
517
10
3399317.385000
20
5275395.665000
30
290.829000
11
3399317.835000
21
5275394.250000
31
290.829000
62
72
0
LINE
100
AcDbEntity
100
AcDbLine
8
GEHWEGKANTE
5
518
10
3399318.035000
20
5275393.790000
30
290.806000
11
3399318.770000
21
5275392.490000
31
290.806000
62
72
0
LINE
100
AcDbEntity
100
AcDbLine
8
GEHWEGKANTE
5
519
10
3399319.070000
20
5275392.095000
30
290.798000
11
3399320.015000
21
5275391.165000
31
290.798000
62
72
0
INSERT
100
AcDbEntity
100
AcDbBlockReference
8
GEHWEGKANTE
5
51A
2
PFEIL
10
3399339.320000
20
5275355.750000
30
0.112000
41
0.500000
42
0.500000
43
1.000000
50
45.270000
0
INSERT
100
AcDbEntity
100
AcDbBlockReference
8
GEHWEGKANTE
5
51B
2
PFEIL
10
3399387.290000
20
5275367.470000
30
0.112000
41
0.500000
42
0.500000
43
1.000000
50
357.570000
0
LINE
100
AcDbEntity
100
AcDbLine
8
GEHWEGKANTE
5
51C
10
3399273.345000
20
5275402.300000
30
291.108000
11
3399269.990000
21
5275407.505000
31
291.108000
62
72
0
LINE
100
AcDbEntity
100
AcDbLine
8
GEHWEGKANTE
5
51D
10
3399271.280000
20
5275409.350000
30
291.256000
11
3399271.990000
21
5275407.895000
31
291.256000
62
72
0
LINE
100
AcDbEntity
100
AcDbLine
8
GEHWEGKANTE
5
51E
10
3399273.210000
20
5275406.075000
30
291.144000
11
3399275.020000
21
5275403.425000
31
291.144000
62
72
0
LINE
100
AcDbEntity
100
AcDbLine
8
GEHWEGKANTE
5
51F
10
3399272.245000
20
5275407.465000
30
0.000000
11
3399272.925000
21
5275406.485000
31
0.000000
62
72
0
LINE
100
AcDbEntity
100
AcDbLine
8
GEHWEGKANTE
5
520
10
3399275.315000
20
5275403.020000
30
291.052000
11
3399277.160000
21
5275400.640000
31
291.052000
62
72
0
LINE
100
AcDbEntity
100
AcDbLine
8
GEHWEGKANTE
5
521
10
3399265.555000
20
5275468.945000
30
292.728000
11
3399271.895000
21
5275469.010000
31
292.728000
62
72
0
LINE
100
AcDbEntity
100
AcDbLine
8
GEHWEGKANTE
5
522
10
3399272.395000
20
5275469.015000
30
292.747000
11
3399278.910000
21
5275469.010000
31
292.747000
62
72
0
LINE
100
AcDbEntity
100
AcDbLine
8
GEHWEGKANTE
5
523
10
3399279.170000
20
5275468.760000
30
292.735000
11
3399279.175000
21
5275468.660000
31
292.735000
62
72
0
LINE
100
AcDbEntity
100
AcDbLine
8
GEHWEGKANTE
5
524
10
3399321.950000
20
5275439.365000
30
291.190000
11
3399321.355000
21
5275439.275000
31
291.190000
62
72
0
LINE
100
AcDbEntity
100
AcDbLine
8
GEHWEGKANTE
5
525
10
3399322.425000
20
5275445.030000
30
0.000000
11
3399322.205000
21
5275439.655000
31
0.000000
62
72
0
LINE
100
AcDbEntity
100
AcDbLine
8
GEHWEGKANTE
5
526
10
3399322.505000
20
5275446.340000
30
291.260000
11
3399322.450000
21
5275445.530000
31
291.260000
62
72
0
LINE
100
AcDbEntity
100
AcDbLine
8
GEHWEGKANTE
5
527
10
3399322.800000
20
5275450.295000
30
291.195000
11
3399322.540000
21
5275446.835000
31
291.195000
62
72
0
LINE
100
AcDbEntity
100
AcDbLine
8
GEHWEGKANTE
5
528
10
3399322.920000
20
5275451.575000
30
291.230000
11
3399322.845000
21
5275450.790000
31
291.230000
62
72
0
LINE
100
AcDbEntity
100
AcDbLine
8
GEHWEGKANTE
5
529
10
3399323.535000
20
5275457.455000
30
291.327000
11
3399322.975000
21
5275452.070000
31
291.327000
62
72
0
LINE
100
AcDbEntity
100
AcDbLine
8
GEHWEGKANTE
5
52A
10
3399324.390000
20
5275463.225000
30
291.373000
11
3399323.600000
21
5275457.950000
31
291.373000
62
72
0
LINE
100
AcDbEntity
100
AcDbLine
8
GEHWEGKANTE
5
52B
10
3399331.595000
20
5275460.770000
30
291.496000
11
3399332.745000
21
5275467.115000
31
291.496000
62
72
0
LINE
100
AcDbEntity
100
AcDbLine
8
GEHWEGKANTE
5
52C
10
3399330.965000
20
5275455.435000
30
291.432000
11
3399331.520000
21
5275460.275000
31
291.432000
62
72
0
LINE
100
AcDbEntity
100
AcDbLine
8
GEHWEGKANTE
5
52D
10
3399330.825000
20
5275454.025000
30
291.368000
11
3399330.910000
21
5275454.935000
31
291.368000
62
72
0
LINE
100
AcDbEntity
100
AcDbLine
8
GEHWEGKANTE
5
52E
10
3399330.590000
20
5275450.725000
30
291.272000
11
3399330.780000
21
5275453.530000
31
291.272000
62
72
0
LINE
100
AcDbEntity
100
AcDbLine
8
GEHWEGKANTE
5
52F
10
3399330.510000
20
5275449.345000
30
291.236000
11
3399330.560000
21
5275450.230000
31
291.236000
62
72
0
LINE
100
AcDbEntity
100
AcDbLine
8
GEHWEGKANTE
5
530
10
3399330.375000
20
5275444.525000
30
291.298000
11
3399330.490000
21
5275448.845000
31
291.298000
62
72
0
LINE
100
AcDbEntity
100
AcDbLine
8
GEHWEGKANTE
5
531
10
3399330.340000
20
5275438.210000
30
291.241000
11
3399330.370000
21
5275444.025000
31
291.241000
62
72
0
LINE
100
AcDbEntity
100
AcDbLine
8
GEHWEGKANTE
5
532
10
3399330.400000
20
5275432.140000
30
291.164000
11
3399330.340000
21
5275437.710000
31
291.164000
62
72
0
LINE
100
AcDbEntity
100
AcDbLine
8
GEHWEGKANTE
5
533
10
3399330.440000
20
5275425.430000
30
291.087000
11
3399330.405000
21
5275431.640000
31
291.087000
62
72
0
LINE
100
AcDbEntity
100
AcDbLine
8
GEHWEGKANTE
5
534
10
3399330.475000
20
5275424.350000
30
291.017000
11
3399330.455000
21
5275424.930000
31
291.017000
62
72
0
LINE
100
AcDbEntity
100
AcDbLine
8
GEHWEGKANTE
5
535
10
3399330.495000
20
5275421.820000
30
290.929000
11
3399330.485000
21
5275423.850000
31
290.929000
62
72
0
LINE
100
AcDbEntity
100
AcDbLine
8
GEHWEGKANTE
5
536
10
3399330.515000
20
5275420.445000
30
290.903000
11
3399330.500000
21
5275421.320000
31
290.903000
62
72
0
LINE
100
AcDbEntity
100
AcDbLine
8
GEHWEGKANTE
5
537
10
3399330.615000
20
5275411.650000
30
290.971000
11
3399330.520000
21
5275419.945000
31
290.971000
62
72
0
LINE
100
AcDbEntity
100
AcDbLine
8
GEHWEGKANTE
5
538
10
3399333.645000
20
5275453.520000
30
0.000000
11
3399333.650000
21
5275453.340000
31
0.000000
62
72
0
LINE
100
AcDbEntity
100
AcDbLine
8
GEHWEGKANTE
5
539
10
3399333.640000
20
5275452.840000
30
291.412000
11
3399333.510000
21
5275450.530000
31
291.412000
62
72
0
LINE
100
AcDbEntity
100
AcDbLine
8
GEHWEGKANTE
5
53A
10
3399333.490000
20
5275450.030000
30
291.406000
11
3399332.650000
21
5275424.195000
31
291.406000
62
72
0
LINE
100
AcDbEntity
100
AcDbLine
8
GEHWEGKANTE
5
53B
10
3399332.645000
20
5275423.695000
30
291.057000
11
3399332.665000
21
5275422.160000
31
291.057000
62
72
0
LINE
100
AcDbEntity
100
AcDbLine
8
GEHWEGKANTE
5
53C
10
3399332.665000
20
5275421.660000
30
291.051000
11
3399332.580000
21
5275417.895000
31
291.051000
62
72
0
LINE
100
AcDbEntity
100
AcDbLine
8
GEHWEGKANTE
5
53D
10
3399332.820000
20
5275417.625000
30
0.000000
11
3399332.945000
21
5275417.615000
31
0.000000
62
72
0
LINE
100
AcDbEntity
100
AcDbLine
8
GEHWEGKANTE
5
53E
10
3399333.190000
20
5275417.340000
30
0.000000
11
3399333.195000
21
5275409.940000
31
0.000000
62
72
0
LINE
100
AcDbEntity
100
AcDbLine
8
GEHWEGKANTE
5
53F
10
3399333.195000
20
5275408.940000
30
0.000000
11
3399333.210000
21
5275402.400000
31
0.000000
62
72
0
LINE
100
AcDbEntity
100
AcDbLine
8
GEHWEGKANTE
5
540
10
3399333.220000
20
5275401.900000
30
0.000000
11
3399333.240000
21
5275401.410000
31
0.000000
62
72
0
LINE
100
AcDbEntity
100
AcDbLine
8
GEHWEGKANTE
5
541
10
3399314.000000
20
5275424.505000
30
0.000000
11
3399316.370000
21
5275424.460000
31
0.000000
62
72
0
LINE
100
AcDbEntity
100
AcDbLine
8
GEHWEGKANTE
5
542
10
3399316.620000
20
5275424.705000
30
0.000000
11
3399316.510000
21
5275445.700000
31
0.000000
62
72
0
LINE
100
AcDbEntity
100
AcDbLine
8
GEHWEGKANTE
5
543
10
3399316.760000
20
5275445.950000
30
0.000000
11
3399319.755000
21
5275445.990000
31
0.000000
62
72
0
LINE
100
AcDbEntity
100
AcDbLine
8
GEHWEGKANTE
5
544
10
3399320.185000
20
5275450.370000
30
291.390000
11
3399320.240000
21
5275452.575000
31
291.390000
62
72
0
LINE
100
AcDbEntity
100
AcDbLine
8
GEHWEGKANTE
5
545
10
3399320.015000
20
5275446.245000
30
0.000000
11
3399320.165000
21
5275449.870000
31
0.000000
62
72
0
LINE
100
AcDbEntity
100
AcDbLine
8
GEHWEGKANTE
5
546
10
3399320.290000
20
5275452.630000
30
291.435000
11
3399320.940000
21
5275452.670000
31
291.435000
62
72
0
LINE
100
AcDbEntity
100
AcDbLine
8
GEHWEGKANTE
5
547
10
3399320.990000
20
5275452.725000
30
291.416000
11
3399321.015000
21
5275453.975000
31
291.416000
62
72
0
LINE
100
AcDbEntity
100
AcDbLine
8
GEHWEGKANTE
5
548
10
3399320.965000
20
5275454.025000
30
291.444000
11
3399320.315000
21
5275454.020000
31
291.444000
62
72
0
LINE
100
AcDbEntity
100
AcDbLine
8
GEHWEGKANTE
5
549
10
3399320.265000
20
5275454.070000
30
291.470000
11
3399320.200000
21
5275457.910000
31
291.470000
62
72
0
LINE
100
AcDbEntity
100
AcDbLine
8
GEHWEGKANTE
5
54A
10
3399320.925000
20
5275439.070000
30
291.241000
11
3399320.710000
21
5275438.870000
31
291.241000
62
72
0
LINE
100
AcDbEntity
100
AcDbLine
8
GEHWEGKANTE
5
54B
10
3399320.455000
20
5275438.460000
30
291.228000
11
3399320.270000
21
5275437.825000
31
291.228000
62
72
0
LINE
100
AcDbEntity
100
AcDbLine
8
GEHWEGKANTE
5
54C
10
3399320.190000
20
5275437.335000
30
291.212000
11
3399320.130000
21
5275436.430000
31
291.212000
62
72
0
LINE
100
AcDbEntity
100
AcDbLine
8
GEHWEGKANTE
5
54D
10
3399320.115000
20
5275435.930000
30
291.184000
11
3399320.085000
21
5275424.915000
31
291.184000
62
72
0
LINE
100
AcDbEntity
100
AcDbLine
8
GEHWEGKANTE
5
54E
10
3399320.055000
20
5275424.415000
30
290.983000
11
3399319.980000
21
5275423.770000
31
290.983000
62
72
0
LINE
100
AcDbEntity
100
AcDbLine
8
GEHWEGKANTE
5
54F
10
3399319.870000
20
5275423.285000
30
290.971000
11
3399319.685000
21
5275422.755000
31
290.971000
62
72
0
LINE
100
AcDbEntity
100
AcDbLine
8
GEHWEGKANTE
5
550
10
3399319.520000
20
5275422.285000
30
290.965000
11
3399317.765000
21
5275417.380000
31
290.965000
62
72
0
LINE
100
AcDbEntity
100
AcDbLine
8
GEHWEGKANTE
5
551
10
3399317.620000
20
5275416.905000
30
290.870000
11
3399317.240000
21
5275415.405000
31
290.870000
62
72
0
LINE
100
AcDbEntity
100
AcDbLine
8
GEHWEGKANTE
5
552
10
3399317.165000
20
5275414.910000
30
290.866000
11
3399317.070000
21
5275413.365000
31
290.866000
62
72
0
INSERT
100
AcDbEntity
100
AcDbBlockReference
8
GEHWEGKANTE
5
553
2
PFEIL
10
3399335.030000
20
5275451.660000
30
291.466000
41
0.500000
42
0.500000
43
1.000000
50
86.850000
0
INSERT
100
AcDbEntity
100
AcDbBlockReference
8
GEHWEGKANTE
5
554
2
PFEIL
10
3399333.655000
20
5275422.880000
30
291.466000
41
0.500000
42
0.500000
43
1.000000
50
88.470000
0
INSERT
100
AcDbEntity
100
AcDbBlockReference
8
AMPEL
5
555
2
AMPEL
10
3399334.840000
20
5275380.730000
30
290.861000
41
0.750000
42
0.750000
43
1.000000
50
0.000000
0
INSERT
100
AcDbEntity
100
AcDbBlockReference
8
AMPEL
5
556
2
AMPEL
10
3399329.340000
20
5275367.670000
30
290.656000
41
0.750000
42
0.750000
43
1.000000
50
0.000000
0
INSERT
100
AcDbEntity
100
AcDbBlockReference
8
AMPEL
5
557
2
AMPEL
10
3399334.415000
20
5275371.460000
30
290.798000
41
0.750000
42
0.750000
43
1.000000
50
0.000000
0
INSERT
100
AcDbEntity
100
AcDbBlockReference
8
AMPEL
5
558
2
AMPEL
10
3399330.890000
20
5275386.825000
30
290.765000
41
0.750000
42
0.750000
43
1.000000
50
0.000000
0
INSERT
100
AcDbEntity
100
AcDbBlockReference
8
AMPEL
5
559
2
AMPEL
10
3399320.070000
20
5275387.445000
30
290.693000
41
0.750000
42
0.750000
43
1.000000
50
0.000000
0
INSERT
100
AcDbEntity
100
AcDbBlockReference
8
AMPEL
5
55A
2
AMPEL
10
3399313.860000
20
5275382.570000
30
290.571000
41
0.750000
42
0.750000
43
1.000000
50
0.000000
0
INSERT
100
AcDbEntity
100
AcDbBlockReference
8
AMPEL
5
55B
2
AMPEL
10
3399313.110000
20
5275372.700000
30
290.628000
41
0.750000
42
0.750000
43
1.000000
50
0.000000
0
INSERT
100
AcDbEntity
100
AcDbBlockReference
8
AMPEL
5
55C
2
AMPEL
10
3399316.970000
20
5275368.700000
30
290.582000
41
0.750000
42
0.750000
43
1.000000
50
0.000000
0
INSERT
100
AcDbEntity
100
AcDbBlockReference
8
KVKUNDTELEKOMSCHACHT
5
55D
2
KABELSCHACHT
10
3399269.470000
20
5275382.475000
30
0.218000
41
0.450000
42
0.450000
43
1.000000
50
45.000000
0
INSERT
100
AcDbEntity
100
AcDbBlockReference
8
KVKUNDTELEKOMSCHACHT
5
55E
2
KABELSCHACHT
10
3399268.865000
20
5275383.255000
30
0.121000
41
0.315000
42
0.315000
43
1.000000
50
42.390000
0
INSERT
100
AcDbEntity
100
AcDbBlockReference
8
KABELSCHACHDECKEL
5
55F
2
KABELSCHACHT
10
3399261.690000
20
5275390.640000
30
0.108000
41
0.775000
42
0.775000
43
1.000000
50
180.630000
0
INSERT
100
AcDbEntity
100
AcDbBlockReference
8
KABELSCHACHDECKEL
5
560
2
KABELSCHACHT
10
3399262.260000
20
5275400.115000
30
0.102000
41
0.755000
42
0.755000
43
1.000000
50
195.750000
0
INSERT
100
AcDbEntity
100
AcDbBlockReference
8
BUSHALTESTELLE
5
561
2
HALTESTELLE
10
3399277.885000
20
5275374.320000
30
291.060000
41
2.500000
42
2.500000
43
1.000000
50
0.000000
0
INSERT
100
AcDbEntity
100
AcDbBlockReference
8
BUSHALTESTELLE
5
562
2
NI
10
3399274.200000
20
5275376.655000
30
0.383000
41
5.605000
42
5.605000
43
1.000000
50
314.010000
0
INSERT
100
AcDbEntity
100
AcDbBlockReference
8
BUSHALTESTELLE
5
563
2
HALTESTELLE
10
3399331.495000
20
5275407.440000
30
290.852000
41
2.500000
42
2.500000
43
1.000000
50
0.000000
0
INSERT
100
AcDbEntity
100
AcDbBlockReference
8
FAHRBAHNRANDOKBL
5
564
2
KREISKL
10
3399261.420000
20
5275391.545000
30
290.979000
41
0.500000
42
0.500000
43
1.000000
50
0.000000
0
INSERT
100
AcDbEntity
100
AcDbBlockReference
8
FAHRBAHNRANDOKBL
5
565
2
KREISKL
10
3399262.460000
20
5275391.440000
30
291.095000
41
0.500000
42
0.500000
43
1.000000
50
0.000000
0
INSERT
100
AcDbEntity
100
AcDbBlockReference
8
FAHRBAHNRANDOKBL
5
566
2
KREISKL
10
3399264.925000
20
5275390.225000
30
291.166000
41
0.500000
42
0.500000
43
1.000000
50
0.000000
0
INSERT
100
AcDbEntity
100
AcDbBlockReference
8
FAHRBAHNRANDOKBL
5
567
2
KREISKL
10
3399268.195000
20
5275387.745000
30
291.158000
41
0.500000
42
0.500000
43
1.000000
50
0.000000
0
INSERT
100
AcDbEntity
100
AcDbBlockReference
8
FAHRBAHNRANDOKBL
5
568
2
KREISKL
10
3399270.655000
20
5275385.495000
30
291.143000
41
0.500000
42
0.500000
43
1.000000
50
0.000000
0
INSERT
100
AcDbEntity
100
AcDbBlockReference
8
FAHRBAHNRANDOKBL
5
569
2
KREISKL
10
3399273.435000
20
5275382.580000
30
291.078000
41
0.500000
42
0.500000
43
1.000000
50
0.000000
0
INSERT
100
AcDbEntity
100
AcDbBlockReference
8
FAHRBAHNRANDOKBL
5
56A
2
KREISKL
10
3399277.985000
20
5275377.915000
30
291.010000
41
0.500000
42
0.500000
43
1.000000
50
0.000000
0
INSERT
100
AcDbEntity
100
AcDbBlockReference
8
FAHRBAHNRANDOKBL
5
56B
2
KREISKL
10
3399279.785000
20
5275376.130000
30
290.980000
41
0.500000
42
0.500000
43
1.000000
50
0.000000
0
INSERT
100
AcDbEntity
100
AcDbBlockReference
8
FAHRBAHNRANDOKBL
5
56C
2
KREISKL
10
3399281.120000
20
5275375.090000
30
290.961000
41
0.500000
42
0.500000
43
1.000000
50
0.000000
0
INSERT
100
AcDbEntity
100
AcDbBlockReference
8
FAHRBAHNRANDOKBL
5
56D
2
KREISKL
10
3399285.305000
20
5275372.335000
30
290.883000
41
0.500000
42
0.500000
43
1.000000
50
0.000000
0
INSERT
100
AcDbEntity
100
AcDbBlockReference
8
FAHRBAHNRANDOKBL
5
56E
2
KREISKL
10
3399288.940000
20
5275369.940000
30
290.828000
41
0.500000
42
0.500000
43
1.000000
50
0.000000
0
INSERT
100
AcDbEntity
100
AcDbBlockReference
8
FAHRBAHNRANDOKBL
5
56F
2
KREISKL
10
3399291.465000
20
5275368.245000
30
290.796000
41
0.500000
42
0.500000
43
1.000000
50
0.000000
0
INSERT
100
AcDbEntity
100
AcDbBlockReference
8
FAHRBAHNRANDOKBL
5
570
2
KREISKL
10
3399315.025000
20
5275370.855000
30
290.740000
41
0.500000
42
0.500000
43
1.000000
50
0.000000
0
INSERT
100
AcDbEntity
100
AcDbBlockReference
8
FAHRBAHNRANDOKBL
5
571
2
KREISKL
10
3399262.815000
20
5275467.025000
30
292.584000
41
0.500000
42
0.500000
43
1.000000
50
0.000000
0
INSERT
100
AcDbEntity
100
AcDbBlockReference
8
FAHRBAHNRANDOKBL
5
572
2
KREISKL
10
3399262.820000
20
5275467.515000
30
292.585000
41
0.500000
42
0.500000
43
1.000000
50
0.000000
0
INSERT
100
AcDbEntity
100
AcDbBlockReference
8
2053
5
573
2
NICHTBE
10
3399362.225000
20
5275380.205000
30
291.516000
41
4.000000
42
4.000000
43
1.000000
50
0.000000
0
INSERT
100
AcDbEntity
100
AcDbBlockReference
8
STRASSENEINLAUF
5
574
2
STREINLAUF
10
3399280.520000
20
5275393.530000
30
290.662000
41
0.500000
42
0.500000
43
1.000000
50
320.400000
0
INSERT
100
AcDbEntity
100
AcDbBlockReference
8
STRASSENEINLAUF
5
575
2
STREINLAUF
10
3399289.195000
20
5275370.930000
30
290.677000
41
0.500000
42
0.500000
43
1.000000
50
316.800000
0
INSERT
100
AcDbEntity
100
AcDbBlockReference
8
STRASSENEINLAUF
5
576
2
STREINLAUF
10
3399381.410000
20
5275381.825000
30
292.010000
41
0.500000
42
0.500000
43
1.000000
50
302.400000
0
INSERT
100
AcDbEntity
100
AcDbBlockReference
8
STRASSENEINLAUF
5
577
2
STREINLAUF
10
3399360.155000
20
5275370.615000
30
291.241000
41
0.500000
42
0.500000
43
1.000000
50
10.800000
0
INSERT
100
AcDbEntity
100
AcDbBlockReference
8
STRASSENEINLAUF
5
578
2
STREINLAUF
10
3399336.360000
20
5275379.390000
30
290.822000
41
0.500000
42
0.500000
43
1.000000
50
358.200000
0
INSERT
100
AcDbEntity
100
AcDbBlockReference
8
STRASSENEINLAUF
5
579
2
STREINLAUF
10
3399362.480000
20
5275378.535000
30
291.372000
41
0.500000
42
0.500000
43
1.000000
50
358.200000
0
INSERT
100
AcDbEntity
100
AcDbBlockReference
8
STRASSENEINLAUF
5
57A
2
STREINLAUF
10
3399332.625000
20
5275354.325000
30
290.318000
41
0.500000
42
0.500000
43
1.000000
50
55.800000
0
INSERT
100
AcDbEntity
100
AcDbBlockReference
8
STRASSENEINLAUF
5
57B
2
STREINLAUF
10
3399330.205000
20
5275392.040000
30
290.633000
41
0.500000
42
0.500000
43
1.000000
50
86.400000
0
INSERT
100
AcDbEntity
100
AcDbBlockReference
8
STRASSENEINLAUF
5
57C
2
STREINLAUF
10
3399322.855000
20
5275391.920000
30
290.638000
41
0.500000
42
0.500000
43
1.000000
50
86.400000
0
INSERT
100
AcDbEntity
100
AcDbBlockReference
8
STRASSENEINLAUF
5
57D
2
STREINLAUF
10
3399303.460000
20
5275381.905000
30
290.413000
41
0.500000
42
0.500000
43
1.000000
50
347.400000
0
INSERT
100
AcDbEntity
100
AcDbBlockReference
8
STRASSENEINLAUF
5
57E
2
STREINLAUF
10
3399317.630000
20
5275364.395000
30
290.539000
41
0.500000
42
0.500000
43
1.000000
50
84.600000
0
INSERT
100
AcDbEntity
100
AcDbBlockReference
8
STRASSENEINLAUF
5
57F
2
STREINLAUF
10
3399316.880000
20
5275397.005000
30
290.799000
41
0.500000
42
0.500000
43
1.000000
50
93.600000
0
INSERT
100
AcDbEntity
100
AcDbBlockReference
8
STRASSENEINLAUF
5
580
2
STREINLAUF
10
3399266.070000
20
5275415.170000
30
291.228000
41
0.500000
42
0.500000
43
1.000000
50
295.200000
0
INSERT
100
AcDbEntity
100
AcDbBlockReference
8
STRASSENEINLAUF
5
581
2
STREINLAUF
10
3399255.620000
20
5275467.010000
30
292.505000
41
0.500000
42
0.500000
43
1.000000
50
0.000000
0
INSERT
100
AcDbEntity
100
AcDbBlockReference
8
STRASSENEINLAUF
5
582
2
STREINLAUF
10
3399262.480000
20
5275467.215000
30
292.468000
41
0.500000
42
0.500000
43
1.000000
50
0.000000
0
INSERT
100
AcDbEntity
100
AcDbBlockReference
8
STRASSENEINLAUF
5
583
2
STREINLAUF
10
3399262.670000
20
5275442.115000
30
291.913000
41
0.500000
42
0.500000
43
1.000000
50
0.000000
0
INSERT
100
AcDbEntity
100
AcDbBlockReference
8
STRASSENEINLAUF
5
584
2
STREINLAUF
10
3399317.045000
20
5275415.880000
30
290.837000
41
0.500000
42
0.500000
43
1.000000
50
75.600000
0
INSERT
100
AcDbEntity
100
AcDbBlockReference
8
STRASSENEINLAUF
5
585
2
STREINLAUF
10
3399330.525000
20
5275454.430000
30
291.240000
41
0.500000
42
0.500000
43
1.000000
50
84.600000
0
INSERT
100
AcDbEntity
100
AcDbBlockReference
8
STRASSENEINLAUF
5
586
2
STREINLAUF
10
3399308.860000
20
5275459.550000
30
291.951000
41
0.500000
42
0.500000
43
1.000000
50
77.400000
0
ENDSEC
0
EOF
